<?xml version="1.0" standalone="no"?>
<!DOCTYPE svg PUBLIC "-//W3C//DTD SVG 20010904//EN"
 "http://www.w3.org/TR/2001/REC-SVG-20010904/DTD/svg10.dtd">
<svg version="1.0" xmlns="http://www.w3.org/2000/svg"
 width="700.000000pt" height="700.000000pt" viewBox="0 0 700.000000 700.000000"
 preserveAspectRatio="xMidYMid meet">
<metadata>
Created by potrace 1.14, written by Peter Selinger 2001-2017
</metadata>
<g transform="translate(0.000000,700.000000) scale(0.100000,-0.100000)"
fill="#000000" stroke="none">
<path d="M3279 6996 c-2 -2 -48 -7 -102 -10 -53 -4 -103 -9 -110 -11 -6 -2
-34 -6 -62 -9 -27 -3 -75 -10 -105 -16 -30 -6 -68 -13 -85 -16 -235 -41 -579
-154 -820 -269 -164 -79 -463 -258 -567 -339 -14 -12 -41 -32 -59 -46 -209
-157 -501 -450 -644 -645 -17 -22 -33 -42 -36 -45 -16 -14 -144 -209 -208
-317 -228 -386 -369 -790 -446 -1274 -36 -228 -41 -696 -10 -913 3 -17 7 -49
10 -71 17 -135 32 -216 76 -389 58 -228 133 -435 239 -653 268 -551 667 -1015
1166 -1359 116 -80 112 -77 224 -142 178 -104 329 -176 510 -244 105 -40 301
-104 343 -112 12 -2 54 -12 92 -21 39 -9 79 -19 90 -21 11 -2 31 -6 45 -9 61
-12 200 -34 255 -40 33 -4 71 -9 85 -13 41 -10 3836 -14 3825 -4 -6 5 -111 70
-235 144 -124 74 -398 240 -610 368 -212 128 -397 240 -412 249 -16 9 -28 19
-28 22 0 3 27 28 59 55 86 72 296 285 388 394 277 331 471 668 623 1084 18 48
33 93 34 100 1 6 14 49 29 96 39 127 89 359 103 477 3 32 8 60 9 63 11 19 20
225 20 450 -1 237 -4 315 -20 428 -12 88 -16 118 -20 132 -2 8 -7 35 -10 60
-4 25 -11 65 -17 90 -5 25 -11 53 -13 62 -18 88 -102 372 -125 423 -5 11 -25
63 -46 115 -48 124 -122 277 -203 420 -36 63 -69 120 -73 125 -5 6 -34 48 -65
95 -133 200 -241 329 -442 530 -499 498 -1149 838 -1826 955 -49 8 -101 17
-115 20 -23 4 -51 7 -180 21 -55 6 -526 14 -531 10z m1480 -3131 c27 -63 43
-99 76 -180 20 -49 38 -91 40 -93 4 -5 42 -10 112 -17 37 -4 75 -9 84 -11 9
-3 39 -7 65 -9 46 -5 82 -9 164 -20 67 -9 152 -19 250 -30 25 -3 59 -7 75 -10
17 -2 53 -7 80 -10 28 -3 61 -7 75 -10 14 -2 45 -6 70 -9 254 -28 272 -34 139
-50 -30 -3 -67 -8 -84 -10 -16 -2 -57 -7 -90 -11 -33 -4 -69 -9 -80 -10 -11
-2 -42 -6 -70 -9 -27 -4 -66 -9 -85 -11 -54 -8 -98 -13 -185 -25 -44 -6 -91
-12 -105 -14 -14 -3 -49 -7 -79 -10 -29 -4 -83 -11 -120 -16 -36 -5 -88 -12
-116 -15 -27 -4 -60 -8 -73 -10 -13 -2 -53 -7 -90 -11 -37 -3 -69 -8 -72 -9
-3 -2 -36 -6 -73 -10 -64 -7 -67 -6 -76 17 -5 12 -22 52 -39 88 -17 36 -83
182 -147 325 -65 143 -131 288 -147 323 -16 35 -33 75 -39 89 -5 14 -11 24
-13 22 -2 -2 -18 -44 -36 -94 -17 -49 -38 -103 -45 -120 -7 -16 -16 -41 -20
-55 -4 -14 -18 -52 -30 -85 -13 -33 -64 -175 -115 -315 -50 -140 -96 -264
-101 -275 -9 -20 -197 -534 -269 -735 -21 -58 -61 -168 -90 -245 -29 -77 -60
-162 -70 -190 -17 -50 -64 -178 -82 -225 -10 -25 -10 -24 -32 20 -12 25 -89
176 -170 335 -82 160 -195 380 -251 490 -56 110 -167 326 -246 480 -79 154
-152 299 -163 323 -11 23 -22 42 -25 42 -3 0 -24 -45 -46 -101 l-40 -100 -55
7 c-30 3 -66 7 -80 9 -53 5 -156 17 -180 20 -14 2 -50 6 -80 10 -71 8 -129 15
-160 20 -14 2 -54 6 -90 10 -36 4 -78 9 -95 11 -55 6 -120 14 -155 19 -19 2
-64 7 -100 10 -36 3 -72 8 -80 10 -8 2 -44 7 -80 10 -36 4 -72 8 -80 10 -8 1
-44 6 -80 9 -36 4 -74 9 -85 11 -11 2 -33 4 -49 4 -42 1 -29 8 29 15 44 6 206
30 275 41 14 2 75 11 135 20 61 9 126 18 145 21 19 3 46 7 60 9 14 2 39 6 55
9 17 2 66 10 110 16 44 6 94 13 110 16 17 2 48 7 70 10 95 13 158 24 160 26 2
2 78 203 184 485 104 275 127 333 131 333 6 0 44 -71 180 -335 111 -215 210
-407 280 -540 32 -60 99 -191 150 -290 51 -99 116 -223 143 -275 27 -52 65
-126 84 -165 l35 -69 12 29 c13 32 96 256 401 1090 103 281 200 544 215 585
16 41 56 152 90 245 51 141 154 421 192 525 8 21 49 -72 294 -660 157 -377
289 -694 293 -705z"/>
</g>
</svg>
