<svg width="2115" height="512" viewBox="0 0 2115 512" fill="none" xmlns="http://www.w3.org/2000/svg">
<path d="M255.12 0C395.948 0 510.115 114.62 510.115 256C510.115 335.9 473.65 407.253 416.516 454.201L512.125 512H255.12C114.295 512 0.125 397.383 0.125 256C0.125 114.617 114.295 0 255.12 0Z" fill="#F97316"/>
<path d="M64.915 260.778L151.926 247.941L174.991 187.136L238.94 310.508L306.01 127.629L356.767 249.548L447.406 260.778L336.829 275.215L307.824 211.045L244.379 384.3L180.083 258.37L173.681 273.611L64.915 260.778Z" fill="black"/>
<path d="M750.875 169.469C750.875 178.552 749.458 186.594 746.625 193.594C743.792 200.594 739.667 206.51 734.25 211.344C728.833 216.094 722.167 219.719 714.25 222.219C706.417 224.719 697.167 225.969 686.5 225.969H673V277.594C673 278.427 672.708 279.177 672.125 279.844C671.625 280.51 670.75 281.052 669.5 281.469C668.25 281.885 666.583 282.219 664.5 282.469C662.417 282.719 659.75 282.844 656.5 282.844C653.333 282.844 650.667 282.719 648.5 282.469C646.417 282.219 644.75 281.885 643.5 281.469C642.25 281.052 641.375 280.51 640.875 279.844C640.375 279.177 640.125 278.427 640.125 277.594V132.094C640.125 128.177 641.125 125.26 643.125 123.344C645.208 121.344 647.917 120.344 651.25 120.344H689.375C693.208 120.344 696.833 120.51 700.25 120.844C703.75 121.094 707.917 121.719 712.75 122.719C717.583 123.635 722.458 125.385 727.375 127.969C732.375 130.552 736.625 133.844 740.125 137.844C743.625 141.76 746.292 146.385 748.125 151.719C749.958 156.969 750.875 162.885 750.875 169.469ZM716.5 171.844C716.5 166.177 715.5 161.51 713.5 157.844C711.5 154.177 709.042 151.469 706.125 149.719C703.208 147.969 700.125 146.885 696.875 146.469C693.708 145.969 690.417 145.719 687 145.719H673V200.594H687.75C693 200.594 697.375 199.885 700.875 198.469C704.458 197.052 707.375 195.094 709.625 192.594C711.875 190.01 713.583 186.969 714.75 183.469C715.917 179.885 716.5 176.01 716.5 171.844Z" fill="#F97316"/>
<path d="M880.25 277.844C880.25 278.677 880.042 279.427 879.625 280.094C879.208 280.677 878.458 281.177 877.375 281.594C876.375 282.01 875 282.302 873.25 282.469C871.583 282.719 869.458 282.844 866.875 282.844C864.125 282.844 861.875 282.719 860.125 282.469C858.458 282.302 857.125 282.01 856.125 281.594C855.125 281.177 854.417 280.677 854 280.094C853.583 279.427 853.375 278.677 853.375 277.844V264.969C847.208 271.635 840.917 276.635 834.5 279.969C828.167 283.302 821.583 284.969 814.75 284.969C807.083 284.969 800.625 283.719 795.375 281.219C790.208 278.719 786 275.302 782.75 270.969C779.583 266.635 777.292 261.635 775.875 255.969C774.542 250.219 773.875 243.094 773.875 234.594V166.344C773.875 165.51 774.083 164.802 774.5 164.219C775 163.552 775.833 163.01 777 162.594C778.25 162.177 779.875 161.885 781.875 161.719C783.958 161.469 786.5 161.344 789.5 161.344C792.583 161.344 795.125 161.469 797.125 161.719C799.125 161.885 800.708 162.177 801.875 162.594C803.125 163.01 804 163.552 804.5 164.219C805 164.802 805.25 165.51 805.25 166.344V229.344C805.25 235.177 805.625 239.635 806.375 242.719C807.125 245.802 808.25 248.469 809.75 250.719C811.333 252.885 813.292 254.594 815.625 255.844C818.042 257.01 820.833 257.594 824 257.594C828 257.594 832 256.135 836 253.219C840.083 250.302 844.417 246.052 849 240.469V166.344C849 165.51 849.208 164.802 849.625 164.219C850.125 163.552 850.958 163.01 852.125 162.594C853.375 162.177 855 161.885 857 161.719C859 161.469 861.542 161.344 864.625 161.344C867.708 161.344 870.25 161.469 872.25 161.719C874.25 161.885 875.833 162.177 877 162.594C878.167 163.01 879 163.552 879.5 164.219C880 164.802 880.25 165.51 880.25 166.344V277.844Z" fill="#F97316"/>
<path d="M943.5 277.844C943.5 278.677 943.25 279.427 942.75 280.094C942.25 280.677 941.375 281.177 940.125 281.594C938.958 282.01 937.375 282.302 935.375 282.469C933.375 282.719 930.833 282.844 927.75 282.844C924.667 282.844 922.125 282.719 920.125 282.469C918.125 282.302 916.5 282.01 915.25 281.594C914.083 281.177 913.25 280.677 912.75 280.094C912.25 279.427 912 278.677 912 277.844V113.469C912 112.635 912.25 111.885 912.75 111.219C913.25 110.552 914.083 110.01 915.25 109.594C916.5 109.094 918.125 108.719 920.125 108.469C922.125 108.219 924.667 108.094 927.75 108.094C930.833 108.094 933.375 108.219 935.375 108.469C937.375 108.719 938.958 109.094 940.125 109.594C941.375 110.01 942.25 110.552 942.75 111.219C943.25 111.885 943.5 112.635 943.5 113.469V277.844Z" fill="#F97316"/>
<path d="M1053.5 246.344C1053.5 252.677 1052.29 258.26 1049.88 263.094C1047.54 267.927 1044.21 271.969 1039.88 275.219C1035.54 278.469 1030.42 280.885 1024.5 282.469C1018.58 284.135 1012.17 284.969 1005.25 284.969C1001.08 284.969 997.083 284.635 993.25 283.969C989.5 283.385 986.125 282.635 983.125 281.719C980.125 280.719 977.625 279.719 975.625 278.719C973.625 277.719 972.167 276.802 971.25 275.969C970.333 275.052 969.625 273.677 969.125 271.844C968.625 269.927 968.375 267.135 968.375 263.469C968.375 261.052 968.458 259.135 968.625 257.719C968.792 256.219 969.042 255.052 969.375 254.219C969.708 253.302 970.125 252.719 970.625 252.469C971.125 252.135 971.75 251.969 972.5 251.969C973.417 251.969 974.75 252.51 976.5 253.594C978.333 254.594 980.583 255.719 983.25 256.969C985.917 258.219 989 259.385 992.5 260.469C996.083 261.552 1000.12 262.094 1004.62 262.094C1007.46 262.094 1009.96 261.802 1012.12 261.219C1014.38 260.635 1016.29 259.802 1017.88 258.719C1019.54 257.635 1020.79 256.26 1021.62 254.594C1022.46 252.927 1022.88 251.01 1022.88 248.844C1022.88 246.344 1022.08 244.219 1020.5 242.469C1019 240.635 1016.96 239.052 1014.38 237.719C1011.88 236.385 1009 235.135 1005.75 233.969C1002.58 232.802 999.292 231.51 995.875 230.094C992.542 228.677 989.25 227.052 986 225.219C982.833 223.385 979.958 221.135 977.375 218.469C974.875 215.802 972.833 212.594 971.25 208.844C969.75 205.094 969 200.594 969 195.344C969 190.01 970.042 185.135 972.125 180.719C974.208 176.219 977.208 172.385 981.125 169.219C985.042 166.052 989.792 163.594 995.375 161.844C1001.04 160.094 1007.38 159.219 1014.38 159.219C1017.88 159.219 1021.25 159.469 1024.5 159.969C1027.83 160.469 1030.83 161.094 1033.5 161.844C1036.17 162.594 1038.42 163.427 1040.25 164.344C1042.08 165.177 1043.38 165.927 1044.12 166.594C1044.96 167.177 1045.54 167.802 1045.88 168.469C1046.21 169.052 1046.46 169.802 1046.62 170.719C1046.79 171.552 1046.92 172.635 1047 173.969C1047.17 175.219 1047.25 176.802 1047.25 178.719C1047.25 180.969 1047.17 182.802 1047 184.219C1046.92 185.635 1046.71 186.76 1046.38 187.594C1046.12 188.427 1045.75 189.01 1045.25 189.344C1044.75 189.594 1044.17 189.719 1043.5 189.719C1042.75 189.719 1041.58 189.302 1040 188.469C1038.42 187.552 1036.42 186.594 1034 185.594C1031.67 184.594 1028.92 183.677 1025.75 182.844C1022.67 181.927 1019.12 181.469 1015.12 181.469C1012.29 181.469 1009.83 181.76 1007.75 182.344C1005.67 182.927 1003.96 183.76 1002.62 184.844C1001.29 185.927 1000.29 187.219 999.625 188.719C998.958 190.135 998.625 191.677 998.625 193.344C998.625 195.927 999.417 198.094 1001 199.844C1002.58 201.594 1004.67 203.135 1007.25 204.469C1009.83 205.802 1012.75 207.052 1016 208.219C1019.33 209.385 1022.67 210.677 1026 212.094C1029.42 213.427 1032.75 215.01 1036 216.844C1039.33 218.677 1042.29 220.927 1044.88 223.594C1047.46 226.26 1049.54 229.469 1051.12 233.219C1052.71 236.885 1053.5 241.26 1053.5 246.344Z" fill="#F97316"/>
<path d="M1180.25 218.844C1180.25 222.677 1179.38 225.51 1177.62 227.344C1175.96 229.177 1173.62 230.094 1170.62 230.094H1102.75C1102.75 234.844 1103.29 239.177 1104.38 243.094C1105.54 246.927 1107.33 250.219 1109.75 252.969C1112.25 255.635 1115.42 257.677 1119.25 259.094C1123.17 260.51 1127.83 261.219 1133.25 261.219C1138.75 261.219 1143.58 260.844 1147.75 260.094C1151.92 259.26 1155.5 258.385 1158.5 257.469C1161.58 256.469 1164.12 255.594 1166.12 254.844C1168.12 254.01 1169.75 253.594 1171 253.594C1171.75 253.594 1172.38 253.76 1172.88 254.094C1173.38 254.344 1173.79 254.844 1174.12 255.594C1174.46 256.344 1174.67 257.427 1174.75 258.844C1174.92 260.177 1175 261.885 1175 263.969C1175 265.802 1174.96 267.385 1174.88 268.719C1174.79 269.969 1174.67 271.052 1174.5 271.969C1174.33 272.885 1174.08 273.677 1173.75 274.344C1173.42 274.927 1172.96 275.51 1172.38 276.094C1171.88 276.677 1170.42 277.469 1168 278.469C1165.58 279.469 1162.5 280.469 1158.75 281.469C1155 282.385 1150.71 283.177 1145.88 283.844C1141.04 284.594 1135.88 284.969 1130.38 284.969C1120.46 284.969 1111.75 283.719 1104.25 281.219C1096.83 278.719 1090.62 274.927 1085.62 269.844C1080.62 264.76 1076.88 258.344 1074.38 250.594C1071.96 242.844 1070.75 233.76 1070.75 223.344C1070.75 213.427 1072.04 204.51 1074.62 196.594C1077.21 188.594 1080.96 181.844 1085.88 176.344C1090.79 170.76 1096.75 166.51 1103.75 163.594C1110.83 160.677 1118.79 159.219 1127.62 159.219C1136.96 159.219 1144.92 160.594 1151.5 163.344C1158.17 166.094 1163.62 169.927 1167.88 174.844C1172.12 179.677 1175.25 185.427 1177.25 192.094C1179.25 198.76 1180.25 206.01 1180.25 213.844V218.844ZM1149.75 209.844C1150 201.01 1148.21 194.094 1144.38 189.094C1140.62 184.01 1134.79 181.469 1126.88 181.469C1122.88 181.469 1119.38 182.219 1116.38 183.719C1113.46 185.219 1111 187.26 1109 189.844C1107.08 192.344 1105.58 195.344 1104.5 198.844C1103.5 202.26 1102.92 205.927 1102.75 209.844H1149.75Z" fill="#F97316"/>
<path d="M1378 257.594C1378 259.677 1377.92 261.469 1377.75 262.969C1377.67 264.385 1377.5 265.635 1377.25 266.719C1377 267.719 1376.67 268.594 1376.25 269.344C1375.83 270.094 1375.17 270.969 1374.25 271.969C1373.33 272.885 1371.54 274.094 1368.88 275.594C1366.29 277.094 1363.08 278.552 1359.25 279.969C1355.5 281.302 1351.17 282.427 1346.25 283.344C1341.42 284.26 1336.17 284.719 1330.5 284.719C1319.42 284.719 1309.42 283.01 1300.5 279.594C1291.58 276.177 1284 271.094 1277.75 264.344C1271.5 257.51 1266.71 249.01 1263.38 238.844C1260.04 228.677 1258.38 216.844 1258.38 203.344C1258.38 189.594 1260.21 177.385 1263.88 166.719C1267.54 156.052 1272.67 147.094 1279.25 139.844C1285.83 132.594 1293.71 127.094 1302.88 123.344C1312.12 119.594 1322.29 117.719 1333.38 117.719C1337.88 117.719 1342.21 118.094 1346.38 118.844C1350.54 119.594 1354.38 120.594 1357.88 121.844C1361.46 123.01 1364.67 124.385 1367.5 125.969C1370.33 127.552 1372.29 128.927 1373.38 130.094C1374.54 131.177 1375.33 132.094 1375.75 132.844C1376.17 133.594 1376.5 134.552 1376.75 135.719C1377 136.885 1377.17 138.26 1377.25 139.844C1377.42 141.427 1377.5 143.385 1377.5 145.719C1377.5 148.219 1377.42 150.344 1377.25 152.094C1377.08 153.844 1376.79 155.26 1376.38 156.344C1375.96 157.427 1375.46 158.219 1374.88 158.719C1374.29 159.219 1373.62 159.469 1372.88 159.469C1371.62 159.469 1370.04 158.76 1368.12 157.344C1366.21 155.844 1363.71 154.219 1360.62 152.469C1357.62 150.635 1354 149.01 1349.75 147.594C1345.58 146.094 1340.58 145.344 1334.75 145.344C1328.33 145.344 1322.58 146.677 1317.5 149.344C1312.5 151.927 1308.21 155.677 1304.62 160.594C1301.12 165.427 1298.46 171.302 1296.62 178.219C1294.79 185.135 1293.88 192.927 1293.88 201.594C1293.88 211.094 1294.83 219.344 1296.75 226.344C1298.75 233.26 1301.54 238.969 1305.12 243.469C1308.79 247.969 1313.17 251.344 1318.25 253.594C1323.42 255.76 1329.21 256.844 1335.62 256.844C1341.46 256.844 1346.5 256.177 1350.75 254.844C1355 253.427 1358.62 251.885 1361.62 250.219C1364.71 248.552 1367.21 247.052 1369.12 245.719C1371.12 244.385 1372.67 243.719 1373.75 243.719C1374.58 243.719 1375.25 243.885 1375.75 244.219C1376.25 244.552 1376.67 245.219 1377 246.219C1377.33 247.219 1377.58 248.635 1377.75 250.469C1377.92 252.219 1378 254.594 1378 257.594Z" fill="white"/>
<path d="M1512.5 220.969C1512.5 230.469 1511.25 239.135 1508.75 246.969C1506.25 254.802 1502.46 261.552 1497.38 267.219C1492.29 272.885 1485.92 277.26 1478.25 280.344C1470.58 283.427 1461.62 284.969 1451.38 284.969C1441.46 284.969 1432.83 283.594 1425.5 280.844C1418.17 278.094 1412.08 274.094 1407.25 268.844C1402.42 263.594 1398.83 257.135 1396.5 249.469C1394.17 241.802 1393 233.052 1393 223.219C1393 213.719 1394.25 205.052 1396.75 197.219C1399.33 189.302 1403.17 182.552 1408.25 176.969C1413.33 171.302 1419.67 166.927 1427.25 163.844C1434.92 160.76 1443.88 159.219 1454.12 159.219C1464.12 159.219 1472.79 160.594 1480.12 163.344C1487.46 166.01 1493.5 169.969 1498.25 175.219C1503.08 180.469 1506.67 186.927 1509 194.594C1511.33 202.26 1512.5 211.052 1512.5 220.969ZM1480.12 222.219C1480.12 216.719 1479.67 211.677 1478.75 207.094C1477.92 202.427 1476.46 198.385 1474.38 194.969C1472.29 191.552 1469.5 188.885 1466 186.969C1462.58 185.052 1458.25 184.094 1453 184.094C1448.33 184.094 1444.25 184.969 1440.75 186.719C1437.25 188.385 1434.38 190.885 1432.12 194.219C1429.88 197.469 1428.17 201.427 1427 206.094C1425.92 210.677 1425.38 215.927 1425.38 221.844C1425.38 227.344 1425.83 232.427 1426.75 237.094C1427.67 241.677 1429.12 245.677 1431.12 249.094C1433.21 252.51 1436 255.177 1439.5 257.094C1443 258.927 1447.33 259.844 1452.5 259.844C1457.25 259.844 1461.38 259.01 1464.88 257.344C1468.38 255.594 1471.25 253.094 1473.5 249.844C1475.75 246.594 1477.42 242.677 1478.5 238.094C1479.58 233.427 1480.12 228.135 1480.12 222.219Z" fill="white"/>
<path d="M1644 277.844C1644 278.677 1643.75 279.427 1643.25 280.094C1642.75 280.677 1641.92 281.177 1640.75 281.594C1639.58 282.01 1637.96 282.302 1635.88 282.469C1633.88 282.719 1631.38 282.844 1628.38 282.844C1625.29 282.844 1622.71 282.719 1620.62 282.469C1618.62 282.302 1617.04 282.01 1615.88 281.594C1614.71 281.177 1613.88 280.677 1613.38 280.094C1612.88 279.427 1612.62 278.677 1612.62 277.844V214.219C1612.62 208.802 1612.21 204.552 1611.38 201.469C1610.62 198.385 1609.5 195.76 1608 193.594C1606.5 191.344 1604.54 189.635 1602.12 188.469C1599.79 187.219 1597.04 186.594 1593.88 186.594C1589.88 186.594 1585.83 188.052 1581.75 190.969C1577.67 193.885 1573.42 198.135 1569 203.719V277.844C1569 278.677 1568.75 279.427 1568.25 280.094C1567.75 280.677 1566.88 281.177 1565.62 281.594C1564.46 282.01 1562.88 282.302 1560.88 282.469C1558.88 282.719 1556.33 282.844 1553.25 282.844C1550.17 282.844 1547.62 282.719 1545.62 282.469C1543.62 282.302 1542 282.01 1540.75 281.594C1539.58 281.177 1538.75 280.677 1538.25 280.094C1537.75 279.427 1537.5 278.677 1537.5 277.844V166.344C1537.5 165.51 1537.71 164.802 1538.12 164.219C1538.54 163.552 1539.29 163.01 1540.38 162.594C1541.46 162.177 1542.83 161.885 1544.5 161.719C1546.25 161.469 1548.42 161.344 1551 161.344C1553.67 161.344 1555.88 161.469 1557.62 161.719C1559.38 161.885 1560.71 162.177 1561.62 162.594C1562.62 163.01 1563.33 163.552 1563.75 164.219C1564.17 164.802 1564.38 165.51 1564.38 166.344V179.219C1570.54 172.552 1576.79 167.552 1583.12 164.219C1589.54 160.885 1596.21 159.219 1603.12 159.219C1610.71 159.219 1617.08 160.469 1622.25 162.969C1627.5 165.469 1631.71 168.885 1634.88 173.219C1638.12 177.469 1640.46 182.469 1641.88 188.219C1643.29 193.969 1644 200.885 1644 208.969V277.844Z" fill="white"/>
<path d="M1781.5 277.844C1781.5 278.677 1781.25 279.427 1780.75 280.094C1780.25 280.677 1779.42 281.177 1778.25 281.594C1777.08 282.01 1775.46 282.302 1773.38 282.469C1771.38 282.719 1768.88 282.844 1765.88 282.844C1762.79 282.844 1760.21 282.719 1758.12 282.469C1756.12 282.302 1754.54 282.01 1753.38 281.594C1752.21 281.177 1751.38 280.677 1750.88 280.094C1750.38 279.427 1750.12 278.677 1750.12 277.844V214.219C1750.12 208.802 1749.71 204.552 1748.88 201.469C1748.12 198.385 1747 195.76 1745.5 193.594C1744 191.344 1742.04 189.635 1739.62 188.469C1737.29 187.219 1734.54 186.594 1731.38 186.594C1727.38 186.594 1723.33 188.052 1719.25 190.969C1715.17 193.885 1710.92 198.135 1706.5 203.719V277.844C1706.5 278.677 1706.25 279.427 1705.75 280.094C1705.25 280.677 1704.38 281.177 1703.12 281.594C1701.96 282.01 1700.38 282.302 1698.38 282.469C1696.38 282.719 1693.83 282.844 1690.75 282.844C1687.67 282.844 1685.12 282.719 1683.12 282.469C1681.12 282.302 1679.5 282.01 1678.25 281.594C1677.08 281.177 1676.25 280.677 1675.75 280.094C1675.25 279.427 1675 278.677 1675 277.844V166.344C1675 165.51 1675.21 164.802 1675.62 164.219C1676.04 163.552 1676.79 163.01 1677.88 162.594C1678.96 162.177 1680.33 161.885 1682 161.719C1683.75 161.469 1685.92 161.344 1688.5 161.344C1691.17 161.344 1693.38 161.469 1695.12 161.719C1696.88 161.885 1698.21 162.177 1699.12 162.594C1700.12 163.01 1700.83 163.552 1701.25 164.219C1701.67 164.802 1701.88 165.51 1701.88 166.344V179.219C1708.04 172.552 1714.29 167.552 1720.62 164.219C1727.04 160.885 1733.71 159.219 1740.62 159.219C1748.21 159.219 1754.58 160.469 1759.75 162.969C1765 165.469 1769.21 168.885 1772.38 173.219C1775.62 177.469 1777.96 182.469 1779.38 188.219C1780.79 193.969 1781.5 200.885 1781.5 208.969V277.844Z" fill="white"/>
<path d="M1915.5 218.844C1915.5 222.677 1914.62 225.51 1912.88 227.344C1911.21 229.177 1908.88 230.094 1905.88 230.094H1838C1838 234.844 1838.54 239.177 1839.62 243.094C1840.79 246.927 1842.58 250.219 1845 252.969C1847.5 255.635 1850.67 257.677 1854.5 259.094C1858.42 260.51 1863.08 261.219 1868.5 261.219C1874 261.219 1878.83 260.844 1883 260.094C1887.17 259.26 1890.75 258.385 1893.75 257.469C1896.83 256.469 1899.38 255.594 1901.38 254.844C1903.38 254.01 1905 253.594 1906.25 253.594C1907 253.594 1907.62 253.76 1908.12 254.094C1908.62 254.344 1909.04 254.844 1909.38 255.594C1909.71 256.344 1909.92 257.427 1910 258.844C1910.17 260.177 1910.25 261.885 1910.25 263.969C1910.25 265.802 1910.21 267.385 1910.12 268.719C1910.04 269.969 1909.92 271.052 1909.75 271.969C1909.58 272.885 1909.33 273.677 1909 274.344C1908.67 274.927 1908.21 275.51 1907.62 276.094C1907.12 276.677 1905.67 277.469 1903.25 278.469C1900.83 279.469 1897.75 280.469 1894 281.469C1890.25 282.385 1885.96 283.177 1881.12 283.844C1876.29 284.594 1871.12 284.969 1865.62 284.969C1855.71 284.969 1847 283.719 1839.5 281.219C1832.08 278.719 1825.88 274.927 1820.88 269.844C1815.88 264.76 1812.12 258.344 1809.62 250.594C1807.21 242.844 1806 233.76 1806 223.344C1806 213.427 1807.29 204.51 1809.88 196.594C1812.46 188.594 1816.21 181.844 1821.12 176.344C1826.04 170.76 1832 166.51 1839 163.594C1846.08 160.677 1854.04 159.219 1862.88 159.219C1872.21 159.219 1880.17 160.594 1886.75 163.344C1893.42 166.094 1898.88 169.927 1903.12 174.844C1907.38 179.677 1910.5 185.427 1912.5 192.094C1914.5 198.76 1915.5 206.01 1915.5 213.844V218.844ZM1885 209.844C1885.25 201.01 1883.46 194.094 1879.62 189.094C1875.88 184.01 1870.04 181.469 1862.12 181.469C1858.12 181.469 1854.62 182.219 1851.62 183.719C1848.71 185.219 1846.25 187.26 1844.25 189.844C1842.33 192.344 1840.83 195.344 1839.75 198.844C1838.75 202.26 1838.17 205.927 1838 209.844H1885Z" fill="white"/>
<path d="M2025.88 260.094C2025.88 262.26 2025.79 264.094 2025.62 265.594C2025.54 267.01 2025.38 268.219 2025.12 269.219C2024.96 270.219 2024.71 271.052 2024.38 271.719C2024.12 272.302 2023.5 273.094 2022.5 274.094C2021.5 275.01 2019.79 276.177 2017.38 277.594C2014.96 278.927 2012.21 280.135 2009.12 281.219C2006.04 282.302 2002.67 283.177 1999 283.844C1995.42 284.51 1991.71 284.844 1987.88 284.844C1979.29 284.844 1971.67 283.51 1965 280.844C1958.42 278.177 1952.88 274.26 1948.38 269.094C1943.88 263.844 1940.46 257.469 1938.12 249.969C1935.88 242.469 1934.75 233.885 1934.75 224.219C1934.75 213.052 1936.12 203.427 1938.88 195.344C1941.71 187.177 1945.62 180.427 1950.62 175.094C1955.62 169.76 1961.54 165.802 1968.38 163.219C1975.21 160.635 1982.71 159.344 1990.88 159.344C1994.21 159.344 1997.46 159.635 2000.62 160.219C2003.88 160.802 2006.88 161.594 2009.62 162.594C2012.46 163.594 2014.96 164.719 2017.12 165.969C2019.38 167.219 2020.96 168.302 2021.88 169.219C2022.79 170.135 2023.42 170.927 2023.75 171.594C2024.17 172.177 2024.46 172.969 2024.62 173.969C2024.88 174.969 2025.04 176.219 2025.12 177.719C2025.29 179.135 2025.38 180.885 2025.38 182.969C2025.38 187.802 2024.96 191.219 2024.12 193.219C2023.29 195.135 2022.21 196.094 2020.88 196.094C2019.46 196.094 2017.96 195.51 2016.38 194.344C2014.79 193.177 2012.92 191.885 2010.75 190.469C2008.58 189.052 2006 187.76 2003 186.594C2000 185.427 1996.42 184.844 1992.25 184.844C1984.08 184.844 1977.83 188.01 1973.5 194.344C1969.17 200.594 1967 209.802 1967 221.969C1967 227.969 1967.54 233.26 1968.62 237.844C1969.71 242.427 1971.29 246.26 1973.38 249.344C1975.54 252.427 1978.21 254.76 1981.38 256.344C1984.62 257.844 1988.38 258.594 1992.62 258.594C1996.96 258.594 2000.67 257.969 2003.75 256.719C2006.92 255.385 2009.67 253.927 2012 252.344C2014.33 250.76 2016.29 249.344 2017.88 248.094C2019.46 246.76 2020.79 246.094 2021.88 246.094C2022.62 246.094 2023.25 246.302 2023.75 246.719C2024.25 247.135 2024.62 247.927 2024.88 249.094C2025.21 250.177 2025.46 251.594 2025.62 253.344C2025.79 255.094 2025.88 257.344 2025.88 260.094Z" fill="white"/>
<path d="M2114.75 266.844C2114.75 270.51 2114.5 273.344 2114 275.344C2113.58 277.26 2113 278.635 2112.25 279.469C2111.5 280.219 2110.38 280.927 2108.88 281.594C2107.46 282.177 2105.75 282.677 2103.75 283.094C2101.83 283.594 2099.71 283.969 2097.38 284.219C2095.12 284.469 2092.83 284.594 2090.5 284.594C2084.25 284.594 2078.83 283.802 2074.25 282.219C2069.67 280.635 2065.88 278.219 2062.88 274.969C2059.88 271.635 2057.67 267.469 2056.25 262.469C2054.83 257.469 2054.12 251.552 2054.12 244.719V187.594H2040.75C2039.17 187.594 2037.96 186.635 2037.12 184.719C2036.29 182.719 2035.88 179.427 2035.88 174.844C2035.88 172.427 2035.96 170.385 2036.12 168.719C2036.38 167.052 2036.71 165.76 2037.12 164.844C2037.54 163.844 2038.04 163.135 2038.62 162.719C2039.29 162.302 2040.04 162.094 2040.88 162.094H2054.12V137.219C2054.12 136.385 2054.33 135.635 2054.75 134.969C2055.25 134.302 2056.08 133.76 2057.25 133.344C2058.5 132.844 2060.12 132.51 2062.12 132.344C2064.21 132.094 2066.75 131.969 2069.75 131.969C2072.83 131.969 2075.38 132.094 2077.38 132.344C2079.46 132.51 2081.08 132.844 2082.25 133.344C2083.42 133.76 2084.25 134.302 2084.75 134.969C2085.25 135.635 2085.5 136.385 2085.5 137.219V162.094H2109.75C2110.58 162.094 2111.29 162.302 2111.88 162.719C2112.54 163.135 2113.08 163.844 2113.5 164.844C2113.92 165.76 2114.21 167.052 2114.38 168.719C2114.62 170.385 2114.75 172.427 2114.75 174.844C2114.75 179.427 2114.33 182.719 2113.5 184.719C2112.67 186.635 2111.46 187.594 2109.88 187.594H2085.5V239.969C2085.5 246.052 2086.46 250.635 2088.38 253.719C2090.29 256.719 2093.71 258.219 2098.62 258.219C2100.29 258.219 2101.79 258.094 2103.12 257.844C2104.46 257.51 2105.62 257.177 2106.62 256.844C2107.71 256.427 2108.58 256.094 2109.25 255.844C2110 255.51 2110.67 255.344 2111.25 255.344C2111.75 255.344 2112.21 255.51 2112.62 255.844C2113.12 256.094 2113.5 256.677 2113.75 257.594C2114 258.427 2114.21 259.594 2114.38 261.094C2114.62 262.594 2114.75 264.51 2114.75 266.844Z" fill="white"/>
<path d="M669.469 386.781C669.469 387.115 669.458 387.406 669.438 387.656C669.417 387.906 669.375 388.125 669.312 388.312C669.271 388.5 669.208 388.667 669.125 388.812C669.042 388.958 668.896 389.135 668.688 389.344C668.479 389.552 668.042 389.875 667.375 390.312C666.708 390.729 665.875 391.146 664.875 391.562C663.896 391.958 662.76 392.292 661.469 392.562C660.198 392.854 658.802 393 657.281 393C654.656 393 652.281 392.562 650.156 391.688C648.052 390.812 646.25 389.521 644.75 387.812C643.271 386.104 642.125 384 641.312 381.5C640.521 378.979 640.125 376.083 640.125 372.812C640.125 369.458 640.552 366.469 641.406 363.844C642.281 361.219 643.5 359 645.062 357.188C646.625 355.354 648.49 353.958 650.656 353C652.844 352.042 655.26 351.562 657.906 351.562C659.073 351.562 660.208 351.677 661.312 351.906C662.417 352.115 663.438 352.385 664.375 352.719C665.312 353.052 666.146 353.438 666.875 353.875C667.604 354.312 668.104 354.677 668.375 354.969C668.667 355.24 668.854 355.448 668.938 355.594C669.021 355.74 669.083 355.917 669.125 356.125C669.188 356.312 669.229 356.542 669.25 356.812C669.292 357.083 669.312 357.406 669.312 357.781C669.312 358.198 669.292 358.552 669.25 358.844C669.208 359.135 669.146 359.385 669.062 359.594C668.979 359.781 668.875 359.927 668.75 360.031C668.646 360.115 668.51 360.156 668.344 360.156C668.052 360.156 667.646 359.958 667.125 359.562C666.604 359.146 665.927 358.698 665.094 358.219C664.281 357.719 663.281 357.271 662.094 356.875C660.927 356.458 659.521 356.25 657.875 356.25C656.083 356.25 654.448 356.615 652.969 357.344C651.51 358.052 650.26 359.104 649.219 360.5C648.177 361.896 647.365 363.604 646.781 365.625C646.219 367.625 645.938 369.917 645.938 372.5C645.938 375.062 646.208 377.333 646.75 379.312C647.312 381.271 648.104 382.917 649.125 384.25C650.167 385.562 651.438 386.562 652.938 387.25C654.438 387.917 656.135 388.25 658.031 388.25C659.635 388.25 661.031 388.052 662.219 387.656C663.427 387.26 664.448 386.823 665.281 386.344C666.135 385.844 666.833 385.396 667.375 385C667.917 384.604 668.344 384.406 668.656 384.406C668.802 384.406 668.927 384.438 669.031 384.5C669.135 384.562 669.219 384.688 669.281 384.875C669.344 385.042 669.385 385.281 669.406 385.594C669.448 385.906 669.469 386.302 669.469 386.781Z" fill="#F97316"/>
<path d="M702.156 377.344C702.156 379.635 701.854 381.75 701.25 383.688C700.646 385.604 699.74 387.26 698.531 388.656C697.344 390.052 695.844 391.146 694.031 391.938C692.24 392.708 690.156 393.094 687.781 393.094C685.469 393.094 683.448 392.75 681.719 392.062C680.01 391.375 678.583 390.375 677.438 389.062C676.292 387.75 675.438 386.156 674.875 384.281C674.312 382.406 674.031 380.281 674.031 377.906C674.031 375.615 674.323 373.51 674.906 371.594C675.51 369.656 676.406 367.99 677.594 366.594C678.802 365.198 680.302 364.115 682.094 363.344C683.885 362.573 685.979 362.188 688.375 362.188C690.688 362.188 692.698 362.531 694.406 363.219C696.135 363.906 697.573 364.906 698.719 366.219C699.865 367.531 700.719 369.125 701.281 371C701.865 372.875 702.156 374.99 702.156 377.344ZM696.719 377.688C696.719 376.167 696.573 374.729 696.281 373.375C696.01 372.021 695.552 370.833 694.906 369.812C694.26 368.792 693.385 367.99 692.281 367.406C691.177 366.802 689.802 366.5 688.156 366.5C686.635 366.5 685.323 366.771 684.219 367.312C683.135 367.854 682.24 368.625 681.531 369.625C680.823 370.604 680.292 371.771 679.938 373.125C679.604 374.479 679.438 375.958 679.438 377.562C679.438 379.104 679.573 380.552 679.844 381.906C680.135 383.26 680.604 384.448 681.25 385.469C681.917 386.469 682.802 387.271 683.906 387.875C685.01 388.458 686.385 388.75 688.031 388.75C689.531 388.75 690.833 388.479 691.938 387.938C693.042 387.396 693.948 386.635 694.656 385.656C695.365 384.677 695.885 383.51 696.219 382.156C696.552 380.802 696.719 379.312 696.719 377.688Z" fill="#F97316"/>
<path d="M733.969 391.719C733.969 391.885 733.927 392.031 733.844 392.156C733.76 392.26 733.625 392.354 733.438 392.438C733.25 392.521 732.99 392.583 732.656 392.625C732.323 392.667 731.906 392.688 731.406 392.688C730.885 392.688 730.458 392.667 730.125 392.625C729.792 392.583 729.531 392.521 729.344 392.438C729.156 392.354 729.021 392.26 728.938 392.156C728.854 392.031 728.812 391.885 728.812 391.719V375.25C728.812 373.646 728.688 372.354 728.438 371.375C728.188 370.396 727.823 369.552 727.344 368.844C726.865 368.135 726.24 367.594 725.469 367.219C724.719 366.844 723.844 366.656 722.844 366.656C721.552 366.656 720.26 367.115 718.969 368.031C717.677 368.948 716.323 370.292 714.906 372.062V391.719C714.906 391.885 714.865 392.031 714.781 392.156C714.698 392.26 714.562 392.354 714.375 392.438C714.188 392.521 713.927 392.583 713.594 392.625C713.26 392.667 712.833 392.688 712.312 392.688C711.812 392.688 711.396 392.667 711.062 392.625C710.729 392.583 710.458 392.521 710.25 392.438C710.062 392.354 709.927 392.26 709.844 392.156C709.781 392.031 709.75 391.885 709.75 391.719V363.594C709.75 363.427 709.781 363.292 709.844 363.188C709.906 363.062 710.031 362.958 710.219 362.875C710.406 362.771 710.646 362.708 710.938 362.688C711.229 362.646 711.615 362.625 712.094 362.625C712.552 362.625 712.927 362.646 713.219 362.688C713.531 362.708 713.771 362.771 713.938 362.875C714.104 362.958 714.219 363.062 714.281 363.188C714.365 363.292 714.406 363.427 714.406 363.594V367.312C715.99 365.542 717.562 364.25 719.125 363.438C720.708 362.604 722.302 362.188 723.906 362.188C725.781 362.188 727.354 362.51 728.625 363.156C729.917 363.781 730.958 364.625 731.75 365.688C732.542 366.75 733.104 368 733.438 369.438C733.792 370.854 733.969 372.562 733.969 374.562V391.719Z" fill="#F97316"/>
<path d="M767.594 391.719C767.594 391.885 767.552 392.031 767.469 392.156C767.385 392.26 767.25 392.354 767.062 392.438C766.875 392.521 766.615 392.583 766.281 392.625C765.948 392.667 765.531 392.688 765.031 392.688C764.51 392.688 764.083 392.667 763.75 392.625C763.417 392.583 763.156 392.521 762.969 392.438C762.781 392.354 762.646 392.26 762.562 392.156C762.479 392.031 762.438 391.885 762.438 391.719V375.25C762.438 373.646 762.312 372.354 762.062 371.375C761.812 370.396 761.448 369.552 760.969 368.844C760.49 368.135 759.865 367.594 759.094 367.219C758.344 366.844 757.469 366.656 756.469 366.656C755.177 366.656 753.885 367.115 752.594 368.031C751.302 368.948 749.948 370.292 748.531 372.062V391.719C748.531 391.885 748.49 392.031 748.406 392.156C748.323 392.26 748.188 392.354 748 392.438C747.812 392.521 747.552 392.583 747.219 392.625C746.885 392.667 746.458 392.688 745.938 392.688C745.438 392.688 745.021 392.667 744.688 392.625C744.354 392.583 744.083 392.521 743.875 392.438C743.688 392.354 743.552 392.26 743.469 392.156C743.406 392.031 743.375 391.885 743.375 391.719V363.594C743.375 363.427 743.406 363.292 743.469 363.188C743.531 363.062 743.656 362.958 743.844 362.875C744.031 362.771 744.271 362.708 744.562 362.688C744.854 362.646 745.24 362.625 745.719 362.625C746.177 362.625 746.552 362.646 746.844 362.688C747.156 362.708 747.396 362.771 747.562 362.875C747.729 362.958 747.844 363.062 747.906 363.188C747.99 363.292 748.031 363.427 748.031 363.594V367.312C749.615 365.542 751.188 364.25 752.75 363.438C754.333 362.604 755.927 362.188 757.531 362.188C759.406 362.188 760.979 362.51 762.25 363.156C763.542 363.781 764.583 364.625 765.375 365.688C766.167 366.75 766.729 368 767.062 369.438C767.417 370.854 767.594 372.562 767.594 374.562V391.719Z" fill="#F97316"/>
<path d="M801 376.438C801 377.25 800.792 377.833 800.375 378.188C799.979 378.521 799.521 378.688 799 378.688H780.562C780.562 380.25 780.719 381.656 781.031 382.906C781.344 384.156 781.865 385.229 782.594 386.125C783.323 387.021 784.271 387.708 785.438 388.188C786.604 388.667 788.031 388.906 789.719 388.906C791.052 388.906 792.24 388.802 793.281 388.594C794.323 388.365 795.219 388.115 795.969 387.844C796.74 387.573 797.365 387.333 797.844 387.125C798.344 386.896 798.719 386.781 798.969 386.781C799.115 386.781 799.24 386.823 799.344 386.906C799.469 386.969 799.562 387.073 799.625 387.219C799.688 387.365 799.729 387.573 799.75 387.844C799.792 388.094 799.812 388.406 799.812 388.781C799.812 389.052 799.802 389.292 799.781 389.5C799.76 389.688 799.729 389.865 799.688 390.031C799.667 390.177 799.615 390.312 799.531 390.438C799.469 390.562 799.375 390.688 799.25 390.812C799.146 390.917 798.812 391.104 798.25 391.375C797.688 391.625 796.958 391.875 796.062 392.125C795.167 392.375 794.125 392.594 792.938 392.781C791.771 392.99 790.521 393.094 789.188 393.094C786.875 393.094 784.844 392.771 783.094 392.125C781.365 391.479 779.906 390.521 778.719 389.25C777.531 387.979 776.635 386.385 776.031 384.469C775.427 382.552 775.125 380.323 775.125 377.781C775.125 375.365 775.438 373.198 776.062 371.281C776.688 369.344 777.583 367.708 778.75 366.375C779.938 365.021 781.365 363.99 783.031 363.281C784.698 362.552 786.562 362.188 788.625 362.188C790.833 362.188 792.708 362.542 794.25 363.25C795.812 363.958 797.094 364.917 798.094 366.125C799.094 367.312 799.823 368.719 800.281 370.344C800.76 371.948 801 373.667 801 375.5V376.438ZM795.812 374.906C795.875 372.198 795.271 370.073 794 368.531C792.75 366.99 790.885 366.219 788.406 366.219C787.135 366.219 786.021 366.458 785.062 366.938C784.104 367.417 783.302 368.052 782.656 368.844C782.01 369.635 781.51 370.562 781.156 371.625C780.802 372.667 780.604 373.76 780.562 374.906H795.812Z" fill="#F97316"/>
<path d="M829.094 387.438C829.094 387.792 829.083 388.104 829.062 388.375C829.042 388.625 829 388.844 828.938 389.031C828.896 389.198 828.833 389.354 828.75 389.5C828.688 389.625 828.521 389.823 828.25 390.094C828 390.344 827.562 390.667 826.938 391.062C826.312 391.438 825.604 391.781 824.812 392.094C824.042 392.385 823.198 392.625 822.281 392.812C821.365 393 820.417 393.094 819.438 393.094C817.417 393.094 815.625 392.76 814.062 392.094C812.5 391.427 811.188 390.458 810.125 389.188C809.083 387.896 808.281 386.323 807.719 384.469C807.177 382.594 806.906 380.438 806.906 378C806.906 375.229 807.24 372.854 807.906 370.875C808.594 368.875 809.521 367.24 810.688 365.969C811.875 364.698 813.26 363.76 814.844 363.156C816.448 362.531 818.177 362.219 820.031 362.219C820.927 362.219 821.792 362.302 822.625 362.469C823.479 362.635 824.26 362.854 824.969 363.125C825.677 363.396 826.302 363.708 826.844 364.062C827.406 364.417 827.812 364.719 828.062 364.969C828.312 365.219 828.479 365.417 828.562 365.562C828.667 365.708 828.75 365.885 828.812 366.094C828.875 366.281 828.917 366.5 828.938 366.75C828.958 367 828.969 367.312 828.969 367.688C828.969 368.5 828.875 369.073 828.688 369.406C828.5 369.719 828.271 369.875 828 369.875C827.688 369.875 827.323 369.708 826.906 369.375C826.51 369.021 826 368.635 825.375 368.219C824.75 367.802 823.99 367.427 823.094 367.094C822.219 366.74 821.177 366.562 819.969 366.562C817.49 366.562 815.583 367.521 814.25 369.438C812.938 371.333 812.281 374.094 812.281 377.719C812.281 379.531 812.448 381.125 812.781 382.5C813.135 383.854 813.646 384.99 814.312 385.906C814.979 386.823 815.792 387.51 816.75 387.969C817.729 388.406 818.844 388.625 820.094 388.625C821.281 388.625 822.323 388.438 823.219 388.062C824.115 387.688 824.885 387.281 825.531 386.844C826.198 386.385 826.75 385.979 827.188 385.625C827.646 385.25 828 385.062 828.25 385.062C828.396 385.062 828.521 385.104 828.625 385.188C828.729 385.271 828.812 385.417 828.875 385.625C828.958 385.812 829.01 386.062 829.031 386.375C829.073 386.667 829.094 387.021 829.094 387.438Z" fill="#F97316"/>
<path d="M860.406 362.781C861.031 362.781 861.458 362.927 861.688 363.219C861.917 363.49 862.031 363.896 862.031 364.438V391.719C862.031 391.885 861.99 392.031 861.906 392.156C861.823 392.26 861.677 392.354 861.469 392.438C861.281 392.521 861.021 392.583 860.688 392.625C860.354 392.667 859.948 392.688 859.469 392.688C858.948 392.688 858.521 392.667 858.188 392.625C857.854 392.583 857.583 392.521 857.375 392.438C857.188 392.354 857.052 392.26 856.969 392.156C856.885 392.031 856.844 391.885 856.844 391.719V367.062H842.312V382.75C842.312 384.688 842.594 386.156 843.156 387.156C843.74 388.135 844.771 388.625 846.25 388.625C846.729 388.625 847.156 388.583 847.531 388.5C847.906 388.396 848.24 388.292 848.531 388.188C848.823 388.083 849.073 387.99 849.281 387.906C849.49 387.802 849.677 387.75 849.844 387.75C849.948 387.75 850.042 387.781 850.125 387.844C850.229 387.885 850.302 387.979 850.344 388.125C850.406 388.271 850.458 388.469 850.5 388.719C850.542 388.969 850.562 389.281 850.562 389.656C850.562 390.26 850.521 390.74 850.438 391.094C850.354 391.427 850.229 391.688 850.062 391.875C849.896 392.042 849.646 392.198 849.312 392.344C848.979 392.49 848.594 392.604 848.156 392.688C847.74 392.792 847.292 392.875 846.812 392.938C846.333 393 845.854 393.031 845.375 393.031C843.917 393.031 842.667 392.844 841.625 392.469C840.583 392.073 839.729 391.49 839.062 390.719C838.396 389.927 837.906 388.938 837.594 387.75C837.302 386.542 837.156 385.125 837.156 383.5V367.062H833.219C832.906 367.062 832.656 366.896 832.469 366.562C832.281 366.229 832.188 365.688 832.188 364.938C832.188 364.542 832.208 364.208 832.25 363.938C832.312 363.667 832.385 363.448 832.469 363.281C832.552 363.094 832.656 362.969 832.781 362.906C832.927 362.823 833.083 362.781 833.25 362.781H837.156V356.094C837.156 355.948 837.188 355.812 837.25 355.688C837.333 355.562 837.469 355.458 837.656 355.375C837.865 355.271 838.135 355.198 838.469 355.156C838.802 355.115 839.219 355.094 839.719 355.094C840.24 355.094 840.667 355.115 841 355.156C841.333 355.198 841.594 355.271 841.781 355.375C841.969 355.458 842.104 355.562 842.188 355.688C842.271 355.812 842.312 355.948 842.312 356.094V362.781H860.406ZM862.625 354.094C862.625 355.302 862.396 356.125 861.938 356.562C861.479 357 860.635 357.219 859.406 357.219C858.198 357.219 857.365 357.01 856.906 356.594C856.469 356.156 856.25 355.344 856.25 354.156C856.25 352.948 856.479 352.125 856.938 351.688C857.396 351.25 858.24 351.031 859.469 351.031C860.677 351.031 861.5 351.25 861.938 351.688C862.396 352.104 862.625 352.906 862.625 354.094Z" fill="#F97316"/>
<path d="M895.844 391.719C895.844 391.885 895.802 392.031 895.719 392.156C895.635 392.26 895.5 392.354 895.312 392.438C895.125 392.521 894.865 392.583 894.531 392.625C894.198 392.667 893.781 392.688 893.281 392.688C892.76 392.688 892.333 392.667 892 392.625C891.667 392.583 891.406 392.521 891.219 392.438C891.031 392.354 890.896 392.26 890.812 392.156C890.729 392.031 890.688 391.885 890.688 391.719V375.25C890.688 373.646 890.562 372.354 890.312 371.375C890.062 370.396 889.698 369.552 889.219 368.844C888.74 368.135 888.115 367.594 887.344 367.219C886.594 366.844 885.719 366.656 884.719 366.656C883.427 366.656 882.135 367.115 880.844 368.031C879.552 368.948 878.198 370.292 876.781 372.062V391.719C876.781 391.885 876.74 392.031 876.656 392.156C876.573 392.26 876.438 392.354 876.25 392.438C876.062 392.521 875.802 392.583 875.469 392.625C875.135 392.667 874.708 392.688 874.188 392.688C873.688 392.688 873.271 392.667 872.938 392.625C872.604 392.583 872.333 392.521 872.125 392.438C871.938 392.354 871.802 392.26 871.719 392.156C871.656 392.031 871.625 391.885 871.625 391.719V363.594C871.625 363.427 871.656 363.292 871.719 363.188C871.781 363.062 871.906 362.958 872.094 362.875C872.281 362.771 872.521 362.708 872.812 362.688C873.104 362.646 873.49 362.625 873.969 362.625C874.427 362.625 874.802 362.646 875.094 362.688C875.406 362.708 875.646 362.771 875.812 362.875C875.979 362.958 876.094 363.062 876.156 363.188C876.24 363.292 876.281 363.427 876.281 363.594V367.312C877.865 365.542 879.438 364.25 881 363.438C882.583 362.604 884.177 362.188 885.781 362.188C887.656 362.188 889.229 362.51 890.5 363.156C891.792 363.781 892.833 364.625 893.625 365.688C894.417 366.75 894.979 368 895.312 369.438C895.667 370.854 895.844 372.562 895.844 374.562V391.719Z" fill="#F97316"/>
<path d="M928.75 364.875C928.75 365.604 928.646 366.135 928.438 366.469C928.25 366.781 928 366.938 927.688 366.938H923.656C924.385 367.688 924.896 368.521 925.188 369.438C925.479 370.333 925.625 371.271 925.625 372.25C925.625 373.875 925.365 375.312 924.844 376.562C924.323 377.812 923.573 378.875 922.594 379.75C921.635 380.604 920.49 381.26 919.156 381.719C917.823 382.177 916.344 382.406 914.719 382.406C913.573 382.406 912.479 382.26 911.438 381.969C910.417 381.656 909.625 381.271 909.062 380.812C908.688 381.188 908.375 381.615 908.125 382.094C907.896 382.573 907.781 383.125 907.781 383.75C907.781 384.479 908.115 385.083 908.781 385.562C909.469 386.042 910.375 386.302 911.5 386.344L918.844 386.656C920.24 386.698 921.521 386.896 922.688 387.25C923.854 387.583 924.865 388.073 925.719 388.719C926.573 389.344 927.24 390.125 927.719 391.062C928.198 391.979 928.438 393.052 928.438 394.281C928.438 395.573 928.167 396.802 927.625 397.969C927.083 399.135 926.25 400.156 925.125 401.031C924.021 401.927 922.604 402.625 920.875 403.125C919.146 403.646 917.104 403.906 914.75 403.906C912.479 403.906 910.542 403.708 908.938 403.312C907.354 402.938 906.052 402.417 905.031 401.75C904.01 401.083 903.271 400.281 902.812 399.344C902.354 398.427 902.125 397.427 902.125 396.344C902.125 395.656 902.208 394.99 902.375 394.344C902.542 393.698 902.792 393.083 903.125 392.5C903.479 391.917 903.906 391.365 904.406 390.844C904.927 390.302 905.521 389.771 906.188 389.25C905.167 388.729 904.406 388.073 903.906 387.281C903.427 386.49 903.188 385.635 903.188 384.719C903.188 383.448 903.448 382.312 903.969 381.312C904.49 380.312 905.135 379.417 905.906 378.625C905.26 377.854 904.75 376.99 904.375 376.031C904 375.052 903.812 373.875 903.812 372.5C903.812 370.896 904.083 369.458 904.625 368.188C905.167 366.917 905.917 365.844 906.875 364.969C907.833 364.094 908.979 363.427 910.312 362.969C911.667 362.49 913.135 362.25 914.719 362.25C915.573 362.25 916.365 362.302 917.094 362.406C917.844 362.49 918.542 362.615 919.188 362.781H927.688C928.042 362.781 928.302 362.958 928.469 363.312C928.656 363.646 928.75 364.167 928.75 364.875ZM920.688 372.281C920.688 370.365 920.156 368.875 919.094 367.812C918.052 366.729 916.562 366.188 914.625 366.188C913.625 366.188 912.75 366.354 912 366.688C911.271 367.021 910.656 367.479 910.156 368.062C909.677 368.646 909.312 369.323 909.062 370.094C908.833 370.844 908.719 371.635 908.719 372.469C908.719 374.323 909.24 375.781 910.281 376.844C911.344 377.906 912.823 378.438 914.719 378.438C915.74 378.438 916.625 378.281 917.375 377.969C918.125 377.635 918.74 377.188 919.219 376.625C919.719 376.042 920.083 375.375 920.312 374.625C920.562 373.875 920.688 373.094 920.688 372.281ZM923.281 394.562C923.281 393.354 922.781 392.427 921.781 391.781C920.802 391.115 919.469 390.76 917.781 390.719L910.5 390.469C909.833 390.99 909.281 391.49 908.844 391.969C908.427 392.427 908.094 392.865 907.844 393.281C907.594 393.719 907.417 394.146 907.312 394.562C907.229 394.979 907.188 395.406 907.188 395.844C907.188 397.198 907.875 398.219 909.25 398.906C910.625 399.615 912.542 399.969 915 399.969C916.562 399.969 917.865 399.812 918.906 399.5C919.969 399.208 920.823 398.812 921.469 398.312C922.115 397.812 922.573 397.24 922.844 396.594C923.135 395.948 923.281 395.271 923.281 394.562Z" fill="#F97316"/>
<path d="M994.438 391.688C994.438 391.854 994.396 392 994.312 392.125C994.229 392.25 994.083 392.354 993.875 392.438C993.667 392.5 993.396 392.552 993.062 392.594C992.75 392.656 992.333 392.688 991.812 392.688C991.333 392.688 990.917 392.656 990.562 392.594C990.229 392.552 989.958 392.5 989.75 392.438C989.562 392.354 989.427 392.25 989.344 392.125C989.26 392 989.219 391.854 989.219 391.688V356.469H989.156L974.75 391.844C974.688 391.99 974.594 392.115 974.469 392.219C974.365 392.323 974.198 392.417 973.969 392.5C973.76 392.562 973.5 392.604 973.188 392.625C972.896 392.667 972.542 392.688 972.125 392.688C971.688 392.688 971.312 392.667 971 392.625C970.688 392.583 970.427 392.531 970.219 392.469C970.01 392.385 969.844 392.292 969.719 392.188C969.615 392.083 969.542 391.969 969.5 391.844L955.719 356.469H955.688V391.688C955.688 391.854 955.646 392 955.562 392.125C955.479 392.25 955.333 392.354 955.125 392.438C954.917 392.5 954.646 392.552 954.312 392.594C953.979 392.656 953.552 392.688 953.031 392.688C952.531 392.688 952.115 392.656 951.781 392.594C951.448 392.552 951.177 392.5 950.969 392.438C950.781 392.354 950.646 392.25 950.562 392.125C950.5 392 950.469 391.854 950.469 391.688V354.5C950.469 353.625 950.698 353 951.156 352.625C951.615 352.25 952.125 352.062 952.688 352.062H955.938C956.604 352.062 957.188 352.125 957.688 352.25C958.188 352.375 958.625 352.573 959 352.844C959.375 353.115 959.688 353.458 959.938 353.875C960.188 354.292 960.406 354.781 960.594 355.344L972.312 384.625H972.469L984.656 355.438C984.885 354.812 985.135 354.281 985.406 353.844C985.677 353.406 985.969 353.062 986.281 352.812C986.615 352.542 986.979 352.354 987.375 352.25C987.771 352.125 988.229 352.062 988.75 352.062H992.156C992.469 352.062 992.76 352.115 993.031 352.219C993.323 352.302 993.562 352.448 993.75 352.656C993.958 352.844 994.125 353.094 994.25 353.406C994.375 353.698 994.438 354.062 994.438 354.5V391.688Z" fill="#F97316"/>
<path d="M1009.78 391.719C1009.78 391.885 1009.74 392.031 1009.66 392.156C1009.57 392.26 1009.44 392.354 1009.25 392.438C1009.06 392.521 1008.8 392.583 1008.47 392.625C1008.14 392.667 1007.71 392.688 1007.19 392.688C1006.69 392.688 1006.27 392.667 1005.94 392.625C1005.6 392.583 1005.33 392.521 1005.12 392.438C1004.94 392.354 1004.8 392.26 1004.72 392.156C1004.66 392.031 1004.62 391.885 1004.62 391.719V363.594C1004.62 363.448 1004.66 363.312 1004.72 363.188C1004.8 363.062 1004.94 362.958 1005.12 362.875C1005.33 362.792 1005.6 362.729 1005.94 362.688C1006.27 362.646 1006.69 362.625 1007.19 362.625C1007.71 362.625 1008.14 362.646 1008.47 362.688C1008.8 362.729 1009.06 362.792 1009.25 362.875C1009.44 362.958 1009.57 363.062 1009.66 363.188C1009.74 363.312 1009.78 363.448 1009.78 363.594V391.719ZM1010.38 354.094C1010.38 355.302 1010.15 356.125 1009.69 356.562C1009.23 357 1008.39 357.219 1007.16 357.219C1005.95 357.219 1005.11 357.01 1004.66 356.594C1004.22 356.156 1004 355.344 1004 354.156C1004 352.948 1004.23 352.125 1004.69 351.688C1005.15 351.25 1005.99 351.031 1007.22 351.031C1008.43 351.031 1009.25 351.25 1009.69 351.688C1010.15 352.104 1010.38 352.906 1010.38 354.094Z" fill="#F97316"/>
<path d="M1043.53 391.719C1043.53 391.885 1043.49 392.031 1043.41 392.156C1043.32 392.26 1043.19 392.354 1043 392.438C1042.81 392.521 1042.55 392.583 1042.22 392.625C1041.89 392.667 1041.47 392.688 1040.97 392.688C1040.45 392.688 1040.02 392.667 1039.69 392.625C1039.35 392.583 1039.09 392.521 1038.91 392.438C1038.72 392.354 1038.58 392.26 1038.5 392.156C1038.42 392.031 1038.38 391.885 1038.38 391.719V375.25C1038.38 373.646 1038.25 372.354 1038 371.375C1037.75 370.396 1037.39 369.552 1036.91 368.844C1036.43 368.135 1035.8 367.594 1035.03 367.219C1034.28 366.844 1033.41 366.656 1032.41 366.656C1031.11 366.656 1029.82 367.115 1028.53 368.031C1027.24 368.948 1025.89 370.292 1024.47 372.062V391.719C1024.47 391.885 1024.43 392.031 1024.34 392.156C1024.26 392.26 1024.12 392.354 1023.94 392.438C1023.75 392.521 1023.49 392.583 1023.16 392.625C1022.82 392.667 1022.4 392.688 1021.88 392.688C1021.38 392.688 1020.96 392.667 1020.62 392.625C1020.29 392.583 1020.02 392.521 1019.81 392.438C1019.62 392.354 1019.49 392.26 1019.41 392.156C1019.34 392.031 1019.31 391.885 1019.31 391.719V363.594C1019.31 363.427 1019.34 363.292 1019.41 363.188C1019.47 363.062 1019.59 362.958 1019.78 362.875C1019.97 362.771 1020.21 362.708 1020.5 362.688C1020.79 362.646 1021.18 362.625 1021.66 362.625C1022.11 362.625 1022.49 362.646 1022.78 362.688C1023.09 362.708 1023.33 362.771 1023.5 362.875C1023.67 362.958 1023.78 363.062 1023.84 363.188C1023.93 363.292 1023.97 363.427 1023.97 363.594V367.312C1025.55 365.542 1027.12 364.25 1028.69 363.438C1030.27 362.604 1031.86 362.188 1033.47 362.188C1035.34 362.188 1036.92 362.51 1038.19 363.156C1039.48 363.781 1040.52 364.625 1041.31 365.688C1042.1 366.75 1042.67 368 1043 369.438C1043.35 370.854 1043.53 372.562 1043.53 374.562V391.719Z" fill="#F97316"/>
<path d="M1077.03 391.719C1077.03 391.885 1076.99 392.031 1076.91 392.156C1076.84 392.281 1076.72 392.385 1076.53 392.469C1076.36 392.531 1076.14 392.583 1075.84 392.625C1075.55 392.667 1075.2 392.688 1074.78 392.688C1074.34 392.688 1073.98 392.667 1073.69 392.625C1073.4 392.583 1073.16 392.531 1072.97 392.469C1072.78 392.385 1072.65 392.281 1072.56 392.156C1072.48 392.031 1072.44 391.885 1072.44 391.719V388C1070.96 389.604 1069.42 390.854 1067.81 391.75C1066.23 392.646 1064.49 393.094 1062.59 393.094C1060.53 393.094 1058.77 392.698 1057.31 391.906C1055.85 391.094 1054.67 390.01 1053.75 388.656C1052.85 387.281 1052.2 385.677 1051.78 383.844C1051.36 381.99 1051.16 380.042 1051.16 378C1051.16 375.583 1051.42 373.406 1051.94 371.469C1052.46 369.51 1053.23 367.844 1054.25 366.469C1055.27 365.094 1056.53 364.042 1058.03 363.312C1059.55 362.562 1061.3 362.188 1063.28 362.188C1064.93 362.188 1066.43 362.552 1067.78 363.281C1069.16 363.99 1070.51 365.042 1071.84 366.438V350.094C1071.84 349.948 1071.88 349.812 1071.94 349.688C1072.02 349.542 1072.17 349.438 1072.38 349.375C1072.58 349.292 1072.84 349.229 1073.16 349.188C1073.49 349.125 1073.91 349.094 1074.41 349.094C1074.93 349.094 1075.35 349.125 1075.69 349.188C1076.02 349.229 1076.28 349.292 1076.47 349.375C1076.66 349.438 1076.79 349.542 1076.88 349.688C1076.98 349.812 1077.03 349.948 1077.03 350.094V391.719ZM1071.84 371.938C1070.45 370.208 1069.09 368.896 1067.78 368C1066.49 367.083 1065.14 366.625 1063.72 366.625C1062.41 366.625 1061.29 366.938 1060.38 367.562C1059.46 368.188 1058.71 369.01 1058.12 370.031C1057.56 371.052 1057.15 372.208 1056.88 373.5C1056.62 374.792 1056.5 376.104 1056.5 377.438C1056.5 378.854 1056.6 380.24 1056.81 381.594C1057.04 382.948 1057.43 384.156 1057.97 385.219C1058.51 386.26 1059.23 387.104 1060.12 387.75C1061.02 388.375 1062.15 388.688 1063.5 388.688C1064.19 388.688 1064.84 388.594 1065.47 388.406C1066.11 388.219 1066.77 387.906 1067.44 387.469C1068.1 387.031 1068.8 386.469 1069.53 385.781C1070.26 385.073 1071.03 384.208 1071.84 383.188V371.938Z" fill="#F97316"/>
<path d="M1104.22 384.062C1104.22 385.5 1103.95 386.781 1103.41 387.906C1102.89 389.031 1102.14 389.979 1101.16 390.75C1100.18 391.521 1099.01 392.104 1097.66 392.5C1096.3 392.896 1094.81 393.094 1093.19 393.094C1092.19 393.094 1091.23 393.01 1090.31 392.844C1089.42 392.698 1088.6 392.51 1087.88 392.281C1087.17 392.031 1086.56 391.781 1086.06 391.531C1085.56 391.26 1085.2 391.021 1084.97 390.812C1084.74 390.604 1084.57 390.312 1084.47 389.938C1084.36 389.562 1084.31 389.052 1084.31 388.406C1084.31 388.01 1084.33 387.677 1084.38 387.406C1084.42 387.135 1084.47 386.917 1084.53 386.75C1084.59 386.583 1084.68 386.469 1084.78 386.406C1084.91 386.323 1085.04 386.281 1085.19 386.281C1085.42 386.281 1085.75 386.427 1086.19 386.719C1086.65 386.99 1087.2 387.292 1087.84 387.625C1088.51 387.958 1089.29 388.271 1090.19 388.562C1091.08 388.833 1092.11 388.969 1093.28 388.969C1094.16 388.969 1094.95 388.875 1095.66 388.688C1096.36 388.5 1096.98 388.229 1097.5 387.875C1098.02 387.5 1098.42 387.031 1098.69 386.469C1098.98 385.906 1099.12 385.24 1099.12 384.469C1099.12 383.677 1098.92 383.01 1098.5 382.469C1098.1 381.927 1097.57 381.448 1096.91 381.031C1096.24 380.615 1095.49 380.25 1094.66 379.938C1093.82 379.604 1092.96 379.26 1092.06 378.906C1091.19 378.552 1090.32 378.156 1089.47 377.719C1088.64 377.26 1087.89 376.708 1087.22 376.062C1086.55 375.417 1086.01 374.646 1085.59 373.75C1085.2 372.854 1085 371.781 1085 370.531C1085 369.427 1085.21 368.375 1085.62 367.375C1086.06 366.354 1086.71 365.469 1087.56 364.719C1088.42 363.948 1089.48 363.333 1090.75 362.875C1092.04 362.417 1093.54 362.188 1095.25 362.188C1096 362.188 1096.75 362.25 1097.5 362.375C1098.25 362.5 1098.93 362.656 1099.53 362.844C1100.14 363.031 1100.65 363.24 1101.06 363.469C1101.5 363.677 1101.82 363.865 1102.03 364.031C1102.26 364.198 1102.41 364.344 1102.47 364.469C1102.55 364.594 1102.6 364.74 1102.62 364.906C1102.67 365.052 1102.7 365.24 1102.72 365.469C1102.76 365.698 1102.78 365.979 1102.78 366.312C1102.78 366.667 1102.76 366.979 1102.72 367.25C1102.7 367.5 1102.65 367.708 1102.56 367.875C1102.5 368.042 1102.42 368.167 1102.31 368.25C1102.21 368.312 1102.09 368.344 1101.97 368.344C1101.78 368.344 1101.51 368.229 1101.16 368C1100.8 367.771 1100.34 367.531 1099.78 367.281C1099.22 367.01 1098.55 366.76 1097.78 366.531C1097.03 366.302 1096.17 366.188 1095.19 366.188C1094.31 366.188 1093.54 366.292 1092.88 366.5C1092.21 366.688 1091.66 366.969 1091.22 367.344C1090.8 367.698 1090.48 368.125 1090.25 368.625C1090.04 369.125 1089.94 369.667 1089.94 370.25C1089.94 371.062 1090.15 371.75 1090.56 372.312C1090.98 372.854 1091.52 373.333 1092.19 373.75C1092.85 374.167 1093.61 374.542 1094.47 374.875C1095.32 375.208 1096.19 375.552 1097.06 375.906C1097.96 376.26 1098.83 376.656 1099.69 377.094C1100.56 377.531 1101.33 378.062 1102 378.688C1102.67 379.312 1103.2 380.062 1103.59 380.938C1104.01 381.812 1104.22 382.854 1104.22 384.062Z" fill="#F97316"/>
<path d="M1118.44 388.031C1118.44 388.677 1118.41 389.271 1118.34 389.812C1118.28 390.354 1118.18 390.865 1118.03 391.344C1117.89 391.823 1117.69 392.292 1117.44 392.75C1117.21 393.229 1116.92 393.729 1116.56 394.25L1112.28 400.688C1112.18 400.833 1112.05 400.958 1111.91 401.062C1111.78 401.167 1111.61 401.26 1111.41 401.344C1111.22 401.427 1110.99 401.479 1110.72 401.5C1110.47 401.542 1110.15 401.562 1109.75 401.562C1109.4 401.562 1109.09 401.542 1108.84 401.5C1108.61 401.479 1108.45 401.427 1108.34 401.344C1108.24 401.281 1108.18 401.188 1108.16 401.062C1108.16 400.938 1108.2 400.792 1108.28 400.625L1112.44 392.031V388.031C1112.44 387.469 1112.49 387.021 1112.59 386.688C1112.72 386.354 1112.91 386.104 1113.16 385.938C1113.41 385.771 1113.72 385.656 1114.09 385.594C1114.47 385.531 1114.93 385.5 1115.47 385.5C1115.99 385.5 1116.44 385.531 1116.81 385.594C1117.19 385.656 1117.49 385.771 1117.72 385.938C1117.97 386.104 1118.15 386.354 1118.25 386.688C1118.38 387.021 1118.44 387.469 1118.44 388.031Z" fill="white"/>
<path d="M1169.38 380.906C1169.38 382.177 1169.21 383.354 1168.88 384.438C1168.56 385.5 1168.11 386.458 1167.53 387.312C1166.95 388.167 1166.24 388.917 1165.41 389.562C1164.59 390.208 1163.67 390.75 1162.62 391.188C1161.6 391.625 1160.5 391.958 1159.31 392.188C1158.15 392.396 1156.8 392.5 1155.28 392.5H1144.72C1144.24 392.5 1143.78 392.344 1143.34 392.031C1142.93 391.698 1142.72 391.125 1142.72 390.312V354.25C1142.72 353.438 1142.93 352.875 1143.34 352.562C1143.78 352.229 1144.24 352.062 1144.72 352.062H1153.91C1156.32 352.062 1158.3 352.292 1159.84 352.75C1161.39 353.208 1162.67 353.875 1163.69 354.75C1164.73 355.625 1165.51 356.698 1166.03 357.969C1166.55 359.24 1166.81 360.677 1166.81 362.281C1166.81 363.24 1166.7 364.156 1166.47 365.031C1166.24 365.906 1165.9 366.719 1165.44 367.469C1165 368.198 1164.44 368.854 1163.75 369.438C1163.08 370.021 1162.31 370.5 1161.44 370.875C1162.54 371.083 1163.57 371.469 1164.53 372.031C1165.49 372.573 1166.32 373.271 1167.03 374.125C1167.76 374.979 1168.33 375.979 1168.75 377.125C1169.17 378.271 1169.38 379.531 1169.38 380.906ZM1161.28 362.812C1161.28 361.833 1161.15 360.948 1160.88 360.156C1160.6 359.365 1160.18 358.698 1159.59 358.156C1159.01 357.594 1158.25 357.167 1157.31 356.875C1156.38 356.583 1155.14 356.438 1153.59 356.438H1148.03V369.531H1154.16C1155.55 369.531 1156.68 369.354 1157.53 369C1158.39 368.625 1159.09 368.135 1159.66 367.531C1160.22 366.906 1160.62 366.188 1160.88 365.375C1161.15 364.542 1161.28 363.688 1161.28 362.812ZM1163.72 381.219C1163.72 380.01 1163.52 378.948 1163.12 378.031C1162.75 377.115 1162.19 376.344 1161.44 375.719C1160.71 375.094 1159.78 374.625 1158.66 374.312C1157.55 373.979 1156.16 373.812 1154.47 373.812H1148.03V388.062H1155.84C1157.07 388.062 1158.15 387.917 1159.06 387.625C1159.98 387.333 1160.78 386.906 1161.47 386.344C1162.18 385.76 1162.73 385.042 1163.12 384.188C1163.52 383.333 1163.72 382.344 1163.72 381.219Z" fill="white"/>
<path d="M1201.03 391.719C1201.03 391.885 1200.99 392.031 1200.91 392.156C1200.84 392.26 1200.72 392.354 1200.53 392.438C1200.34 392.521 1200.09 392.583 1199.78 392.625C1199.49 392.667 1199.12 392.688 1198.69 392.688C1198.21 392.688 1197.81 392.667 1197.5 392.625C1197.21 392.583 1196.97 392.521 1196.78 392.438C1196.61 392.354 1196.5 392.26 1196.44 392.156C1196.38 392.031 1196.34 391.885 1196.34 391.719V388C1194.74 389.771 1193.16 391.062 1191.59 391.875C1190.03 392.688 1188.45 393.094 1186.84 393.094C1184.97 393.094 1183.39 392.781 1182.09 392.156C1180.82 391.531 1179.79 390.688 1179 389.625C1178.21 388.542 1177.64 387.292 1177.28 385.875C1176.95 384.438 1176.78 382.698 1176.78 380.656V363.594C1176.78 363.427 1176.81 363.292 1176.88 363.188C1176.96 363.062 1177.1 362.958 1177.31 362.875C1177.52 362.771 1177.79 362.708 1178.12 362.688C1178.46 362.646 1178.88 362.625 1179.38 362.625C1179.88 362.625 1180.29 362.646 1180.62 362.688C1180.96 362.708 1181.22 362.771 1181.41 362.875C1181.61 362.958 1181.76 363.062 1181.84 363.188C1181.93 363.292 1181.97 363.427 1181.97 363.594V379.969C1181.97 381.615 1182.08 382.938 1182.31 383.938C1182.56 384.917 1182.93 385.76 1183.41 386.469C1183.91 387.156 1184.53 387.698 1185.28 388.094C1186.03 388.469 1186.91 388.656 1187.91 388.656C1189.2 388.656 1190.48 388.198 1191.75 387.281C1193.04 386.365 1194.41 385.021 1195.84 383.25V363.594C1195.84 363.427 1195.88 363.292 1195.94 363.188C1196.02 363.062 1196.17 362.958 1196.38 362.875C1196.58 362.771 1196.84 362.708 1197.16 362.688C1197.49 362.646 1197.92 362.625 1198.44 362.625C1198.94 362.625 1199.35 362.646 1199.69 362.688C1200.02 362.708 1200.28 362.771 1200.47 362.875C1200.66 362.958 1200.79 363.062 1200.88 363.188C1200.98 363.292 1201.03 363.427 1201.03 363.594V391.719Z" fill="white"/>
<path d="M1215.72 391.719C1215.72 391.885 1215.68 392.031 1215.59 392.156C1215.51 392.26 1215.38 392.354 1215.19 392.438C1215 392.521 1214.74 392.583 1214.41 392.625C1214.07 392.667 1213.65 392.688 1213.12 392.688C1212.62 392.688 1212.21 392.667 1211.88 392.625C1211.54 392.583 1211.27 392.521 1211.06 392.438C1210.88 392.354 1210.74 392.26 1210.66 392.156C1210.59 392.031 1210.56 391.885 1210.56 391.719V363.594C1210.56 363.448 1210.59 363.312 1210.66 363.188C1210.74 363.062 1210.88 362.958 1211.06 362.875C1211.27 362.792 1211.54 362.729 1211.88 362.688C1212.21 362.646 1212.62 362.625 1213.12 362.625C1213.65 362.625 1214.07 362.646 1214.41 362.688C1214.74 362.729 1215 362.792 1215.19 362.875C1215.38 362.958 1215.51 363.062 1215.59 363.188C1215.68 363.312 1215.72 363.448 1215.72 363.594V391.719ZM1216.31 354.094C1216.31 355.302 1216.08 356.125 1215.62 356.562C1215.17 357 1214.32 357.219 1213.09 357.219C1211.89 357.219 1211.05 357.01 1210.59 356.594C1210.16 356.156 1209.94 355.344 1209.94 354.156C1209.94 352.948 1210.17 352.125 1210.62 351.688C1211.08 351.25 1211.93 351.031 1213.16 351.031C1214.36 351.031 1215.19 351.25 1215.62 351.688C1216.08 352.104 1216.31 352.906 1216.31 354.094Z" fill="white"/>
<path d="M1230.41 391.719C1230.41 391.885 1230.36 392.031 1230.28 392.156C1230.2 392.26 1230.06 392.354 1229.88 392.438C1229.69 392.521 1229.43 392.583 1229.09 392.625C1228.76 392.667 1228.33 392.688 1227.81 392.688C1227.31 392.688 1226.9 392.667 1226.56 392.625C1226.23 392.583 1225.96 392.521 1225.75 392.438C1225.56 392.354 1225.43 392.26 1225.34 392.156C1225.28 392.031 1225.25 391.885 1225.25 391.719V349.969C1225.25 349.802 1225.28 349.656 1225.34 349.531C1225.43 349.406 1225.56 349.302 1225.75 349.219C1225.96 349.135 1226.23 349.073 1226.56 349.031C1226.9 348.99 1227.31 348.969 1227.81 348.969C1228.33 348.969 1228.76 348.99 1229.09 349.031C1229.43 349.073 1229.69 349.135 1229.88 349.219C1230.06 349.302 1230.2 349.406 1230.28 349.531C1230.36 349.656 1230.41 349.802 1230.41 349.969V391.719Z" fill="white"/>
<path d="M1264.03 391.719C1264.03 391.885 1263.99 392.031 1263.91 392.156C1263.84 392.281 1263.72 392.385 1263.53 392.469C1263.36 392.531 1263.14 392.583 1262.84 392.625C1262.55 392.667 1262.2 392.688 1261.78 392.688C1261.34 392.688 1260.98 392.667 1260.69 392.625C1260.4 392.583 1260.16 392.531 1259.97 392.469C1259.78 392.385 1259.65 392.281 1259.56 392.156C1259.48 392.031 1259.44 391.885 1259.44 391.719V388C1257.96 389.604 1256.42 390.854 1254.81 391.75C1253.23 392.646 1251.49 393.094 1249.59 393.094C1247.53 393.094 1245.77 392.698 1244.31 391.906C1242.85 391.094 1241.67 390.01 1240.75 388.656C1239.85 387.281 1239.2 385.677 1238.78 383.844C1238.36 381.99 1238.16 380.042 1238.16 378C1238.16 375.583 1238.42 373.406 1238.94 371.469C1239.46 369.51 1240.23 367.844 1241.25 366.469C1242.27 365.094 1243.53 364.042 1245.03 363.312C1246.55 362.562 1248.3 362.188 1250.28 362.188C1251.93 362.188 1253.43 362.552 1254.78 363.281C1256.16 363.99 1257.51 365.042 1258.84 366.438V350.094C1258.84 349.948 1258.88 349.812 1258.94 349.688C1259.02 349.542 1259.17 349.438 1259.38 349.375C1259.58 349.292 1259.84 349.229 1260.16 349.188C1260.49 349.125 1260.91 349.094 1261.41 349.094C1261.93 349.094 1262.35 349.125 1262.69 349.188C1263.02 349.229 1263.28 349.292 1263.47 349.375C1263.66 349.438 1263.79 349.542 1263.88 349.688C1263.98 349.812 1264.03 349.948 1264.03 350.094V391.719ZM1258.84 371.938C1257.45 370.208 1256.09 368.896 1254.78 368C1253.49 367.083 1252.14 366.625 1250.72 366.625C1249.41 366.625 1248.29 366.938 1247.38 367.562C1246.46 368.188 1245.71 369.01 1245.12 370.031C1244.56 371.052 1244.15 372.208 1243.88 373.5C1243.62 374.792 1243.5 376.104 1243.5 377.438C1243.5 378.854 1243.6 380.24 1243.81 381.594C1244.04 382.948 1244.43 384.156 1244.97 385.219C1245.51 386.26 1246.23 387.104 1247.12 387.75C1248.02 388.375 1249.15 388.688 1250.5 388.688C1251.19 388.688 1251.84 388.594 1252.47 388.406C1253.11 388.219 1253.77 387.906 1254.44 387.469C1255.1 387.031 1255.8 386.469 1256.53 385.781C1257.26 385.073 1258.03 384.208 1258.84 383.188V371.938Z" fill="white"/>
<path d="M1278.72 391.719C1278.72 391.885 1278.68 392.031 1278.59 392.156C1278.51 392.26 1278.38 392.354 1278.19 392.438C1278 392.521 1277.74 392.583 1277.41 392.625C1277.07 392.667 1276.65 392.688 1276.12 392.688C1275.62 392.688 1275.21 392.667 1274.88 392.625C1274.54 392.583 1274.27 392.521 1274.06 392.438C1273.88 392.354 1273.74 392.26 1273.66 392.156C1273.59 392.031 1273.56 391.885 1273.56 391.719V363.594C1273.56 363.448 1273.59 363.312 1273.66 363.188C1273.74 363.062 1273.88 362.958 1274.06 362.875C1274.27 362.792 1274.54 362.729 1274.88 362.688C1275.21 362.646 1275.62 362.625 1276.12 362.625C1276.65 362.625 1277.07 362.646 1277.41 362.688C1277.74 362.729 1278 362.792 1278.19 362.875C1278.38 362.958 1278.51 363.062 1278.59 363.188C1278.68 363.312 1278.72 363.448 1278.72 363.594V391.719ZM1279.31 354.094C1279.31 355.302 1279.08 356.125 1278.62 356.562C1278.17 357 1277.32 357.219 1276.09 357.219C1274.89 357.219 1274.05 357.01 1273.59 356.594C1273.16 356.156 1272.94 355.344 1272.94 354.156C1272.94 352.948 1273.17 352.125 1273.62 351.688C1274.08 351.25 1274.93 351.031 1276.16 351.031C1277.36 351.031 1278.19 351.25 1278.62 351.688C1279.08 352.104 1279.31 352.906 1279.31 354.094Z" fill="white"/>
<path d="M1312.47 391.719C1312.47 391.885 1312.43 392.031 1312.34 392.156C1312.26 392.26 1312.12 392.354 1311.94 392.438C1311.75 392.521 1311.49 392.583 1311.16 392.625C1310.82 392.667 1310.41 392.688 1309.91 392.688C1309.39 392.688 1308.96 392.667 1308.62 392.625C1308.29 392.583 1308.03 392.521 1307.84 392.438C1307.66 392.354 1307.52 392.26 1307.44 392.156C1307.35 392.031 1307.31 391.885 1307.31 391.719V375.25C1307.31 373.646 1307.19 372.354 1306.94 371.375C1306.69 370.396 1306.32 369.552 1305.84 368.844C1305.36 368.135 1304.74 367.594 1303.97 367.219C1303.22 366.844 1302.34 366.656 1301.34 366.656C1300.05 366.656 1298.76 367.115 1297.47 368.031C1296.18 368.948 1294.82 370.292 1293.41 372.062V391.719C1293.41 391.885 1293.36 392.031 1293.28 392.156C1293.2 392.26 1293.06 392.354 1292.88 392.438C1292.69 392.521 1292.43 392.583 1292.09 392.625C1291.76 392.667 1291.33 392.688 1290.81 392.688C1290.31 392.688 1289.9 392.667 1289.56 392.625C1289.23 392.583 1288.96 392.521 1288.75 392.438C1288.56 392.354 1288.43 392.26 1288.34 392.156C1288.28 392.031 1288.25 391.885 1288.25 391.719V363.594C1288.25 363.427 1288.28 363.292 1288.34 363.188C1288.41 363.062 1288.53 362.958 1288.72 362.875C1288.91 362.771 1289.15 362.708 1289.44 362.688C1289.73 362.646 1290.11 362.625 1290.59 362.625C1291.05 362.625 1291.43 362.646 1291.72 362.688C1292.03 362.708 1292.27 362.771 1292.44 362.875C1292.6 362.958 1292.72 363.062 1292.78 363.188C1292.86 363.292 1292.91 363.427 1292.91 363.594V367.312C1294.49 365.542 1296.06 364.25 1297.62 363.438C1299.21 362.604 1300.8 362.188 1302.41 362.188C1304.28 362.188 1305.85 362.51 1307.12 363.156C1308.42 363.781 1309.46 364.625 1310.25 365.688C1311.04 366.75 1311.6 368 1311.94 369.438C1312.29 370.854 1312.47 372.562 1312.47 374.562V391.719Z" fill="white"/>
<path d="M1345.38 364.875C1345.38 365.604 1345.27 366.135 1345.06 366.469C1344.88 366.781 1344.62 366.938 1344.31 366.938H1340.28C1341.01 367.688 1341.52 368.521 1341.81 369.438C1342.1 370.333 1342.25 371.271 1342.25 372.25C1342.25 373.875 1341.99 375.312 1341.47 376.562C1340.95 377.812 1340.2 378.875 1339.22 379.75C1338.26 380.604 1337.11 381.26 1335.78 381.719C1334.45 382.177 1332.97 382.406 1331.34 382.406C1330.2 382.406 1329.1 382.26 1328.06 381.969C1327.04 381.656 1326.25 381.271 1325.69 380.812C1325.31 381.188 1325 381.615 1324.75 382.094C1324.52 382.573 1324.41 383.125 1324.41 383.75C1324.41 384.479 1324.74 385.083 1325.41 385.562C1326.09 386.042 1327 386.302 1328.12 386.344L1335.47 386.656C1336.86 386.698 1338.15 386.896 1339.31 387.25C1340.48 387.583 1341.49 388.073 1342.34 388.719C1343.2 389.344 1343.86 390.125 1344.34 391.062C1344.82 391.979 1345.06 393.052 1345.06 394.281C1345.06 395.573 1344.79 396.802 1344.25 397.969C1343.71 399.135 1342.88 400.156 1341.75 401.031C1340.65 401.927 1339.23 402.625 1337.5 403.125C1335.77 403.646 1333.73 403.906 1331.38 403.906C1329.1 403.906 1327.17 403.708 1325.56 403.312C1323.98 402.938 1322.68 402.417 1321.66 401.75C1320.64 401.083 1319.9 400.281 1319.44 399.344C1318.98 398.427 1318.75 397.427 1318.75 396.344C1318.75 395.656 1318.83 394.99 1319 394.344C1319.17 393.698 1319.42 393.083 1319.75 392.5C1320.1 391.917 1320.53 391.365 1321.03 390.844C1321.55 390.302 1322.15 389.771 1322.81 389.25C1321.79 388.729 1321.03 388.073 1320.53 387.281C1320.05 386.49 1319.81 385.635 1319.81 384.719C1319.81 383.448 1320.07 382.312 1320.59 381.312C1321.11 380.312 1321.76 379.417 1322.53 378.625C1321.89 377.854 1321.38 376.99 1321 376.031C1320.62 375.052 1320.44 373.875 1320.44 372.5C1320.44 370.896 1320.71 369.458 1321.25 368.188C1321.79 366.917 1322.54 365.844 1323.5 364.969C1324.46 364.094 1325.6 363.427 1326.94 362.969C1328.29 362.49 1329.76 362.25 1331.34 362.25C1332.2 362.25 1332.99 362.302 1333.72 362.406C1334.47 362.49 1335.17 362.615 1335.81 362.781H1344.31C1344.67 362.781 1344.93 362.958 1345.09 363.312C1345.28 363.646 1345.38 364.167 1345.38 364.875ZM1337.31 372.281C1337.31 370.365 1336.78 368.875 1335.72 367.812C1334.68 366.729 1333.19 366.188 1331.25 366.188C1330.25 366.188 1329.38 366.354 1328.62 366.688C1327.9 367.021 1327.28 367.479 1326.78 368.062C1326.3 368.646 1325.94 369.323 1325.69 370.094C1325.46 370.844 1325.34 371.635 1325.34 372.469C1325.34 374.323 1325.86 375.781 1326.91 376.844C1327.97 377.906 1329.45 378.438 1331.34 378.438C1332.36 378.438 1333.25 378.281 1334 377.969C1334.75 377.635 1335.36 377.188 1335.84 376.625C1336.34 376.042 1336.71 375.375 1336.94 374.625C1337.19 373.875 1337.31 373.094 1337.31 372.281ZM1339.91 394.562C1339.91 393.354 1339.41 392.427 1338.41 391.781C1337.43 391.115 1336.09 390.76 1334.41 390.719L1327.12 390.469C1326.46 390.99 1325.91 391.49 1325.47 391.969C1325.05 392.427 1324.72 392.865 1324.47 393.281C1324.22 393.719 1324.04 394.146 1323.94 394.562C1323.85 394.979 1323.81 395.406 1323.81 395.844C1323.81 397.198 1324.5 398.219 1325.88 398.906C1327.25 399.615 1329.17 399.969 1331.62 399.969C1333.19 399.969 1334.49 399.812 1335.53 399.5C1336.59 399.208 1337.45 398.812 1338.09 398.312C1338.74 397.812 1339.2 397.24 1339.47 396.594C1339.76 395.948 1339.91 395.271 1339.91 394.562Z" fill="white"/>
<path d="M1393.75 380.906C1393.75 382.177 1393.58 383.354 1393.25 384.438C1392.94 385.5 1392.49 386.458 1391.91 387.312C1391.32 388.167 1390.61 388.917 1389.78 389.562C1388.97 390.208 1388.04 390.75 1387 391.188C1385.98 391.625 1384.88 391.958 1383.69 392.188C1382.52 392.396 1381.18 392.5 1379.66 392.5H1369.09C1368.61 392.5 1368.16 392.344 1367.72 392.031C1367.3 391.698 1367.09 391.125 1367.09 390.312V354.25C1367.09 353.438 1367.3 352.875 1367.72 352.562C1368.16 352.229 1368.61 352.062 1369.09 352.062H1378.28C1380.7 352.062 1382.68 352.292 1384.22 352.75C1385.76 353.208 1387.04 353.875 1388.06 354.75C1389.1 355.625 1389.89 356.698 1390.41 357.969C1390.93 359.24 1391.19 360.677 1391.19 362.281C1391.19 363.24 1391.07 364.156 1390.84 365.031C1390.61 365.906 1390.27 366.719 1389.81 367.469C1389.38 368.198 1388.81 368.854 1388.12 369.438C1387.46 370.021 1386.69 370.5 1385.81 370.875C1386.92 371.083 1387.95 371.469 1388.91 372.031C1389.86 372.573 1390.7 373.271 1391.41 374.125C1392.14 374.979 1392.71 375.979 1393.12 377.125C1393.54 378.271 1393.75 379.531 1393.75 380.906ZM1385.66 362.812C1385.66 361.833 1385.52 360.948 1385.25 360.156C1384.98 359.365 1384.55 358.698 1383.97 358.156C1383.39 357.594 1382.62 357.167 1381.69 356.875C1380.75 356.583 1379.51 356.438 1377.97 356.438H1372.41V369.531H1378.53C1379.93 369.531 1381.05 369.354 1381.91 369C1382.76 368.625 1383.47 368.135 1384.03 367.531C1384.59 366.906 1385 366.188 1385.25 365.375C1385.52 364.542 1385.66 363.688 1385.66 362.812ZM1388.09 381.219C1388.09 380.01 1387.9 378.948 1387.5 378.031C1387.12 377.115 1386.56 376.344 1385.81 375.719C1385.08 375.094 1384.16 374.625 1383.03 374.312C1381.93 373.979 1380.53 373.812 1378.84 373.812H1372.41V388.062H1380.22C1381.45 388.062 1382.52 387.917 1383.44 387.625C1384.35 387.333 1385.16 386.906 1385.84 386.344C1386.55 385.76 1387.1 385.042 1387.5 384.188C1387.9 383.333 1388.09 382.344 1388.09 381.219Z" fill="white"/>
<path d="M1417.75 365.438C1417.75 365.896 1417.74 366.281 1417.72 366.594C1417.7 366.906 1417.66 367.156 1417.59 367.344C1417.53 367.51 1417.45 367.646 1417.34 367.75C1417.26 367.833 1417.14 367.875 1416.97 367.875C1416.8 367.875 1416.59 367.833 1416.34 367.75C1416.11 367.646 1415.84 367.552 1415.53 367.469C1415.24 367.365 1414.91 367.271 1414.53 367.188C1414.16 367.104 1413.75 367.062 1413.31 367.062C1412.79 367.062 1412.28 367.167 1411.78 367.375C1411.28 367.583 1410.75 367.927 1410.19 368.406C1409.65 368.885 1409.07 369.521 1408.47 370.312C1407.86 371.104 1407.2 372.073 1406.47 373.219V391.719C1406.47 391.885 1406.43 392.031 1406.34 392.156C1406.26 392.26 1406.12 392.354 1405.94 392.438C1405.75 392.521 1405.49 392.583 1405.16 392.625C1404.82 392.667 1404.4 392.688 1403.88 392.688C1403.38 392.688 1402.96 392.667 1402.62 392.625C1402.29 392.583 1402.02 392.521 1401.81 392.438C1401.62 392.354 1401.49 392.26 1401.41 392.156C1401.34 392.031 1401.31 391.885 1401.31 391.719V363.594C1401.31 363.427 1401.34 363.292 1401.41 363.188C1401.47 363.062 1401.59 362.958 1401.78 362.875C1401.97 362.771 1402.21 362.708 1402.5 362.688C1402.79 362.646 1403.18 362.625 1403.66 362.625C1404.11 362.625 1404.49 362.646 1404.78 362.688C1405.09 362.708 1405.33 362.771 1405.5 362.875C1405.67 362.958 1405.78 363.062 1405.84 363.188C1405.93 363.292 1405.97 363.427 1405.97 363.594V367.688C1406.74 366.562 1407.46 365.646 1408.12 364.938C1408.81 364.229 1409.46 363.677 1410.06 363.281C1410.67 362.865 1411.26 362.583 1411.84 362.438C1412.45 362.271 1413.05 362.188 1413.66 362.188C1413.93 362.188 1414.23 362.208 1414.56 362.25C1414.92 362.271 1415.28 362.323 1415.66 362.406C1416.03 362.49 1416.36 362.583 1416.66 362.688C1416.97 362.792 1417.19 362.896 1417.31 363C1417.44 363.104 1417.52 363.208 1417.56 363.312C1417.6 363.396 1417.64 363.51 1417.66 363.656C1417.7 363.802 1417.72 364.021 1417.72 364.312C1417.74 364.583 1417.75 364.958 1417.75 365.438Z" fill="white"/>
<path d="M1428.78 391.719C1428.78 391.885 1428.74 392.031 1428.66 392.156C1428.57 392.26 1428.44 392.354 1428.25 392.438C1428.06 392.521 1427.8 392.583 1427.47 392.625C1427.14 392.667 1426.71 392.688 1426.19 392.688C1425.69 392.688 1425.27 392.667 1424.94 392.625C1424.6 392.583 1424.33 392.521 1424.12 392.438C1423.94 392.354 1423.8 392.26 1423.72 392.156C1423.66 392.031 1423.62 391.885 1423.62 391.719V363.594C1423.62 363.448 1423.66 363.312 1423.72 363.188C1423.8 363.062 1423.94 362.958 1424.12 362.875C1424.33 362.792 1424.6 362.729 1424.94 362.688C1425.27 362.646 1425.69 362.625 1426.19 362.625C1426.71 362.625 1427.14 362.646 1427.47 362.688C1427.8 362.729 1428.06 362.792 1428.25 362.875C1428.44 362.958 1428.57 363.062 1428.66 363.188C1428.74 363.312 1428.78 363.448 1428.78 363.594V391.719ZM1429.38 354.094C1429.38 355.302 1429.15 356.125 1428.69 356.562C1428.23 357 1427.39 357.219 1426.16 357.219C1424.95 357.219 1424.11 357.01 1423.66 356.594C1423.22 356.156 1423 355.344 1423 354.156C1423 352.948 1423.23 352.125 1423.69 351.688C1424.15 351.25 1424.99 351.031 1426.22 351.031C1427.43 351.031 1428.25 351.25 1428.69 351.688C1429.15 352.104 1429.38 352.906 1429.38 354.094Z" fill="white"/>
<path d="M1462.41 391.719C1462.41 391.885 1462.36 392.031 1462.28 392.156C1462.22 392.281 1462.09 392.385 1461.91 392.469C1461.74 392.531 1461.51 392.583 1461.22 392.625C1460.93 392.667 1460.57 392.688 1460.16 392.688C1459.72 392.688 1459.35 392.667 1459.06 392.625C1458.77 392.583 1458.53 392.531 1458.34 392.469C1458.16 392.385 1458.02 392.281 1457.94 392.156C1457.85 392.031 1457.81 391.885 1457.81 391.719V388C1456.33 389.604 1454.79 390.854 1453.19 391.75C1451.6 392.646 1449.86 393.094 1447.97 393.094C1445.91 393.094 1444.15 392.698 1442.69 391.906C1441.23 391.094 1440.04 390.01 1439.12 388.656C1438.23 387.281 1437.57 385.677 1437.16 383.844C1436.74 381.99 1436.53 380.042 1436.53 378C1436.53 375.583 1436.79 373.406 1437.31 371.469C1437.83 369.51 1438.6 367.844 1439.62 366.469C1440.65 365.094 1441.91 364.042 1443.41 363.312C1444.93 362.562 1446.68 362.188 1448.66 362.188C1450.3 362.188 1451.8 362.552 1453.16 363.281C1454.53 363.99 1455.89 365.042 1457.22 366.438V350.094C1457.22 349.948 1457.25 349.812 1457.31 349.688C1457.4 349.542 1457.54 349.438 1457.75 349.375C1457.96 349.292 1458.22 349.229 1458.53 349.188C1458.86 349.125 1459.28 349.094 1459.78 349.094C1460.3 349.094 1460.73 349.125 1461.06 349.188C1461.4 349.229 1461.66 349.292 1461.84 349.375C1462.03 349.438 1462.17 349.542 1462.25 349.688C1462.35 349.812 1462.41 349.948 1462.41 350.094V391.719ZM1457.22 371.938C1455.82 370.208 1454.47 368.896 1453.16 368C1451.86 367.083 1450.51 366.625 1449.09 366.625C1447.78 366.625 1446.67 366.938 1445.75 367.562C1444.83 368.188 1444.08 369.01 1443.5 370.031C1442.94 371.052 1442.52 372.208 1442.25 373.5C1442 374.792 1441.88 376.104 1441.88 377.438C1441.88 378.854 1441.98 380.24 1442.19 381.594C1442.42 382.948 1442.8 384.156 1443.34 385.219C1443.89 386.26 1444.6 387.104 1445.5 387.75C1446.4 388.375 1447.52 388.688 1448.88 388.688C1449.56 388.688 1450.22 388.594 1450.84 388.406C1451.49 388.219 1452.15 387.906 1452.81 387.469C1453.48 387.031 1454.18 386.469 1454.91 385.781C1455.64 385.073 1456.41 384.208 1457.22 383.188V371.938Z" fill="white"/>
<path d="M1495.44 364.875C1495.44 365.604 1495.33 366.135 1495.12 366.469C1494.94 366.781 1494.69 366.938 1494.38 366.938H1490.34C1491.07 367.688 1491.58 368.521 1491.88 369.438C1492.17 370.333 1492.31 371.271 1492.31 372.25C1492.31 373.875 1492.05 375.312 1491.53 376.562C1491.01 377.812 1490.26 378.875 1489.28 379.75C1488.32 380.604 1487.18 381.26 1485.84 381.719C1484.51 382.177 1483.03 382.406 1481.41 382.406C1480.26 382.406 1479.17 382.26 1478.12 381.969C1477.1 381.656 1476.31 381.271 1475.75 380.812C1475.38 381.188 1475.06 381.615 1474.81 382.094C1474.58 382.573 1474.47 383.125 1474.47 383.75C1474.47 384.479 1474.8 385.083 1475.47 385.562C1476.16 386.042 1477.06 386.302 1478.19 386.344L1485.53 386.656C1486.93 386.698 1488.21 386.896 1489.38 387.25C1490.54 387.583 1491.55 388.073 1492.41 388.719C1493.26 389.344 1493.93 390.125 1494.41 391.062C1494.89 391.979 1495.12 393.052 1495.12 394.281C1495.12 395.573 1494.85 396.802 1494.31 397.969C1493.77 399.135 1492.94 400.156 1491.81 401.031C1490.71 401.927 1489.29 402.625 1487.56 403.125C1485.83 403.646 1483.79 403.906 1481.44 403.906C1479.17 403.906 1477.23 403.708 1475.62 403.312C1474.04 402.938 1472.74 402.417 1471.72 401.75C1470.7 401.083 1469.96 400.281 1469.5 399.344C1469.04 398.427 1468.81 397.427 1468.81 396.344C1468.81 395.656 1468.9 394.99 1469.06 394.344C1469.23 393.698 1469.48 393.083 1469.81 392.5C1470.17 391.917 1470.59 391.365 1471.09 390.844C1471.61 390.302 1472.21 389.771 1472.88 389.25C1471.85 388.729 1471.09 388.073 1470.59 387.281C1470.11 386.49 1469.88 385.635 1469.88 384.719C1469.88 383.448 1470.14 382.312 1470.66 381.312C1471.18 380.312 1471.82 379.417 1472.59 378.625C1471.95 377.854 1471.44 376.99 1471.06 376.031C1470.69 375.052 1470.5 373.875 1470.5 372.5C1470.5 370.896 1470.77 369.458 1471.31 368.188C1471.85 366.917 1472.6 365.844 1473.56 364.969C1474.52 364.094 1475.67 363.427 1477 362.969C1478.35 362.49 1479.82 362.25 1481.41 362.25C1482.26 362.25 1483.05 362.302 1483.78 362.406C1484.53 362.49 1485.23 362.615 1485.88 362.781H1494.38C1494.73 362.781 1494.99 362.958 1495.16 363.312C1495.34 363.646 1495.44 364.167 1495.44 364.875ZM1487.38 372.281C1487.38 370.365 1486.84 368.875 1485.78 367.812C1484.74 366.729 1483.25 366.188 1481.31 366.188C1480.31 366.188 1479.44 366.354 1478.69 366.688C1477.96 367.021 1477.34 367.479 1476.84 368.062C1476.36 368.646 1476 369.323 1475.75 370.094C1475.52 370.844 1475.41 371.635 1475.41 372.469C1475.41 374.323 1475.93 375.781 1476.97 376.844C1478.03 377.906 1479.51 378.438 1481.41 378.438C1482.43 378.438 1483.31 378.281 1484.06 377.969C1484.81 377.635 1485.43 377.188 1485.91 376.625C1486.41 376.042 1486.77 375.375 1487 374.625C1487.25 373.875 1487.38 373.094 1487.38 372.281ZM1489.97 394.562C1489.97 393.354 1489.47 392.427 1488.47 391.781C1487.49 391.115 1486.16 390.76 1484.47 390.719L1477.19 390.469C1476.52 390.99 1475.97 391.49 1475.53 391.969C1475.11 392.427 1474.78 392.865 1474.53 393.281C1474.28 393.719 1474.1 394.146 1474 394.562C1473.92 394.979 1473.88 395.406 1473.88 395.844C1473.88 397.198 1474.56 398.219 1475.94 398.906C1477.31 399.615 1479.23 399.969 1481.69 399.969C1483.25 399.969 1484.55 399.812 1485.59 399.5C1486.66 399.208 1487.51 398.812 1488.16 398.312C1488.8 397.812 1489.26 397.24 1489.53 396.594C1489.82 395.948 1489.97 395.271 1489.97 394.562Z" fill="white"/>
<path d="M1525.5 376.438C1525.5 377.25 1525.29 377.833 1524.88 378.188C1524.48 378.521 1524.02 378.688 1523.5 378.688H1505.06C1505.06 380.25 1505.22 381.656 1505.53 382.906C1505.84 384.156 1506.36 385.229 1507.09 386.125C1507.82 387.021 1508.77 387.708 1509.94 388.188C1511.1 388.667 1512.53 388.906 1514.22 388.906C1515.55 388.906 1516.74 388.802 1517.78 388.594C1518.82 388.365 1519.72 388.115 1520.47 387.844C1521.24 387.573 1521.86 387.333 1522.34 387.125C1522.84 386.896 1523.22 386.781 1523.47 386.781C1523.61 386.781 1523.74 386.823 1523.84 386.906C1523.97 386.969 1524.06 387.073 1524.12 387.219C1524.19 387.365 1524.23 387.573 1524.25 387.844C1524.29 388.094 1524.31 388.406 1524.31 388.781C1524.31 389.052 1524.3 389.292 1524.28 389.5C1524.26 389.688 1524.23 389.865 1524.19 390.031C1524.17 390.177 1524.11 390.312 1524.03 390.438C1523.97 390.562 1523.88 390.688 1523.75 390.812C1523.65 390.917 1523.31 391.104 1522.75 391.375C1522.19 391.625 1521.46 391.875 1520.56 392.125C1519.67 392.375 1518.62 392.594 1517.44 392.781C1516.27 392.99 1515.02 393.094 1513.69 393.094C1511.38 393.094 1509.34 392.771 1507.59 392.125C1505.86 391.479 1504.41 390.521 1503.22 389.25C1502.03 387.979 1501.14 386.385 1500.53 384.469C1499.93 382.552 1499.62 380.323 1499.62 377.781C1499.62 375.365 1499.94 373.198 1500.56 371.281C1501.19 369.344 1502.08 367.708 1503.25 366.375C1504.44 365.021 1505.86 363.99 1507.53 363.281C1509.2 362.552 1511.06 362.188 1513.12 362.188C1515.33 362.188 1517.21 362.542 1518.75 363.25C1520.31 363.958 1521.59 364.917 1522.59 366.125C1523.59 367.312 1524.32 368.719 1524.78 370.344C1525.26 371.948 1525.5 373.667 1525.5 375.5V376.438ZM1520.31 374.906C1520.38 372.198 1519.77 370.073 1518.5 368.531C1517.25 366.99 1515.39 366.219 1512.91 366.219C1511.64 366.219 1510.52 366.458 1509.56 366.938C1508.6 367.417 1507.8 368.052 1507.16 368.844C1506.51 369.635 1506.01 370.562 1505.66 371.625C1505.3 372.667 1505.1 373.76 1505.06 374.906H1520.31Z" fill="white"/>
<path d="M1551.03 384.062C1551.03 385.5 1550.76 386.781 1550.22 387.906C1549.7 389.031 1548.95 389.979 1547.97 390.75C1546.99 391.521 1545.82 392.104 1544.47 392.5C1543.11 392.896 1541.62 393.094 1540 393.094C1539 393.094 1538.04 393.01 1537.12 392.844C1536.23 392.698 1535.42 392.51 1534.69 392.281C1533.98 392.031 1533.38 391.781 1532.88 391.531C1532.38 391.26 1532.01 391.021 1531.78 390.812C1531.55 390.604 1531.39 390.312 1531.28 389.938C1531.18 389.562 1531.12 389.052 1531.12 388.406C1531.12 388.01 1531.15 387.677 1531.19 387.406C1531.23 387.135 1531.28 386.917 1531.34 386.75C1531.41 386.583 1531.49 386.469 1531.59 386.406C1531.72 386.323 1531.85 386.281 1532 386.281C1532.23 386.281 1532.56 386.427 1533 386.719C1533.46 386.99 1534.01 387.292 1534.66 387.625C1535.32 387.958 1536.1 388.271 1537 388.562C1537.9 388.833 1538.93 388.969 1540.09 388.969C1540.97 388.969 1541.76 388.875 1542.47 388.688C1543.18 388.5 1543.79 388.229 1544.31 387.875C1544.83 387.5 1545.23 387.031 1545.5 386.469C1545.79 385.906 1545.94 385.24 1545.94 384.469C1545.94 383.677 1545.73 383.01 1545.31 382.469C1544.92 381.927 1544.39 381.448 1543.72 381.031C1543.05 380.615 1542.3 380.25 1541.47 379.938C1540.64 379.604 1539.77 379.26 1538.88 378.906C1538 378.552 1537.14 378.156 1536.28 377.719C1535.45 377.26 1534.7 376.708 1534.03 376.062C1533.36 375.417 1532.82 374.646 1532.41 373.75C1532.01 372.854 1531.81 371.781 1531.81 370.531C1531.81 369.427 1532.02 368.375 1532.44 367.375C1532.88 366.354 1533.52 365.469 1534.38 364.719C1535.23 363.948 1536.29 363.333 1537.56 362.875C1538.85 362.417 1540.35 362.188 1542.06 362.188C1542.81 362.188 1543.56 362.25 1544.31 362.375C1545.06 362.5 1545.74 362.656 1546.34 362.844C1546.95 363.031 1547.46 363.24 1547.88 363.469C1548.31 363.677 1548.64 363.865 1548.84 364.031C1549.07 364.198 1549.22 364.344 1549.28 364.469C1549.36 364.594 1549.42 364.74 1549.44 364.906C1549.48 365.052 1549.51 365.24 1549.53 365.469C1549.57 365.698 1549.59 365.979 1549.59 366.312C1549.59 366.667 1549.57 366.979 1549.53 367.25C1549.51 367.5 1549.46 367.708 1549.38 367.875C1549.31 368.042 1549.23 368.167 1549.12 368.25C1549.02 368.312 1548.91 368.344 1548.78 368.344C1548.59 368.344 1548.32 368.229 1547.97 368C1547.61 367.771 1547.16 367.531 1546.59 367.281C1546.03 367.01 1545.36 366.76 1544.59 366.531C1543.84 366.302 1542.98 366.188 1542 366.188C1541.12 366.188 1540.35 366.292 1539.69 366.5C1539.02 366.688 1538.47 366.969 1538.03 367.344C1537.61 367.698 1537.29 368.125 1537.06 368.625C1536.85 369.125 1536.75 369.667 1536.75 370.25C1536.75 371.062 1536.96 371.75 1537.38 372.312C1537.79 372.854 1538.33 373.333 1539 373.75C1539.67 374.167 1540.43 374.542 1541.28 374.875C1542.14 375.208 1543 375.552 1543.88 375.906C1544.77 376.26 1545.65 376.656 1546.5 377.094C1547.38 377.531 1548.15 378.062 1548.81 378.688C1549.48 379.312 1550.01 380.062 1550.41 380.938C1550.82 381.812 1551.03 382.854 1551.03 384.062Z" fill="white"/>
</svg>
