<svg width="2115" height="512" viewBox="0 0 2115 512" fill="none" xmlns="http://www.w3.org/2000/svg">
<path d="M255.245 0C396.073 0 510.24 114.62 510.24 256C510.24 335.9 473.775 407.253 416.641 454.201L512.25 512H255.245C114.42 512 0.25 397.383 0.25 256C0.25 114.617 114.42 0 255.245 0Z" fill="#F97316"/>
<path d="M65.0398 260.778L152.051 247.941L175.116 187.136L239.065 310.508L306.135 127.629L356.891 249.548L447.53 260.778L336.954 275.215L307.949 211.045L244.504 384.3L180.208 258.37L173.806 273.611L65.0398 260.778Z" fill="white"/>
<path d="M751 169.469C751 178.552 749.583 186.594 746.75 193.594C743.917 200.594 739.792 206.51 734.375 211.344C728.958 216.094 722.292 219.719 714.375 222.219C706.542 224.719 697.292 225.969 686.625 225.969H673.125V277.594C673.125 278.427 672.833 279.177 672.25 279.844C671.75 280.51 670.875 281.052 669.625 281.469C668.375 281.885 666.708 282.219 664.625 282.469C662.542 282.719 659.875 282.844 656.625 282.844C653.458 282.844 650.792 282.719 648.625 282.469C646.542 282.219 644.875 281.885 643.625 281.469C642.375 281.052 641.5 280.51 641 279.844C640.5 279.177 640.25 278.427 640.25 277.594V132.094C640.25 128.177 641.25 125.26 643.25 123.344C645.333 121.344 648.042 120.344 651.375 120.344H689.5C693.333 120.344 696.958 120.51 700.375 120.844C703.875 121.094 708.042 121.719 712.875 122.719C717.708 123.635 722.583 125.385 727.5 127.969C732.5 130.552 736.75 133.844 740.25 137.844C743.75 141.76 746.417 146.385 748.25 151.719C750.083 156.969 751 162.885 751 169.469ZM716.625 171.844C716.625 166.177 715.625 161.51 713.625 157.844C711.625 154.177 709.167 151.469 706.25 149.719C703.333 147.969 700.25 146.885 697 146.469C693.833 145.969 690.542 145.719 687.125 145.719H673.125V200.594H687.875C693.125 200.594 697.5 199.885 701 198.469C704.583 197.052 707.5 195.094 709.75 192.594C712 190.01 713.708 186.969 714.875 183.469C716.042 179.885 716.625 176.01 716.625 171.844Z" fill="#F97316"/>
<path d="M880.375 277.844C880.375 278.677 880.167 279.427 879.75 280.094C879.333 280.677 878.583 281.177 877.5 281.594C876.5 282.01 875.125 282.302 873.375 282.469C871.708 282.719 869.583 282.844 867 282.844C864.25 282.844 862 282.719 860.25 282.469C858.583 282.302 857.25 282.01 856.25 281.594C855.25 281.177 854.542 280.677 854.125 280.094C853.708 279.427 853.5 278.677 853.5 277.844V264.969C847.333 271.635 841.042 276.635 834.625 279.969C828.292 283.302 821.708 284.969 814.875 284.969C807.208 284.969 800.75 283.719 795.5 281.219C790.333 278.719 786.125 275.302 782.875 270.969C779.708 266.635 777.417 261.635 776 255.969C774.667 250.219 774 243.094 774 234.594V166.344C774 165.51 774.208 164.802 774.625 164.219C775.125 163.552 775.958 163.01 777.125 162.594C778.375 162.177 780 161.885 782 161.719C784.083 161.469 786.625 161.344 789.625 161.344C792.708 161.344 795.25 161.469 797.25 161.719C799.25 161.885 800.833 162.177 802 162.594C803.25 163.01 804.125 163.552 804.625 164.219C805.125 164.802 805.375 165.51 805.375 166.344V229.344C805.375 235.177 805.75 239.635 806.5 242.719C807.25 245.802 808.375 248.469 809.875 250.719C811.458 252.885 813.417 254.594 815.75 255.844C818.167 257.01 820.958 257.594 824.125 257.594C828.125 257.594 832.125 256.135 836.125 253.219C840.208 250.302 844.542 246.052 849.125 240.469V166.344C849.125 165.51 849.333 164.802 849.75 164.219C850.25 163.552 851.083 163.01 852.25 162.594C853.5 162.177 855.125 161.885 857.125 161.719C859.125 161.469 861.667 161.344 864.75 161.344C867.833 161.344 870.375 161.469 872.375 161.719C874.375 161.885 875.958 162.177 877.125 162.594C878.292 163.01 879.125 163.552 879.625 164.219C880.125 164.802 880.375 165.51 880.375 166.344V277.844Z" fill="#F97316"/>
<path d="M943.625 277.844C943.625 278.677 943.375 279.427 942.875 280.094C942.375 280.677 941.5 281.177 940.25 281.594C939.083 282.01 937.5 282.302 935.5 282.469C933.5 282.719 930.958 282.844 927.875 282.844C924.792 282.844 922.25 282.719 920.25 282.469C918.25 282.302 916.625 282.01 915.375 281.594C914.208 281.177 913.375 280.677 912.875 280.094C912.375 279.427 912.125 278.677 912.125 277.844V113.469C912.125 112.635 912.375 111.885 912.875 111.219C913.375 110.552 914.208 110.01 915.375 109.594C916.625 109.094 918.25 108.719 920.25 108.469C922.25 108.219 924.792 108.094 927.875 108.094C930.958 108.094 933.5 108.219 935.5 108.469C937.5 108.719 939.083 109.094 940.25 109.594C941.5 110.01 942.375 110.552 942.875 111.219C943.375 111.885 943.625 112.635 943.625 113.469V277.844Z" fill="#F97316"/>
<path d="M1053.62 246.344C1053.62 252.677 1052.42 258.26 1050 263.094C1047.67 267.927 1044.33 271.969 1040 275.219C1035.67 278.469 1030.54 280.885 1024.62 282.469C1018.71 284.135 1012.29 284.969 1005.38 284.969C1001.21 284.969 997.208 284.635 993.375 283.969C989.625 283.385 986.25 282.635 983.25 281.719C980.25 280.719 977.75 279.719 975.75 278.719C973.75 277.719 972.292 276.802 971.375 275.969C970.458 275.052 969.75 273.677 969.25 271.844C968.75 269.927 968.5 267.135 968.5 263.469C968.5 261.052 968.583 259.135 968.75 257.719C968.917 256.219 969.167 255.052 969.5 254.219C969.833 253.302 970.25 252.719 970.75 252.469C971.25 252.135 971.875 251.969 972.625 251.969C973.542 251.969 974.875 252.51 976.625 253.594C978.458 254.594 980.708 255.719 983.375 256.969C986.042 258.219 989.125 259.385 992.625 260.469C996.208 261.552 1000.25 262.094 1004.75 262.094C1007.58 262.094 1010.08 261.802 1012.25 261.219C1014.5 260.635 1016.42 259.802 1018 258.719C1019.67 257.635 1020.92 256.26 1021.75 254.594C1022.58 252.927 1023 251.01 1023 248.844C1023 246.344 1022.21 244.219 1020.62 242.469C1019.12 240.635 1017.08 239.052 1014.5 237.719C1012 236.385 1009.12 235.135 1005.88 233.969C1002.71 232.802 999.417 231.51 996 230.094C992.667 228.677 989.375 227.052 986.125 225.219C982.958 223.385 980.083 221.135 977.5 218.469C975 215.802 972.958 212.594 971.375 208.844C969.875 205.094 969.125 200.594 969.125 195.344C969.125 190.01 970.167 185.135 972.25 180.719C974.333 176.219 977.333 172.385 981.25 169.219C985.167 166.052 989.917 163.594 995.5 161.844C1001.17 160.094 1007.5 159.219 1014.5 159.219C1018 159.219 1021.38 159.469 1024.62 159.969C1027.96 160.469 1030.96 161.094 1033.62 161.844C1036.29 162.594 1038.54 163.427 1040.38 164.344C1042.21 165.177 1043.5 165.927 1044.25 166.594C1045.08 167.177 1045.67 167.802 1046 168.469C1046.33 169.052 1046.58 169.802 1046.75 170.719C1046.92 171.552 1047.04 172.635 1047.12 173.969C1047.29 175.219 1047.38 176.802 1047.38 178.719C1047.38 180.969 1047.29 182.802 1047.12 184.219C1047.04 185.635 1046.83 186.76 1046.5 187.594C1046.25 188.427 1045.88 189.01 1045.38 189.344C1044.88 189.594 1044.29 189.719 1043.62 189.719C1042.88 189.719 1041.71 189.302 1040.12 188.469C1038.54 187.552 1036.54 186.594 1034.12 185.594C1031.79 184.594 1029.04 183.677 1025.88 182.844C1022.79 181.927 1019.25 181.469 1015.25 181.469C1012.42 181.469 1009.96 181.76 1007.88 182.344C1005.79 182.927 1004.08 183.76 1002.75 184.844C1001.42 185.927 1000.42 187.219 999.75 188.719C999.083 190.135 998.75 191.677 998.75 193.344C998.75 195.927 999.542 198.094 1001.12 199.844C1002.71 201.594 1004.79 203.135 1007.38 204.469C1009.96 205.802 1012.88 207.052 1016.12 208.219C1019.46 209.385 1022.79 210.677 1026.12 212.094C1029.54 213.427 1032.88 215.01 1036.12 216.844C1039.46 218.677 1042.42 220.927 1045 223.594C1047.58 226.26 1049.67 229.469 1051.25 233.219C1052.83 236.885 1053.62 241.26 1053.62 246.344Z" fill="#F97316"/>
<path d="M1180.38 218.844C1180.38 222.677 1179.5 225.51 1177.75 227.344C1176.08 229.177 1173.75 230.094 1170.75 230.094H1102.88C1102.88 234.844 1103.42 239.177 1104.5 243.094C1105.67 246.927 1107.46 250.219 1109.88 252.969C1112.38 255.635 1115.54 257.677 1119.38 259.094C1123.29 260.51 1127.96 261.219 1133.38 261.219C1138.88 261.219 1143.71 260.844 1147.88 260.094C1152.04 259.26 1155.62 258.385 1158.62 257.469C1161.71 256.469 1164.25 255.594 1166.25 254.844C1168.25 254.01 1169.88 253.594 1171.12 253.594C1171.88 253.594 1172.5 253.76 1173 254.094C1173.5 254.344 1173.92 254.844 1174.25 255.594C1174.58 256.344 1174.79 257.427 1174.88 258.844C1175.04 260.177 1175.12 261.885 1175.12 263.969C1175.12 265.802 1175.08 267.385 1175 268.719C1174.92 269.969 1174.79 271.052 1174.62 271.969C1174.46 272.885 1174.21 273.677 1173.88 274.344C1173.54 274.927 1173.08 275.51 1172.5 276.094C1172 276.677 1170.54 277.469 1168.12 278.469C1165.71 279.469 1162.62 280.469 1158.88 281.469C1155.12 282.385 1150.83 283.177 1146 283.844C1141.17 284.594 1136 284.969 1130.5 284.969C1120.58 284.969 1111.88 283.719 1104.38 281.219C1096.96 278.719 1090.75 274.927 1085.75 269.844C1080.75 264.76 1077 258.344 1074.5 250.594C1072.08 242.844 1070.88 233.76 1070.88 223.344C1070.88 213.427 1072.17 204.51 1074.75 196.594C1077.33 188.594 1081.08 181.844 1086 176.344C1090.92 170.76 1096.88 166.51 1103.88 163.594C1110.96 160.677 1118.92 159.219 1127.75 159.219C1137.08 159.219 1145.04 160.594 1151.62 163.344C1158.29 166.094 1163.75 169.927 1168 174.844C1172.25 179.677 1175.38 185.427 1177.38 192.094C1179.38 198.76 1180.38 206.01 1180.38 213.844V218.844ZM1149.88 209.844C1150.12 201.01 1148.33 194.094 1144.5 189.094C1140.75 184.01 1134.92 181.469 1127 181.469C1123 181.469 1119.5 182.219 1116.5 183.719C1113.58 185.219 1111.12 187.26 1109.12 189.844C1107.21 192.344 1105.71 195.344 1104.62 198.844C1103.62 202.26 1103.04 205.927 1102.88 209.844H1149.88Z" fill="#F97316"/>
<path d="M1378.12 257.594C1378.12 259.677 1378.04 261.469 1377.88 262.969C1377.79 264.385 1377.62 265.635 1377.38 266.719C1377.12 267.719 1376.79 268.594 1376.38 269.344C1375.96 270.094 1375.29 270.969 1374.38 271.969C1373.46 272.885 1371.67 274.094 1369 275.594C1366.42 277.094 1363.21 278.552 1359.38 279.969C1355.62 281.302 1351.29 282.427 1346.38 283.344C1341.54 284.26 1336.29 284.719 1330.62 284.719C1319.54 284.719 1309.54 283.01 1300.62 279.594C1291.71 276.177 1284.12 271.094 1277.88 264.344C1271.62 257.51 1266.83 249.01 1263.5 238.844C1260.17 228.677 1258.5 216.844 1258.5 203.344C1258.5 189.594 1260.33 177.385 1264 166.719C1267.67 156.052 1272.79 147.094 1279.38 139.844C1285.96 132.594 1293.83 127.094 1303 123.344C1312.25 119.594 1322.42 117.719 1333.5 117.719C1338 117.719 1342.33 118.094 1346.5 118.844C1350.67 119.594 1354.5 120.594 1358 121.844C1361.58 123.01 1364.79 124.385 1367.62 125.969C1370.46 127.552 1372.42 128.927 1373.5 130.094C1374.67 131.177 1375.46 132.094 1375.88 132.844C1376.29 133.594 1376.62 134.552 1376.88 135.719C1377.12 136.885 1377.29 138.26 1377.38 139.844C1377.54 141.427 1377.62 143.385 1377.62 145.719C1377.62 148.219 1377.54 150.344 1377.38 152.094C1377.21 153.844 1376.92 155.26 1376.5 156.344C1376.08 157.427 1375.58 158.219 1375 158.719C1374.42 159.219 1373.75 159.469 1373 159.469C1371.75 159.469 1370.17 158.76 1368.25 157.344C1366.33 155.844 1363.83 154.219 1360.75 152.469C1357.75 150.635 1354.12 149.01 1349.88 147.594C1345.71 146.094 1340.71 145.344 1334.88 145.344C1328.46 145.344 1322.71 146.677 1317.62 149.344C1312.62 151.927 1308.33 155.677 1304.75 160.594C1301.25 165.427 1298.58 171.302 1296.75 178.219C1294.92 185.135 1294 192.927 1294 201.594C1294 211.094 1294.96 219.344 1296.88 226.344C1298.88 233.26 1301.67 238.969 1305.25 243.469C1308.92 247.969 1313.29 251.344 1318.38 253.594C1323.54 255.76 1329.33 256.844 1335.75 256.844C1341.58 256.844 1346.62 256.177 1350.88 254.844C1355.12 253.427 1358.75 251.885 1361.75 250.219C1364.83 248.552 1367.33 247.052 1369.25 245.719C1371.25 244.385 1372.79 243.719 1373.88 243.719C1374.71 243.719 1375.38 243.885 1375.88 244.219C1376.38 244.552 1376.79 245.219 1377.12 246.219C1377.46 247.219 1377.71 248.635 1377.88 250.469C1378.04 252.219 1378.12 254.594 1378.12 257.594Z" fill="black"/>
<path d="M1512.62 220.969C1512.62 230.469 1511.38 239.135 1508.88 246.969C1506.38 254.802 1502.58 261.552 1497.5 267.219C1492.42 272.885 1486.04 277.26 1478.38 280.344C1470.71 283.427 1461.75 284.969 1451.5 284.969C1441.58 284.969 1432.96 283.594 1425.62 280.844C1418.29 278.094 1412.21 274.094 1407.38 268.844C1402.54 263.594 1398.96 257.135 1396.62 249.469C1394.29 241.802 1393.12 233.052 1393.12 223.219C1393.12 213.719 1394.38 205.052 1396.88 197.219C1399.46 189.302 1403.29 182.552 1408.38 176.969C1413.46 171.302 1419.79 166.927 1427.38 163.844C1435.04 160.76 1444 159.219 1454.25 159.219C1464.25 159.219 1472.92 160.594 1480.25 163.344C1487.58 166.01 1493.62 169.969 1498.38 175.219C1503.21 180.469 1506.79 186.927 1509.12 194.594C1511.46 202.26 1512.62 211.052 1512.62 220.969ZM1480.25 222.219C1480.25 216.719 1479.79 211.677 1478.88 207.094C1478.04 202.427 1476.58 198.385 1474.5 194.969C1472.42 191.552 1469.62 188.885 1466.12 186.969C1462.71 185.052 1458.38 184.094 1453.12 184.094C1448.46 184.094 1444.38 184.969 1440.88 186.719C1437.38 188.385 1434.5 190.885 1432.25 194.219C1430 197.469 1428.29 201.427 1427.12 206.094C1426.04 210.677 1425.5 215.927 1425.5 221.844C1425.5 227.344 1425.96 232.427 1426.88 237.094C1427.79 241.677 1429.25 245.677 1431.25 249.094C1433.33 252.51 1436.12 255.177 1439.62 257.094C1443.12 258.927 1447.46 259.844 1452.62 259.844C1457.38 259.844 1461.5 259.01 1465 257.344C1468.5 255.594 1471.38 253.094 1473.62 249.844C1475.88 246.594 1477.54 242.677 1478.62 238.094C1479.71 233.427 1480.25 228.135 1480.25 222.219Z" fill="black"/>
<path d="M1644.12 277.844C1644.12 278.677 1643.88 279.427 1643.38 280.094C1642.88 280.677 1642.04 281.177 1640.88 281.594C1639.71 282.01 1638.08 282.302 1636 282.469C1634 282.719 1631.5 282.844 1628.5 282.844C1625.42 282.844 1622.83 282.719 1620.75 282.469C1618.75 282.302 1617.17 282.01 1616 281.594C1614.83 281.177 1614 280.677 1613.5 280.094C1613 279.427 1612.75 278.677 1612.75 277.844V214.219C1612.75 208.802 1612.33 204.552 1611.5 201.469C1610.75 198.385 1609.62 195.76 1608.12 193.594C1606.62 191.344 1604.67 189.635 1602.25 188.469C1599.92 187.219 1597.17 186.594 1594 186.594C1590 186.594 1585.96 188.052 1581.88 190.969C1577.79 193.885 1573.54 198.135 1569.12 203.719V277.844C1569.12 278.677 1568.88 279.427 1568.38 280.094C1567.88 280.677 1567 281.177 1565.75 281.594C1564.58 282.01 1563 282.302 1561 282.469C1559 282.719 1556.46 282.844 1553.38 282.844C1550.29 282.844 1547.75 282.719 1545.75 282.469C1543.75 282.302 1542.12 282.01 1540.88 281.594C1539.71 281.177 1538.88 280.677 1538.38 280.094C1537.88 279.427 1537.62 278.677 1537.62 277.844V166.344C1537.62 165.51 1537.83 164.802 1538.25 164.219C1538.67 163.552 1539.42 163.01 1540.5 162.594C1541.58 162.177 1542.96 161.885 1544.62 161.719C1546.38 161.469 1548.54 161.344 1551.12 161.344C1553.79 161.344 1556 161.469 1557.75 161.719C1559.5 161.885 1560.83 162.177 1561.75 162.594C1562.75 163.01 1563.46 163.552 1563.88 164.219C1564.29 164.802 1564.5 165.51 1564.5 166.344V179.219C1570.67 172.552 1576.92 167.552 1583.25 164.219C1589.67 160.885 1596.33 159.219 1603.25 159.219C1610.83 159.219 1617.21 160.469 1622.38 162.969C1627.62 165.469 1631.83 168.885 1635 173.219C1638.25 177.469 1640.58 182.469 1642 188.219C1643.42 193.969 1644.12 200.885 1644.12 208.969V277.844Z" fill="black"/>
<path d="M1781.62 277.844C1781.62 278.677 1781.38 279.427 1780.88 280.094C1780.38 280.677 1779.54 281.177 1778.38 281.594C1777.21 282.01 1775.58 282.302 1773.5 282.469C1771.5 282.719 1769 282.844 1766 282.844C1762.92 282.844 1760.33 282.719 1758.25 282.469C1756.25 282.302 1754.67 282.01 1753.5 281.594C1752.33 281.177 1751.5 280.677 1751 280.094C1750.5 279.427 1750.25 278.677 1750.25 277.844V214.219C1750.25 208.802 1749.83 204.552 1749 201.469C1748.25 198.385 1747.12 195.76 1745.62 193.594C1744.12 191.344 1742.17 189.635 1739.75 188.469C1737.42 187.219 1734.67 186.594 1731.5 186.594C1727.5 186.594 1723.46 188.052 1719.38 190.969C1715.29 193.885 1711.04 198.135 1706.62 203.719V277.844C1706.62 278.677 1706.38 279.427 1705.88 280.094C1705.38 280.677 1704.5 281.177 1703.25 281.594C1702.08 282.01 1700.5 282.302 1698.5 282.469C1696.5 282.719 1693.96 282.844 1690.88 282.844C1687.79 282.844 1685.25 282.719 1683.25 282.469C1681.25 282.302 1679.62 282.01 1678.38 281.594C1677.21 281.177 1676.38 280.677 1675.88 280.094C1675.38 279.427 1675.12 278.677 1675.12 277.844V166.344C1675.12 165.51 1675.33 164.802 1675.75 164.219C1676.17 163.552 1676.92 163.01 1678 162.594C1679.08 162.177 1680.46 161.885 1682.12 161.719C1683.88 161.469 1686.04 161.344 1688.62 161.344C1691.29 161.344 1693.5 161.469 1695.25 161.719C1697 161.885 1698.33 162.177 1699.25 162.594C1700.25 163.01 1700.96 163.552 1701.38 164.219C1701.79 164.802 1702 165.51 1702 166.344V179.219C1708.17 172.552 1714.42 167.552 1720.75 164.219C1727.17 160.885 1733.83 159.219 1740.75 159.219C1748.33 159.219 1754.71 160.469 1759.88 162.969C1765.12 165.469 1769.33 168.885 1772.5 173.219C1775.75 177.469 1778.08 182.469 1779.5 188.219C1780.92 193.969 1781.62 200.885 1781.62 208.969V277.844Z" fill="black"/>
<path d="M1915.62 218.844C1915.62 222.677 1914.75 225.51 1913 227.344C1911.33 229.177 1909 230.094 1906 230.094H1838.12C1838.12 234.844 1838.67 239.177 1839.75 243.094C1840.92 246.927 1842.71 250.219 1845.12 252.969C1847.62 255.635 1850.79 257.677 1854.62 259.094C1858.54 260.51 1863.21 261.219 1868.62 261.219C1874.12 261.219 1878.96 260.844 1883.12 260.094C1887.29 259.26 1890.88 258.385 1893.88 257.469C1896.96 256.469 1899.5 255.594 1901.5 254.844C1903.5 254.01 1905.12 253.594 1906.38 253.594C1907.12 253.594 1907.75 253.76 1908.25 254.094C1908.75 254.344 1909.17 254.844 1909.5 255.594C1909.83 256.344 1910.04 257.427 1910.12 258.844C1910.29 260.177 1910.38 261.885 1910.38 263.969C1910.38 265.802 1910.33 267.385 1910.25 268.719C1910.17 269.969 1910.04 271.052 1909.88 271.969C1909.71 272.885 1909.46 273.677 1909.12 274.344C1908.79 274.927 1908.33 275.51 1907.75 276.094C1907.25 276.677 1905.79 277.469 1903.38 278.469C1900.96 279.469 1897.88 280.469 1894.12 281.469C1890.38 282.385 1886.08 283.177 1881.25 283.844C1876.42 284.594 1871.25 284.969 1865.75 284.969C1855.83 284.969 1847.12 283.719 1839.62 281.219C1832.21 278.719 1826 274.927 1821 269.844C1816 264.76 1812.25 258.344 1809.75 250.594C1807.33 242.844 1806.12 233.76 1806.12 223.344C1806.12 213.427 1807.42 204.51 1810 196.594C1812.58 188.594 1816.33 181.844 1821.25 176.344C1826.17 170.76 1832.12 166.51 1839.12 163.594C1846.21 160.677 1854.17 159.219 1863 159.219C1872.33 159.219 1880.29 160.594 1886.88 163.344C1893.54 166.094 1899 169.927 1903.25 174.844C1907.5 179.677 1910.62 185.427 1912.62 192.094C1914.62 198.76 1915.62 206.01 1915.62 213.844V218.844ZM1885.12 209.844C1885.38 201.01 1883.58 194.094 1879.75 189.094C1876 184.01 1870.17 181.469 1862.25 181.469C1858.25 181.469 1854.75 182.219 1851.75 183.719C1848.83 185.219 1846.38 187.26 1844.38 189.844C1842.46 192.344 1840.96 195.344 1839.88 198.844C1838.88 202.26 1838.29 205.927 1838.12 209.844H1885.12Z" fill="black"/>
<path d="M2026 260.094C2026 262.26 2025.92 264.094 2025.75 265.594C2025.67 267.01 2025.5 268.219 2025.25 269.219C2025.08 270.219 2024.83 271.052 2024.5 271.719C2024.25 272.302 2023.62 273.094 2022.62 274.094C2021.62 275.01 2019.92 276.177 2017.5 277.594C2015.08 278.927 2012.33 280.135 2009.25 281.219C2006.17 282.302 2002.79 283.177 1999.12 283.844C1995.54 284.51 1991.83 284.844 1988 284.844C1979.42 284.844 1971.79 283.51 1965.12 280.844C1958.54 278.177 1953 274.26 1948.5 269.094C1944 263.844 1940.58 257.469 1938.25 249.969C1936 242.469 1934.88 233.885 1934.88 224.219C1934.88 213.052 1936.25 203.427 1939 195.344C1941.83 187.177 1945.75 180.427 1950.75 175.094C1955.75 169.76 1961.67 165.802 1968.5 163.219C1975.33 160.635 1982.83 159.344 1991 159.344C1994.33 159.344 1997.58 159.635 2000.75 160.219C2004 160.802 2007 161.594 2009.75 162.594C2012.58 163.594 2015.08 164.719 2017.25 165.969C2019.5 167.219 2021.08 168.302 2022 169.219C2022.92 170.135 2023.54 170.927 2023.88 171.594C2024.29 172.177 2024.58 172.969 2024.75 173.969C2025 174.969 2025.17 176.219 2025.25 177.719C2025.42 179.135 2025.5 180.885 2025.5 182.969C2025.5 187.802 2025.08 191.219 2024.25 193.219C2023.42 195.135 2022.33 196.094 2021 196.094C2019.58 196.094 2018.08 195.51 2016.5 194.344C2014.92 193.177 2013.04 191.885 2010.88 190.469C2008.71 189.052 2006.12 187.76 2003.12 186.594C2000.12 185.427 1996.54 184.844 1992.38 184.844C1984.21 184.844 1977.96 188.01 1973.62 194.344C1969.29 200.594 1967.12 209.802 1967.12 221.969C1967.12 227.969 1967.67 233.26 1968.75 237.844C1969.83 242.427 1971.42 246.26 1973.5 249.344C1975.67 252.427 1978.33 254.76 1981.5 256.344C1984.75 257.844 1988.5 258.594 1992.75 258.594C1997.08 258.594 2000.79 257.969 2003.88 256.719C2007.04 255.385 2009.79 253.927 2012.12 252.344C2014.46 250.76 2016.42 249.344 2018 248.094C2019.58 246.76 2020.92 246.094 2022 246.094C2022.75 246.094 2023.38 246.302 2023.88 246.719C2024.38 247.135 2024.75 247.927 2025 249.094C2025.33 250.177 2025.58 251.594 2025.75 253.344C2025.92 255.094 2026 257.344 2026 260.094Z" fill="black"/>
<path d="M2114.88 266.844C2114.88 270.51 2114.62 273.344 2114.12 275.344C2113.71 277.26 2113.12 278.635 2112.38 279.469C2111.62 280.219 2110.5 280.927 2109 281.594C2107.58 282.177 2105.88 282.677 2103.88 283.094C2101.96 283.594 2099.83 283.969 2097.5 284.219C2095.25 284.469 2092.96 284.594 2090.62 284.594C2084.38 284.594 2078.96 283.802 2074.38 282.219C2069.79 280.635 2066 278.219 2063 274.969C2060 271.635 2057.79 267.469 2056.38 262.469C2054.96 257.469 2054.25 251.552 2054.25 244.719V187.594H2040.88C2039.29 187.594 2038.08 186.635 2037.25 184.719C2036.42 182.719 2036 179.427 2036 174.844C2036 172.427 2036.08 170.385 2036.25 168.719C2036.5 167.052 2036.83 165.76 2037.25 164.844C2037.67 163.844 2038.17 163.135 2038.75 162.719C2039.42 162.302 2040.17 162.094 2041 162.094H2054.25V137.219C2054.25 136.385 2054.46 135.635 2054.88 134.969C2055.38 134.302 2056.21 133.76 2057.38 133.344C2058.62 132.844 2060.25 132.51 2062.25 132.344C2064.33 132.094 2066.88 131.969 2069.88 131.969C2072.96 131.969 2075.5 132.094 2077.5 132.344C2079.58 132.51 2081.21 132.844 2082.38 133.344C2083.54 133.76 2084.38 134.302 2084.88 134.969C2085.38 135.635 2085.62 136.385 2085.62 137.219V162.094H2109.88C2110.71 162.094 2111.42 162.302 2112 162.719C2112.67 163.135 2113.21 163.844 2113.62 164.844C2114.04 165.76 2114.33 167.052 2114.5 168.719C2114.75 170.385 2114.88 172.427 2114.88 174.844C2114.88 179.427 2114.46 182.719 2113.62 184.719C2112.79 186.635 2111.58 187.594 2110 187.594H2085.62V239.969C2085.62 246.052 2086.58 250.635 2088.5 253.719C2090.42 256.719 2093.83 258.219 2098.75 258.219C2100.42 258.219 2101.92 258.094 2103.25 257.844C2104.58 257.51 2105.75 257.177 2106.75 256.844C2107.83 256.427 2108.71 256.094 2109.38 255.844C2110.12 255.51 2110.79 255.344 2111.38 255.344C2111.88 255.344 2112.33 255.51 2112.75 255.844C2113.25 256.094 2113.62 256.677 2113.88 257.594C2114.12 258.427 2114.33 259.594 2114.5 261.094C2114.75 262.594 2114.88 264.51 2114.88 266.844Z" fill="black"/>
<path d="M669.594 386.781C669.594 387.115 669.583 387.406 669.562 387.656C669.542 387.906 669.5 388.125 669.438 388.312C669.396 388.5 669.333 388.667 669.25 388.812C669.167 388.958 669.021 389.135 668.812 389.344C668.604 389.552 668.167 389.875 667.5 390.312C666.833 390.729 666 391.146 665 391.562C664.021 391.958 662.885 392.292 661.594 392.562C660.323 392.854 658.927 393 657.406 393C654.781 393 652.406 392.562 650.281 391.688C648.177 390.812 646.375 389.521 644.875 387.812C643.396 386.104 642.25 384 641.438 381.5C640.646 378.979 640.25 376.083 640.25 372.812C640.25 369.458 640.677 366.469 641.531 363.844C642.406 361.219 643.625 359 645.188 357.188C646.75 355.354 648.615 353.958 650.781 353C652.969 352.042 655.385 351.562 658.031 351.562C659.198 351.562 660.333 351.677 661.438 351.906C662.542 352.115 663.562 352.385 664.5 352.719C665.438 353.052 666.271 353.438 667 353.875C667.729 354.312 668.229 354.677 668.5 354.969C668.792 355.24 668.979 355.448 669.062 355.594C669.146 355.74 669.208 355.917 669.25 356.125C669.312 356.312 669.354 356.542 669.375 356.812C669.417 357.083 669.438 357.406 669.438 357.781C669.438 358.198 669.417 358.552 669.375 358.844C669.333 359.135 669.271 359.385 669.188 359.594C669.104 359.781 669 359.927 668.875 360.031C668.771 360.115 668.635 360.156 668.469 360.156C668.177 360.156 667.771 359.958 667.25 359.562C666.729 359.146 666.052 358.698 665.219 358.219C664.406 357.719 663.406 357.271 662.219 356.875C661.052 356.458 659.646 356.25 658 356.25C656.208 356.25 654.573 356.615 653.094 357.344C651.635 358.052 650.385 359.104 649.344 360.5C648.302 361.896 647.49 363.604 646.906 365.625C646.344 367.625 646.062 369.917 646.062 372.5C646.062 375.062 646.333 377.333 646.875 379.312C647.438 381.271 648.229 382.917 649.25 384.25C650.292 385.562 651.562 386.562 653.062 387.25C654.562 387.917 656.26 388.25 658.156 388.25C659.76 388.25 661.156 388.052 662.344 387.656C663.552 387.26 664.573 386.823 665.406 386.344C666.26 385.844 666.958 385.396 667.5 385C668.042 384.604 668.469 384.406 668.781 384.406C668.927 384.406 669.052 384.438 669.156 384.5C669.26 384.562 669.344 384.688 669.406 384.875C669.469 385.042 669.51 385.281 669.531 385.594C669.573 385.906 669.594 386.302 669.594 386.781Z" fill="#F97316"/>
<path d="M702.281 377.344C702.281 379.635 701.979 381.75 701.375 383.688C700.771 385.604 699.865 387.26 698.656 388.656C697.469 390.052 695.969 391.146 694.156 391.938C692.365 392.708 690.281 393.094 687.906 393.094C685.594 393.094 683.573 392.75 681.844 392.062C680.135 391.375 678.708 390.375 677.562 389.062C676.417 387.75 675.562 386.156 675 384.281C674.438 382.406 674.156 380.281 674.156 377.906C674.156 375.615 674.448 373.51 675.031 371.594C675.635 369.656 676.531 367.99 677.719 366.594C678.927 365.198 680.427 364.115 682.219 363.344C684.01 362.573 686.104 362.188 688.5 362.188C690.812 362.188 692.823 362.531 694.531 363.219C696.26 363.906 697.698 364.906 698.844 366.219C699.99 367.531 700.844 369.125 701.406 371C701.99 372.875 702.281 374.99 702.281 377.344ZM696.844 377.688C696.844 376.167 696.698 374.729 696.406 373.375C696.135 372.021 695.677 370.833 695.031 369.812C694.385 368.792 693.51 367.99 692.406 367.406C691.302 366.802 689.927 366.5 688.281 366.5C686.76 366.5 685.448 366.771 684.344 367.312C683.26 367.854 682.365 368.625 681.656 369.625C680.948 370.604 680.417 371.771 680.062 373.125C679.729 374.479 679.562 375.958 679.562 377.562C679.562 379.104 679.698 380.552 679.969 381.906C680.26 383.26 680.729 384.448 681.375 385.469C682.042 386.469 682.927 387.271 684.031 387.875C685.135 388.458 686.51 388.75 688.156 388.75C689.656 388.75 690.958 388.479 692.062 387.938C693.167 387.396 694.073 386.635 694.781 385.656C695.49 384.677 696.01 383.51 696.344 382.156C696.677 380.802 696.844 379.312 696.844 377.688Z" fill="#F97316"/>
<path d="M734.094 391.719C734.094 391.885 734.052 392.031 733.969 392.156C733.885 392.26 733.75 392.354 733.562 392.438C733.375 392.521 733.115 392.583 732.781 392.625C732.448 392.667 732.031 392.688 731.531 392.688C731.01 392.688 730.583 392.667 730.25 392.625C729.917 392.583 729.656 392.521 729.469 392.438C729.281 392.354 729.146 392.26 729.062 392.156C728.979 392.031 728.938 391.885 728.938 391.719V375.25C728.938 373.646 728.812 372.354 728.562 371.375C728.312 370.396 727.948 369.552 727.469 368.844C726.99 368.135 726.365 367.594 725.594 367.219C724.844 366.844 723.969 366.656 722.969 366.656C721.677 366.656 720.385 367.115 719.094 368.031C717.802 368.948 716.448 370.292 715.031 372.062V391.719C715.031 391.885 714.99 392.031 714.906 392.156C714.823 392.26 714.688 392.354 714.5 392.438C714.312 392.521 714.052 392.583 713.719 392.625C713.385 392.667 712.958 392.688 712.438 392.688C711.938 392.688 711.521 392.667 711.188 392.625C710.854 392.583 710.583 392.521 710.375 392.438C710.188 392.354 710.052 392.26 709.969 392.156C709.906 392.031 709.875 391.885 709.875 391.719V363.594C709.875 363.427 709.906 363.292 709.969 363.188C710.031 363.062 710.156 362.958 710.344 362.875C710.531 362.771 710.771 362.708 711.062 362.688C711.354 362.646 711.74 362.625 712.219 362.625C712.677 362.625 713.052 362.646 713.344 362.688C713.656 362.708 713.896 362.771 714.062 362.875C714.229 362.958 714.344 363.062 714.406 363.188C714.49 363.292 714.531 363.427 714.531 363.594V367.312C716.115 365.542 717.688 364.25 719.25 363.438C720.833 362.604 722.427 362.188 724.031 362.188C725.906 362.188 727.479 362.51 728.75 363.156C730.042 363.781 731.083 364.625 731.875 365.688C732.667 366.75 733.229 368 733.562 369.438C733.917 370.854 734.094 372.562 734.094 374.562V391.719Z" fill="#F97316"/>
<path d="M767.719 391.719C767.719 391.885 767.677 392.031 767.594 392.156C767.51 392.26 767.375 392.354 767.188 392.438C767 392.521 766.74 392.583 766.406 392.625C766.073 392.667 765.656 392.688 765.156 392.688C764.635 392.688 764.208 392.667 763.875 392.625C763.542 392.583 763.281 392.521 763.094 392.438C762.906 392.354 762.771 392.26 762.688 392.156C762.604 392.031 762.562 391.885 762.562 391.719V375.25C762.562 373.646 762.438 372.354 762.188 371.375C761.938 370.396 761.573 369.552 761.094 368.844C760.615 368.135 759.99 367.594 759.219 367.219C758.469 366.844 757.594 366.656 756.594 366.656C755.302 366.656 754.01 367.115 752.719 368.031C751.427 368.948 750.073 370.292 748.656 372.062V391.719C748.656 391.885 748.615 392.031 748.531 392.156C748.448 392.26 748.312 392.354 748.125 392.438C747.938 392.521 747.677 392.583 747.344 392.625C747.01 392.667 746.583 392.688 746.062 392.688C745.562 392.688 745.146 392.667 744.812 392.625C744.479 392.583 744.208 392.521 744 392.438C743.812 392.354 743.677 392.26 743.594 392.156C743.531 392.031 743.5 391.885 743.5 391.719V363.594C743.5 363.427 743.531 363.292 743.594 363.188C743.656 363.062 743.781 362.958 743.969 362.875C744.156 362.771 744.396 362.708 744.688 362.688C744.979 362.646 745.365 362.625 745.844 362.625C746.302 362.625 746.677 362.646 746.969 362.688C747.281 362.708 747.521 362.771 747.688 362.875C747.854 362.958 747.969 363.062 748.031 363.188C748.115 363.292 748.156 363.427 748.156 363.594V367.312C749.74 365.542 751.312 364.25 752.875 363.438C754.458 362.604 756.052 362.188 757.656 362.188C759.531 362.188 761.104 362.51 762.375 363.156C763.667 363.781 764.708 364.625 765.5 365.688C766.292 366.75 766.854 368 767.188 369.438C767.542 370.854 767.719 372.562 767.719 374.562V391.719Z" fill="#F97316"/>
<path d="M801.125 376.438C801.125 377.25 800.917 377.833 800.5 378.188C800.104 378.521 799.646 378.688 799.125 378.688H780.688C780.688 380.25 780.844 381.656 781.156 382.906C781.469 384.156 781.99 385.229 782.719 386.125C783.448 387.021 784.396 387.708 785.562 388.188C786.729 388.667 788.156 388.906 789.844 388.906C791.177 388.906 792.365 388.802 793.406 388.594C794.448 388.365 795.344 388.115 796.094 387.844C796.865 387.573 797.49 387.333 797.969 387.125C798.469 386.896 798.844 386.781 799.094 386.781C799.24 386.781 799.365 386.823 799.469 386.906C799.594 386.969 799.688 387.073 799.75 387.219C799.812 387.365 799.854 387.573 799.875 387.844C799.917 388.094 799.938 388.406 799.938 388.781C799.938 389.052 799.927 389.292 799.906 389.5C799.885 389.688 799.854 389.865 799.812 390.031C799.792 390.177 799.74 390.312 799.656 390.438C799.594 390.562 799.5 390.688 799.375 390.812C799.271 390.917 798.938 391.104 798.375 391.375C797.812 391.625 797.083 391.875 796.188 392.125C795.292 392.375 794.25 392.594 793.062 392.781C791.896 392.99 790.646 393.094 789.312 393.094C787 393.094 784.969 392.771 783.219 392.125C781.49 391.479 780.031 390.521 778.844 389.25C777.656 387.979 776.76 386.385 776.156 384.469C775.552 382.552 775.25 380.323 775.25 377.781C775.25 375.365 775.562 373.198 776.188 371.281C776.812 369.344 777.708 367.708 778.875 366.375C780.062 365.021 781.49 363.99 783.156 363.281C784.823 362.552 786.688 362.188 788.75 362.188C790.958 362.188 792.833 362.542 794.375 363.25C795.938 363.958 797.219 364.917 798.219 366.125C799.219 367.312 799.948 368.719 800.406 370.344C800.885 371.948 801.125 373.667 801.125 375.5V376.438ZM795.938 374.906C796 372.198 795.396 370.073 794.125 368.531C792.875 366.99 791.01 366.219 788.531 366.219C787.26 366.219 786.146 366.458 785.188 366.938C784.229 367.417 783.427 368.052 782.781 368.844C782.135 369.635 781.635 370.562 781.281 371.625C780.927 372.667 780.729 373.76 780.688 374.906H795.938Z" fill="#F97316"/>
<path d="M829.219 387.438C829.219 387.792 829.208 388.104 829.188 388.375C829.167 388.625 829.125 388.844 829.062 389.031C829.021 389.198 828.958 389.354 828.875 389.5C828.812 389.625 828.646 389.823 828.375 390.094C828.125 390.344 827.688 390.667 827.062 391.062C826.438 391.438 825.729 391.781 824.938 392.094C824.167 392.385 823.323 392.625 822.406 392.812C821.49 393 820.542 393.094 819.562 393.094C817.542 393.094 815.75 392.76 814.188 392.094C812.625 391.427 811.312 390.458 810.25 389.188C809.208 387.896 808.406 386.323 807.844 384.469C807.302 382.594 807.031 380.438 807.031 378C807.031 375.229 807.365 372.854 808.031 370.875C808.719 368.875 809.646 367.24 810.812 365.969C812 364.698 813.385 363.76 814.969 363.156C816.573 362.531 818.302 362.219 820.156 362.219C821.052 362.219 821.917 362.302 822.75 362.469C823.604 362.635 824.385 362.854 825.094 363.125C825.802 363.396 826.427 363.708 826.969 364.062C827.531 364.417 827.938 364.719 828.188 364.969C828.438 365.219 828.604 365.417 828.688 365.562C828.792 365.708 828.875 365.885 828.938 366.094C829 366.281 829.042 366.5 829.062 366.75C829.083 367 829.094 367.312 829.094 367.688C829.094 368.5 829 369.073 828.812 369.406C828.625 369.719 828.396 369.875 828.125 369.875C827.812 369.875 827.448 369.708 827.031 369.375C826.635 369.021 826.125 368.635 825.5 368.219C824.875 367.802 824.115 367.427 823.219 367.094C822.344 366.74 821.302 366.562 820.094 366.562C817.615 366.562 815.708 367.521 814.375 369.438C813.062 371.333 812.406 374.094 812.406 377.719C812.406 379.531 812.573 381.125 812.906 382.5C813.26 383.854 813.771 384.99 814.438 385.906C815.104 386.823 815.917 387.51 816.875 387.969C817.854 388.406 818.969 388.625 820.219 388.625C821.406 388.625 822.448 388.438 823.344 388.062C824.24 387.688 825.01 387.281 825.656 386.844C826.323 386.385 826.875 385.979 827.312 385.625C827.771 385.25 828.125 385.062 828.375 385.062C828.521 385.062 828.646 385.104 828.75 385.188C828.854 385.271 828.938 385.417 829 385.625C829.083 385.812 829.135 386.062 829.156 386.375C829.198 386.667 829.219 387.021 829.219 387.438Z" fill="#F97316"/>
<path d="M860.531 362.781C861.156 362.781 861.583 362.927 861.812 363.219C862.042 363.49 862.156 363.896 862.156 364.438V391.719C862.156 391.885 862.115 392.031 862.031 392.156C861.948 392.26 861.802 392.354 861.594 392.438C861.406 392.521 861.146 392.583 860.812 392.625C860.479 392.667 860.073 392.688 859.594 392.688C859.073 392.688 858.646 392.667 858.312 392.625C857.979 392.583 857.708 392.521 857.5 392.438C857.312 392.354 857.177 392.26 857.094 392.156C857.01 392.031 856.969 391.885 856.969 391.719V367.062H842.438V382.75C842.438 384.688 842.719 386.156 843.281 387.156C843.865 388.135 844.896 388.625 846.375 388.625C846.854 388.625 847.281 388.583 847.656 388.5C848.031 388.396 848.365 388.292 848.656 388.188C848.948 388.083 849.198 387.99 849.406 387.906C849.615 387.802 849.802 387.75 849.969 387.75C850.073 387.75 850.167 387.781 850.25 387.844C850.354 387.885 850.427 387.979 850.469 388.125C850.531 388.271 850.583 388.469 850.625 388.719C850.667 388.969 850.688 389.281 850.688 389.656C850.688 390.26 850.646 390.74 850.562 391.094C850.479 391.427 850.354 391.688 850.188 391.875C850.021 392.042 849.771 392.198 849.438 392.344C849.104 392.49 848.719 392.604 848.281 392.688C847.865 392.792 847.417 392.875 846.938 392.938C846.458 393 845.979 393.031 845.5 393.031C844.042 393.031 842.792 392.844 841.75 392.469C840.708 392.073 839.854 391.49 839.188 390.719C838.521 389.927 838.031 388.938 837.719 387.75C837.427 386.542 837.281 385.125 837.281 383.5V367.062H833.344C833.031 367.062 832.781 366.896 832.594 366.562C832.406 366.229 832.312 365.688 832.312 364.938C832.312 364.542 832.333 364.208 832.375 363.938C832.438 363.667 832.51 363.448 832.594 363.281C832.677 363.094 832.781 362.969 832.906 362.906C833.052 362.823 833.208 362.781 833.375 362.781H837.281V356.094C837.281 355.948 837.312 355.812 837.375 355.688C837.458 355.562 837.594 355.458 837.781 355.375C837.99 355.271 838.26 355.198 838.594 355.156C838.927 355.115 839.344 355.094 839.844 355.094C840.365 355.094 840.792 355.115 841.125 355.156C841.458 355.198 841.719 355.271 841.906 355.375C842.094 355.458 842.229 355.562 842.312 355.688C842.396 355.812 842.438 355.948 842.438 356.094V362.781H860.531ZM862.75 354.094C862.75 355.302 862.521 356.125 862.062 356.562C861.604 357 860.76 357.219 859.531 357.219C858.323 357.219 857.49 357.01 857.031 356.594C856.594 356.156 856.375 355.344 856.375 354.156C856.375 352.948 856.604 352.125 857.062 351.688C857.521 351.25 858.365 351.031 859.594 351.031C860.802 351.031 861.625 351.25 862.062 351.688C862.521 352.104 862.75 352.906 862.75 354.094Z" fill="#F97316"/>
<path d="M895.969 391.719C895.969 391.885 895.927 392.031 895.844 392.156C895.76 392.26 895.625 392.354 895.438 392.438C895.25 392.521 894.99 392.583 894.656 392.625C894.323 392.667 893.906 392.688 893.406 392.688C892.885 392.688 892.458 392.667 892.125 392.625C891.792 392.583 891.531 392.521 891.344 392.438C891.156 392.354 891.021 392.26 890.938 392.156C890.854 392.031 890.812 391.885 890.812 391.719V375.25C890.812 373.646 890.688 372.354 890.438 371.375C890.188 370.396 889.823 369.552 889.344 368.844C888.865 368.135 888.24 367.594 887.469 367.219C886.719 366.844 885.844 366.656 884.844 366.656C883.552 366.656 882.26 367.115 880.969 368.031C879.677 368.948 878.323 370.292 876.906 372.062V391.719C876.906 391.885 876.865 392.031 876.781 392.156C876.698 392.26 876.562 392.354 876.375 392.438C876.188 392.521 875.927 392.583 875.594 392.625C875.26 392.667 874.833 392.688 874.312 392.688C873.812 392.688 873.396 392.667 873.062 392.625C872.729 392.583 872.458 392.521 872.25 392.438C872.062 392.354 871.927 392.26 871.844 392.156C871.781 392.031 871.75 391.885 871.75 391.719V363.594C871.75 363.427 871.781 363.292 871.844 363.188C871.906 363.062 872.031 362.958 872.219 362.875C872.406 362.771 872.646 362.708 872.938 362.688C873.229 362.646 873.615 362.625 874.094 362.625C874.552 362.625 874.927 362.646 875.219 362.688C875.531 362.708 875.771 362.771 875.938 362.875C876.104 362.958 876.219 363.062 876.281 363.188C876.365 363.292 876.406 363.427 876.406 363.594V367.312C877.99 365.542 879.562 364.25 881.125 363.438C882.708 362.604 884.302 362.188 885.906 362.188C887.781 362.188 889.354 362.51 890.625 363.156C891.917 363.781 892.958 364.625 893.75 365.688C894.542 366.75 895.104 368 895.438 369.438C895.792 370.854 895.969 372.562 895.969 374.562V391.719Z" fill="#F97316"/>
<path d="M928.875 364.875C928.875 365.604 928.771 366.135 928.562 366.469C928.375 366.781 928.125 366.938 927.812 366.938H923.781C924.51 367.688 925.021 368.521 925.312 369.438C925.604 370.333 925.75 371.271 925.75 372.25C925.75 373.875 925.49 375.312 924.969 376.562C924.448 377.812 923.698 378.875 922.719 379.75C921.76 380.604 920.615 381.26 919.281 381.719C917.948 382.177 916.469 382.406 914.844 382.406C913.698 382.406 912.604 382.26 911.562 381.969C910.542 381.656 909.75 381.271 909.188 380.812C908.812 381.188 908.5 381.615 908.25 382.094C908.021 382.573 907.906 383.125 907.906 383.75C907.906 384.479 908.24 385.083 908.906 385.562C909.594 386.042 910.5 386.302 911.625 386.344L918.969 386.656C920.365 386.698 921.646 386.896 922.812 387.25C923.979 387.583 924.99 388.073 925.844 388.719C926.698 389.344 927.365 390.125 927.844 391.062C928.323 391.979 928.562 393.052 928.562 394.281C928.562 395.573 928.292 396.802 927.75 397.969C927.208 399.135 926.375 400.156 925.25 401.031C924.146 401.927 922.729 402.625 921 403.125C919.271 403.646 917.229 403.906 914.875 403.906C912.604 403.906 910.667 403.708 909.062 403.312C907.479 402.938 906.177 402.417 905.156 401.75C904.135 401.083 903.396 400.281 902.938 399.344C902.479 398.427 902.25 397.427 902.25 396.344C902.25 395.656 902.333 394.99 902.5 394.344C902.667 393.698 902.917 393.083 903.25 392.5C903.604 391.917 904.031 391.365 904.531 390.844C905.052 390.302 905.646 389.771 906.312 389.25C905.292 388.729 904.531 388.073 904.031 387.281C903.552 386.49 903.312 385.635 903.312 384.719C903.312 383.448 903.573 382.312 904.094 381.312C904.615 380.312 905.26 379.417 906.031 378.625C905.385 377.854 904.875 376.99 904.5 376.031C904.125 375.052 903.938 373.875 903.938 372.5C903.938 370.896 904.208 369.458 904.75 368.188C905.292 366.917 906.042 365.844 907 364.969C907.958 364.094 909.104 363.427 910.438 362.969C911.792 362.49 913.26 362.25 914.844 362.25C915.698 362.25 916.49 362.302 917.219 362.406C917.969 362.49 918.667 362.615 919.312 362.781H927.812C928.167 362.781 928.427 362.958 928.594 363.312C928.781 363.646 928.875 364.167 928.875 364.875ZM920.812 372.281C920.812 370.365 920.281 368.875 919.219 367.812C918.177 366.729 916.688 366.188 914.75 366.188C913.75 366.188 912.875 366.354 912.125 366.688C911.396 367.021 910.781 367.479 910.281 368.062C909.802 368.646 909.438 369.323 909.188 370.094C908.958 370.844 908.844 371.635 908.844 372.469C908.844 374.323 909.365 375.781 910.406 376.844C911.469 377.906 912.948 378.438 914.844 378.438C915.865 378.438 916.75 378.281 917.5 377.969C918.25 377.635 918.865 377.188 919.344 376.625C919.844 376.042 920.208 375.375 920.438 374.625C920.688 373.875 920.812 373.094 920.812 372.281ZM923.406 394.562C923.406 393.354 922.906 392.427 921.906 391.781C920.927 391.115 919.594 390.76 917.906 390.719L910.625 390.469C909.958 390.99 909.406 391.49 908.969 391.969C908.552 392.427 908.219 392.865 907.969 393.281C907.719 393.719 907.542 394.146 907.438 394.562C907.354 394.979 907.312 395.406 907.312 395.844C907.312 397.198 908 398.219 909.375 398.906C910.75 399.615 912.667 399.969 915.125 399.969C916.688 399.969 917.99 399.812 919.031 399.5C920.094 399.208 920.948 398.812 921.594 398.312C922.24 397.812 922.698 397.24 922.969 396.594C923.26 395.948 923.406 395.271 923.406 394.562Z" fill="#F97316"/>
<path d="M994.562 391.688C994.562 391.854 994.521 392 994.438 392.125C994.354 392.25 994.208 392.354 994 392.438C993.792 392.5 993.521 392.552 993.188 392.594C992.875 392.656 992.458 392.688 991.938 392.688C991.458 392.688 991.042 392.656 990.688 392.594C990.354 392.552 990.083 392.5 989.875 392.438C989.688 392.354 989.552 392.25 989.469 392.125C989.385 392 989.344 391.854 989.344 391.688V356.469H989.281L974.875 391.844C974.812 391.99 974.719 392.115 974.594 392.219C974.49 392.323 974.323 392.417 974.094 392.5C973.885 392.562 973.625 392.604 973.312 392.625C973.021 392.667 972.667 392.688 972.25 392.688C971.812 392.688 971.438 392.667 971.125 392.625C970.812 392.583 970.552 392.531 970.344 392.469C970.135 392.385 969.969 392.292 969.844 392.188C969.74 392.083 969.667 391.969 969.625 391.844L955.844 356.469H955.812V391.688C955.812 391.854 955.771 392 955.688 392.125C955.604 392.25 955.458 392.354 955.25 392.438C955.042 392.5 954.771 392.552 954.438 392.594C954.104 392.656 953.677 392.688 953.156 392.688C952.656 392.688 952.24 392.656 951.906 392.594C951.573 392.552 951.302 392.5 951.094 392.438C950.906 392.354 950.771 392.25 950.688 392.125C950.625 392 950.594 391.854 950.594 391.688V354.5C950.594 353.625 950.823 353 951.281 352.625C951.74 352.25 952.25 352.062 952.812 352.062H956.062C956.729 352.062 957.312 352.125 957.812 352.25C958.312 352.375 958.75 352.573 959.125 352.844C959.5 353.115 959.812 353.458 960.062 353.875C960.312 354.292 960.531 354.781 960.719 355.344L972.438 384.625H972.594L984.781 355.438C985.01 354.812 985.26 354.281 985.531 353.844C985.802 353.406 986.094 353.062 986.406 352.812C986.74 352.542 987.104 352.354 987.5 352.25C987.896 352.125 988.354 352.062 988.875 352.062H992.281C992.594 352.062 992.885 352.115 993.156 352.219C993.448 352.302 993.688 352.448 993.875 352.656C994.083 352.844 994.25 353.094 994.375 353.406C994.5 353.698 994.562 354.062 994.562 354.5V391.688Z" fill="#F97316"/>
<path d="M1009.91 391.719C1009.91 391.885 1009.86 392.031 1009.78 392.156C1009.7 392.26 1009.56 392.354 1009.38 392.438C1009.19 392.521 1008.93 392.583 1008.59 392.625C1008.26 392.667 1007.83 392.688 1007.31 392.688C1006.81 392.688 1006.4 392.667 1006.06 392.625C1005.73 392.583 1005.46 392.521 1005.25 392.438C1005.06 392.354 1004.93 392.26 1004.84 392.156C1004.78 392.031 1004.75 391.885 1004.75 391.719V363.594C1004.75 363.448 1004.78 363.312 1004.84 363.188C1004.93 363.062 1005.06 362.958 1005.25 362.875C1005.46 362.792 1005.73 362.729 1006.06 362.688C1006.4 362.646 1006.81 362.625 1007.31 362.625C1007.83 362.625 1008.26 362.646 1008.59 362.688C1008.93 362.729 1009.19 362.792 1009.38 362.875C1009.56 362.958 1009.7 363.062 1009.78 363.188C1009.86 363.312 1009.91 363.448 1009.91 363.594V391.719ZM1010.5 354.094C1010.5 355.302 1010.27 356.125 1009.81 356.562C1009.35 357 1008.51 357.219 1007.28 357.219C1006.07 357.219 1005.24 357.01 1004.78 356.594C1004.34 356.156 1004.12 355.344 1004.12 354.156C1004.12 352.948 1004.35 352.125 1004.81 351.688C1005.27 351.25 1006.11 351.031 1007.34 351.031C1008.55 351.031 1009.38 351.25 1009.81 351.688C1010.27 352.104 1010.5 352.906 1010.5 354.094Z" fill="#F97316"/>
<path d="M1043.66 391.719C1043.66 391.885 1043.61 392.031 1043.53 392.156C1043.45 392.26 1043.31 392.354 1043.12 392.438C1042.94 392.521 1042.68 392.583 1042.34 392.625C1042.01 392.667 1041.59 392.688 1041.09 392.688C1040.57 392.688 1040.15 392.667 1039.81 392.625C1039.48 392.583 1039.22 392.521 1039.03 392.438C1038.84 392.354 1038.71 392.26 1038.62 392.156C1038.54 392.031 1038.5 391.885 1038.5 391.719V375.25C1038.5 373.646 1038.38 372.354 1038.12 371.375C1037.88 370.396 1037.51 369.552 1037.03 368.844C1036.55 368.135 1035.93 367.594 1035.16 367.219C1034.41 366.844 1033.53 366.656 1032.53 366.656C1031.24 366.656 1029.95 367.115 1028.66 368.031C1027.36 368.948 1026.01 370.292 1024.59 372.062V391.719C1024.59 391.885 1024.55 392.031 1024.47 392.156C1024.39 392.26 1024.25 392.354 1024.06 392.438C1023.88 392.521 1023.61 392.583 1023.28 392.625C1022.95 392.667 1022.52 392.688 1022 392.688C1021.5 392.688 1021.08 392.667 1020.75 392.625C1020.42 392.583 1020.15 392.521 1019.94 392.438C1019.75 392.354 1019.61 392.26 1019.53 392.156C1019.47 392.031 1019.44 391.885 1019.44 391.719V363.594C1019.44 363.427 1019.47 363.292 1019.53 363.188C1019.59 363.062 1019.72 362.958 1019.91 362.875C1020.09 362.771 1020.33 362.708 1020.62 362.688C1020.92 362.646 1021.3 362.625 1021.78 362.625C1022.24 362.625 1022.61 362.646 1022.91 362.688C1023.22 362.708 1023.46 362.771 1023.62 362.875C1023.79 362.958 1023.91 363.062 1023.97 363.188C1024.05 363.292 1024.09 363.427 1024.09 363.594V367.312C1025.68 365.542 1027.25 364.25 1028.81 363.438C1030.4 362.604 1031.99 362.188 1033.59 362.188C1035.47 362.188 1037.04 362.51 1038.31 363.156C1039.6 363.781 1040.65 364.625 1041.44 365.688C1042.23 366.75 1042.79 368 1043.12 369.438C1043.48 370.854 1043.66 372.562 1043.66 374.562V391.719Z" fill="#F97316"/>
<path d="M1077.16 391.719C1077.16 391.885 1077.11 392.031 1077.03 392.156C1076.97 392.281 1076.84 392.385 1076.66 392.469C1076.49 392.531 1076.26 392.583 1075.97 392.625C1075.68 392.667 1075.32 392.688 1074.91 392.688C1074.47 392.688 1074.1 392.667 1073.81 392.625C1073.52 392.583 1073.28 392.531 1073.09 392.469C1072.91 392.385 1072.77 392.281 1072.69 392.156C1072.6 392.031 1072.56 391.885 1072.56 391.719V388C1071.08 389.604 1069.54 390.854 1067.94 391.75C1066.35 392.646 1064.61 393.094 1062.72 393.094C1060.66 393.094 1058.9 392.698 1057.44 391.906C1055.98 391.094 1054.79 390.01 1053.88 388.656C1052.98 387.281 1052.32 385.677 1051.91 383.844C1051.49 381.99 1051.28 380.042 1051.28 378C1051.28 375.583 1051.54 373.406 1052.06 371.469C1052.58 369.51 1053.35 367.844 1054.38 366.469C1055.4 365.094 1056.66 364.042 1058.16 363.312C1059.68 362.562 1061.43 362.188 1063.41 362.188C1065.05 362.188 1066.55 362.552 1067.91 363.281C1069.28 363.99 1070.64 365.042 1071.97 366.438V350.094C1071.97 349.948 1072 349.812 1072.06 349.688C1072.15 349.542 1072.29 349.438 1072.5 349.375C1072.71 349.292 1072.97 349.229 1073.28 349.188C1073.61 349.125 1074.03 349.094 1074.53 349.094C1075.05 349.094 1075.48 349.125 1075.81 349.188C1076.15 349.229 1076.41 349.292 1076.59 349.375C1076.78 349.438 1076.92 349.542 1077 349.688C1077.1 349.812 1077.16 349.948 1077.16 350.094V391.719ZM1071.97 371.938C1070.57 370.208 1069.22 368.896 1067.91 368C1066.61 367.083 1065.26 366.625 1063.84 366.625C1062.53 366.625 1061.42 366.938 1060.5 367.562C1059.58 368.188 1058.83 369.01 1058.25 370.031C1057.69 371.052 1057.27 372.208 1057 373.5C1056.75 374.792 1056.62 376.104 1056.62 377.438C1056.62 378.854 1056.73 380.24 1056.94 381.594C1057.17 382.948 1057.55 384.156 1058.09 385.219C1058.64 386.26 1059.35 387.104 1060.25 387.75C1061.15 388.375 1062.27 388.688 1063.62 388.688C1064.31 388.688 1064.97 388.594 1065.59 388.406C1066.24 388.219 1066.9 387.906 1067.56 387.469C1068.23 387.031 1068.93 386.469 1069.66 385.781C1070.39 385.073 1071.16 384.208 1071.97 383.188V371.938Z" fill="#F97316"/>
<path d="M1104.34 384.062C1104.34 385.5 1104.07 386.781 1103.53 387.906C1103.01 389.031 1102.26 389.979 1101.28 390.75C1100.3 391.521 1099.14 392.104 1097.78 392.5C1096.43 392.896 1094.94 393.094 1093.31 393.094C1092.31 393.094 1091.35 393.01 1090.44 392.844C1089.54 392.698 1088.73 392.51 1088 392.281C1087.29 392.031 1086.69 391.781 1086.19 391.531C1085.69 391.26 1085.32 391.021 1085.09 390.812C1084.86 390.604 1084.7 390.312 1084.59 389.938C1084.49 389.562 1084.44 389.052 1084.44 388.406C1084.44 388.01 1084.46 387.677 1084.5 387.406C1084.54 387.135 1084.59 386.917 1084.66 386.75C1084.72 386.583 1084.8 386.469 1084.91 386.406C1085.03 386.323 1085.17 386.281 1085.31 386.281C1085.54 386.281 1085.88 386.427 1086.31 386.719C1086.77 386.99 1087.32 387.292 1087.97 387.625C1088.64 387.958 1089.42 388.271 1090.31 388.562C1091.21 388.833 1092.24 388.969 1093.41 388.969C1094.28 388.969 1095.07 388.875 1095.78 388.688C1096.49 388.5 1097.1 388.229 1097.62 387.875C1098.15 387.5 1098.54 387.031 1098.81 386.469C1099.1 385.906 1099.25 385.24 1099.25 384.469C1099.25 383.677 1099.04 383.01 1098.62 382.469C1098.23 381.927 1097.7 381.448 1097.03 381.031C1096.36 380.615 1095.61 380.25 1094.78 379.938C1093.95 379.604 1093.08 379.26 1092.19 378.906C1091.31 378.552 1090.45 378.156 1089.59 377.719C1088.76 377.26 1088.01 376.708 1087.34 376.062C1086.68 375.417 1086.14 374.646 1085.72 373.75C1085.32 372.854 1085.12 371.781 1085.12 370.531C1085.12 369.427 1085.33 368.375 1085.75 367.375C1086.19 366.354 1086.83 365.469 1087.69 364.719C1088.54 363.948 1089.6 363.333 1090.88 362.875C1092.17 362.417 1093.67 362.188 1095.38 362.188C1096.12 362.188 1096.88 362.25 1097.62 362.375C1098.38 362.5 1099.05 362.656 1099.66 362.844C1100.26 363.031 1100.77 363.24 1101.19 363.469C1101.62 363.677 1101.95 363.865 1102.16 364.031C1102.39 364.198 1102.53 364.344 1102.59 364.469C1102.68 364.594 1102.73 364.74 1102.75 364.906C1102.79 365.052 1102.82 365.24 1102.84 365.469C1102.89 365.698 1102.91 365.979 1102.91 366.312C1102.91 366.667 1102.89 366.979 1102.84 367.25C1102.82 367.5 1102.77 367.708 1102.69 367.875C1102.62 368.042 1102.54 368.167 1102.44 368.25C1102.33 368.312 1102.22 368.344 1102.09 368.344C1101.91 368.344 1101.64 368.229 1101.28 368C1100.93 367.771 1100.47 367.531 1099.91 367.281C1099.34 367.01 1098.68 366.76 1097.91 366.531C1097.16 366.302 1096.29 366.188 1095.31 366.188C1094.44 366.188 1093.67 366.292 1093 366.5C1092.33 366.688 1091.78 366.969 1091.34 367.344C1090.93 367.698 1090.6 368.125 1090.38 368.625C1090.17 369.125 1090.06 369.667 1090.06 370.25C1090.06 371.062 1090.27 371.75 1090.69 372.312C1091.1 372.854 1091.65 373.333 1092.31 373.75C1092.98 374.167 1093.74 374.542 1094.59 374.875C1095.45 375.208 1096.31 375.552 1097.19 375.906C1098.08 376.26 1098.96 376.656 1099.81 377.094C1100.69 377.531 1101.46 378.062 1102.12 378.688C1102.79 379.312 1103.32 380.062 1103.72 380.938C1104.14 381.812 1104.34 382.854 1104.34 384.062Z" fill="#F97316"/>
<path d="M1118.56 388.031C1118.56 388.677 1118.53 389.271 1118.47 389.812C1118.41 390.354 1118.3 390.865 1118.16 391.344C1118.01 391.823 1117.81 392.292 1117.56 392.75C1117.33 393.229 1117.04 393.729 1116.69 394.25L1112.41 400.688C1112.3 400.833 1112.18 400.958 1112.03 401.062C1111.91 401.167 1111.74 401.26 1111.53 401.344C1111.34 401.427 1111.11 401.479 1110.84 401.5C1110.59 401.542 1110.27 401.562 1109.88 401.562C1109.52 401.562 1109.22 401.542 1108.97 401.5C1108.74 401.479 1108.57 401.427 1108.47 401.344C1108.36 401.281 1108.3 401.188 1108.28 401.062C1108.28 400.938 1108.32 400.792 1108.41 400.625L1112.56 392.031V388.031C1112.56 387.469 1112.61 387.021 1112.72 386.688C1112.84 386.354 1113.03 386.104 1113.28 385.938C1113.53 385.771 1113.84 385.656 1114.22 385.594C1114.59 385.531 1115.05 385.5 1115.59 385.5C1116.11 385.5 1116.56 385.531 1116.94 385.594C1117.31 385.656 1117.61 385.771 1117.84 385.938C1118.09 386.104 1118.27 386.354 1118.38 386.688C1118.5 387.021 1118.56 387.469 1118.56 388.031Z" fill="black"/>
<path d="M1169.5 380.906C1169.5 382.177 1169.33 383.354 1169 384.438C1168.69 385.5 1168.24 386.458 1167.66 387.312C1167.07 388.167 1166.36 388.917 1165.53 389.562C1164.72 390.208 1163.79 390.75 1162.75 391.188C1161.73 391.625 1160.62 391.958 1159.44 392.188C1158.27 392.396 1156.93 392.5 1155.41 392.5H1144.84C1144.36 392.5 1143.91 392.344 1143.47 392.031C1143.05 391.698 1142.84 391.125 1142.84 390.312V354.25C1142.84 353.438 1143.05 352.875 1143.47 352.562C1143.91 352.229 1144.36 352.062 1144.84 352.062H1154.03C1156.45 352.062 1158.43 352.292 1159.97 352.75C1161.51 353.208 1162.79 353.875 1163.81 354.75C1164.85 355.625 1165.64 356.698 1166.16 357.969C1166.68 359.24 1166.94 360.677 1166.94 362.281C1166.94 363.24 1166.82 364.156 1166.59 365.031C1166.36 365.906 1166.02 366.719 1165.56 367.469C1165.12 368.198 1164.56 368.854 1163.88 369.438C1163.21 370.021 1162.44 370.5 1161.56 370.875C1162.67 371.083 1163.7 371.469 1164.66 372.031C1165.61 372.573 1166.45 373.271 1167.16 374.125C1167.89 374.979 1168.46 375.979 1168.88 377.125C1169.29 378.271 1169.5 379.531 1169.5 380.906ZM1161.41 362.812C1161.41 361.833 1161.27 360.948 1161 360.156C1160.73 359.365 1160.3 358.698 1159.72 358.156C1159.14 357.594 1158.38 357.167 1157.44 356.875C1156.5 356.583 1155.26 356.438 1153.72 356.438H1148.16V369.531H1154.28C1155.68 369.531 1156.8 369.354 1157.66 369C1158.51 368.625 1159.22 368.135 1159.78 367.531C1160.34 366.906 1160.75 366.188 1161 365.375C1161.27 364.542 1161.41 363.688 1161.41 362.812ZM1163.84 381.219C1163.84 380.01 1163.65 378.948 1163.25 378.031C1162.88 377.115 1162.31 376.344 1161.56 375.719C1160.83 375.094 1159.91 374.625 1158.78 374.312C1157.68 373.979 1156.28 373.812 1154.59 373.812H1148.16V388.062H1155.97C1157.2 388.062 1158.27 387.917 1159.19 387.625C1160.1 387.333 1160.91 386.906 1161.59 386.344C1162.3 385.76 1162.85 385.042 1163.25 384.188C1163.65 383.333 1163.84 382.344 1163.84 381.219Z" fill="black"/>
<path d="M1201.16 391.719C1201.16 391.885 1201.11 392.031 1201.03 392.156C1200.97 392.26 1200.84 392.354 1200.66 392.438C1200.47 392.521 1200.22 392.583 1199.91 392.625C1199.61 392.667 1199.25 392.688 1198.81 392.688C1198.33 392.688 1197.94 392.667 1197.62 392.625C1197.33 392.583 1197.09 392.521 1196.91 392.438C1196.74 392.354 1196.62 392.26 1196.56 392.156C1196.5 392.031 1196.47 391.885 1196.47 391.719V388C1194.86 389.771 1193.28 391.062 1191.72 391.875C1190.16 392.688 1188.57 393.094 1186.97 393.094C1185.09 393.094 1183.51 392.781 1182.22 392.156C1180.95 391.531 1179.92 390.688 1179.12 389.625C1178.33 388.542 1177.76 387.292 1177.41 385.875C1177.07 384.438 1176.91 382.698 1176.91 380.656V363.594C1176.91 363.427 1176.94 363.292 1177 363.188C1177.08 363.062 1177.23 362.958 1177.44 362.875C1177.65 362.771 1177.92 362.708 1178.25 362.688C1178.58 362.646 1179 362.625 1179.5 362.625C1180 362.625 1180.42 362.646 1180.75 362.688C1181.08 362.708 1181.34 362.771 1181.53 362.875C1181.74 362.958 1181.89 363.062 1181.97 363.188C1182.05 363.292 1182.09 363.427 1182.09 363.594V379.969C1182.09 381.615 1182.21 382.938 1182.44 383.938C1182.69 384.917 1183.05 385.76 1183.53 386.469C1184.03 387.156 1184.66 387.698 1185.41 388.094C1186.16 388.469 1187.03 388.656 1188.03 388.656C1189.32 388.656 1190.6 388.198 1191.88 387.281C1193.17 386.365 1194.53 385.021 1195.97 383.25V363.594C1195.97 363.427 1196 363.292 1196.06 363.188C1196.15 363.062 1196.29 362.958 1196.5 362.875C1196.71 362.771 1196.97 362.708 1197.28 362.688C1197.61 362.646 1198.04 362.625 1198.56 362.625C1199.06 362.625 1199.48 362.646 1199.81 362.688C1200.15 362.708 1200.41 362.771 1200.59 362.875C1200.78 362.958 1200.92 363.062 1201 363.188C1201.1 363.292 1201.16 363.427 1201.16 363.594V391.719Z" fill="black"/>
<path d="M1215.84 391.719C1215.84 391.885 1215.8 392.031 1215.72 392.156C1215.64 392.26 1215.5 392.354 1215.31 392.438C1215.12 392.521 1214.86 392.583 1214.53 392.625C1214.2 392.667 1213.77 392.688 1213.25 392.688C1212.75 392.688 1212.33 392.667 1212 392.625C1211.67 392.583 1211.4 392.521 1211.19 392.438C1211 392.354 1210.86 392.26 1210.78 392.156C1210.72 392.031 1210.69 391.885 1210.69 391.719V363.594C1210.69 363.448 1210.72 363.312 1210.78 363.188C1210.86 363.062 1211 362.958 1211.19 362.875C1211.4 362.792 1211.67 362.729 1212 362.688C1212.33 362.646 1212.75 362.625 1213.25 362.625C1213.77 362.625 1214.2 362.646 1214.53 362.688C1214.86 362.729 1215.12 362.792 1215.31 362.875C1215.5 362.958 1215.64 363.062 1215.72 363.188C1215.8 363.312 1215.84 363.448 1215.84 363.594V391.719ZM1216.44 354.094C1216.44 355.302 1216.21 356.125 1215.75 356.562C1215.29 357 1214.45 357.219 1213.22 357.219C1212.01 357.219 1211.18 357.01 1210.72 356.594C1210.28 356.156 1210.06 355.344 1210.06 354.156C1210.06 352.948 1210.29 352.125 1210.75 351.688C1211.21 351.25 1212.05 351.031 1213.28 351.031C1214.49 351.031 1215.31 351.25 1215.75 351.688C1216.21 352.104 1216.44 352.906 1216.44 354.094Z" fill="black"/>
<path d="M1230.53 391.719C1230.53 391.885 1230.49 392.031 1230.41 392.156C1230.32 392.26 1230.19 392.354 1230 392.438C1229.81 392.521 1229.55 392.583 1229.22 392.625C1228.89 392.667 1228.46 392.688 1227.94 392.688C1227.44 392.688 1227.02 392.667 1226.69 392.625C1226.35 392.583 1226.08 392.521 1225.88 392.438C1225.69 392.354 1225.55 392.26 1225.47 392.156C1225.41 392.031 1225.38 391.885 1225.38 391.719V349.969C1225.38 349.802 1225.41 349.656 1225.47 349.531C1225.55 349.406 1225.69 349.302 1225.88 349.219C1226.08 349.135 1226.35 349.073 1226.69 349.031C1227.02 348.99 1227.44 348.969 1227.94 348.969C1228.46 348.969 1228.89 348.99 1229.22 349.031C1229.55 349.073 1229.81 349.135 1230 349.219C1230.19 349.302 1230.32 349.406 1230.41 349.531C1230.49 349.656 1230.53 349.802 1230.53 349.969V391.719Z" fill="black"/>
<path d="M1264.16 391.719C1264.16 391.885 1264.11 392.031 1264.03 392.156C1263.97 392.281 1263.84 392.385 1263.66 392.469C1263.49 392.531 1263.26 392.583 1262.97 392.625C1262.68 392.667 1262.32 392.688 1261.91 392.688C1261.47 392.688 1261.1 392.667 1260.81 392.625C1260.52 392.583 1260.28 392.531 1260.09 392.469C1259.91 392.385 1259.77 392.281 1259.69 392.156C1259.6 392.031 1259.56 391.885 1259.56 391.719V388C1258.08 389.604 1256.54 390.854 1254.94 391.75C1253.35 392.646 1251.61 393.094 1249.72 393.094C1247.66 393.094 1245.9 392.698 1244.44 391.906C1242.98 391.094 1241.79 390.01 1240.88 388.656C1239.98 387.281 1239.32 385.677 1238.91 383.844C1238.49 381.99 1238.28 380.042 1238.28 378C1238.28 375.583 1238.54 373.406 1239.06 371.469C1239.58 369.51 1240.35 367.844 1241.38 366.469C1242.4 365.094 1243.66 364.042 1245.16 363.312C1246.68 362.562 1248.43 362.188 1250.41 362.188C1252.05 362.188 1253.55 362.552 1254.91 363.281C1256.28 363.99 1257.64 365.042 1258.97 366.438V350.094C1258.97 349.948 1259 349.812 1259.06 349.688C1259.15 349.542 1259.29 349.438 1259.5 349.375C1259.71 349.292 1259.97 349.229 1260.28 349.188C1260.61 349.125 1261.03 349.094 1261.53 349.094C1262.05 349.094 1262.48 349.125 1262.81 349.188C1263.15 349.229 1263.41 349.292 1263.59 349.375C1263.78 349.438 1263.92 349.542 1264 349.688C1264.1 349.812 1264.16 349.948 1264.16 350.094V391.719ZM1258.97 371.938C1257.57 370.208 1256.22 368.896 1254.91 368C1253.61 367.083 1252.26 366.625 1250.84 366.625C1249.53 366.625 1248.42 366.938 1247.5 367.562C1246.58 368.188 1245.83 369.01 1245.25 370.031C1244.69 371.052 1244.27 372.208 1244 373.5C1243.75 374.792 1243.62 376.104 1243.62 377.438C1243.62 378.854 1243.73 380.24 1243.94 381.594C1244.17 382.948 1244.55 384.156 1245.09 385.219C1245.64 386.26 1246.35 387.104 1247.25 387.75C1248.15 388.375 1249.27 388.688 1250.62 388.688C1251.31 388.688 1251.97 388.594 1252.59 388.406C1253.24 388.219 1253.9 387.906 1254.56 387.469C1255.23 387.031 1255.93 386.469 1256.66 385.781C1257.39 385.073 1258.16 384.208 1258.97 383.188V371.938Z" fill="black"/>
<path d="M1278.84 391.719C1278.84 391.885 1278.8 392.031 1278.72 392.156C1278.64 392.26 1278.5 392.354 1278.31 392.438C1278.12 392.521 1277.86 392.583 1277.53 392.625C1277.2 392.667 1276.77 392.688 1276.25 392.688C1275.75 392.688 1275.33 392.667 1275 392.625C1274.67 392.583 1274.4 392.521 1274.19 392.438C1274 392.354 1273.86 392.26 1273.78 392.156C1273.72 392.031 1273.69 391.885 1273.69 391.719V363.594C1273.69 363.448 1273.72 363.312 1273.78 363.188C1273.86 363.062 1274 362.958 1274.19 362.875C1274.4 362.792 1274.67 362.729 1275 362.688C1275.33 362.646 1275.75 362.625 1276.25 362.625C1276.77 362.625 1277.2 362.646 1277.53 362.688C1277.86 362.729 1278.12 362.792 1278.31 362.875C1278.5 362.958 1278.64 363.062 1278.72 363.188C1278.8 363.312 1278.84 363.448 1278.84 363.594V391.719ZM1279.44 354.094C1279.44 355.302 1279.21 356.125 1278.75 356.562C1278.29 357 1277.45 357.219 1276.22 357.219C1275.01 357.219 1274.18 357.01 1273.72 356.594C1273.28 356.156 1273.06 355.344 1273.06 354.156C1273.06 352.948 1273.29 352.125 1273.75 351.688C1274.21 351.25 1275.05 351.031 1276.28 351.031C1277.49 351.031 1278.31 351.25 1278.75 351.688C1279.21 352.104 1279.44 352.906 1279.44 354.094Z" fill="black"/>
<path d="M1312.59 391.719C1312.59 391.885 1312.55 392.031 1312.47 392.156C1312.39 392.26 1312.25 392.354 1312.06 392.438C1311.88 392.521 1311.61 392.583 1311.28 392.625C1310.95 392.667 1310.53 392.688 1310.03 392.688C1309.51 392.688 1309.08 392.667 1308.75 392.625C1308.42 392.583 1308.16 392.521 1307.97 392.438C1307.78 392.354 1307.65 392.26 1307.56 392.156C1307.48 392.031 1307.44 391.885 1307.44 391.719V375.25C1307.44 373.646 1307.31 372.354 1307.06 371.375C1306.81 370.396 1306.45 369.552 1305.97 368.844C1305.49 368.135 1304.86 367.594 1304.09 367.219C1303.34 366.844 1302.47 366.656 1301.47 366.656C1300.18 366.656 1298.89 367.115 1297.59 368.031C1296.3 368.948 1294.95 370.292 1293.53 372.062V391.719C1293.53 391.885 1293.49 392.031 1293.41 392.156C1293.32 392.26 1293.19 392.354 1293 392.438C1292.81 392.521 1292.55 392.583 1292.22 392.625C1291.89 392.667 1291.46 392.688 1290.94 392.688C1290.44 392.688 1290.02 392.667 1289.69 392.625C1289.35 392.583 1289.08 392.521 1288.88 392.438C1288.69 392.354 1288.55 392.26 1288.47 392.156C1288.41 392.031 1288.38 391.885 1288.38 391.719V363.594C1288.38 363.427 1288.41 363.292 1288.47 363.188C1288.53 363.062 1288.66 362.958 1288.84 362.875C1289.03 362.771 1289.27 362.708 1289.56 362.688C1289.85 362.646 1290.24 362.625 1290.72 362.625C1291.18 362.625 1291.55 362.646 1291.84 362.688C1292.16 362.708 1292.4 362.771 1292.56 362.875C1292.73 362.958 1292.84 363.062 1292.91 363.188C1292.99 363.292 1293.03 363.427 1293.03 363.594V367.312C1294.61 365.542 1296.19 364.25 1297.75 363.438C1299.33 362.604 1300.93 362.188 1302.53 362.188C1304.41 362.188 1305.98 362.51 1307.25 363.156C1308.54 363.781 1309.58 364.625 1310.38 365.688C1311.17 366.75 1311.73 368 1312.06 369.438C1312.42 370.854 1312.59 372.562 1312.59 374.562V391.719Z" fill="black"/>
<path d="M1345.5 364.875C1345.5 365.604 1345.4 366.135 1345.19 366.469C1345 366.781 1344.75 366.938 1344.44 366.938H1340.41C1341.14 367.688 1341.65 368.521 1341.94 369.438C1342.23 370.333 1342.38 371.271 1342.38 372.25C1342.38 373.875 1342.11 375.312 1341.59 376.562C1341.07 377.812 1340.32 378.875 1339.34 379.75C1338.39 380.604 1337.24 381.26 1335.91 381.719C1334.57 382.177 1333.09 382.406 1331.47 382.406C1330.32 382.406 1329.23 382.26 1328.19 381.969C1327.17 381.656 1326.38 381.271 1325.81 380.812C1325.44 381.188 1325.12 381.615 1324.88 382.094C1324.65 382.573 1324.53 383.125 1324.53 383.75C1324.53 384.479 1324.86 385.083 1325.53 385.562C1326.22 386.042 1327.12 386.302 1328.25 386.344L1335.59 386.656C1336.99 386.698 1338.27 386.896 1339.44 387.25C1340.6 387.583 1341.61 388.073 1342.47 388.719C1343.32 389.344 1343.99 390.125 1344.47 391.062C1344.95 391.979 1345.19 393.052 1345.19 394.281C1345.19 395.573 1344.92 396.802 1344.38 397.969C1343.83 399.135 1343 400.156 1341.88 401.031C1340.77 401.927 1339.35 402.625 1337.62 403.125C1335.9 403.646 1333.85 403.906 1331.5 403.906C1329.23 403.906 1327.29 403.708 1325.69 403.312C1324.1 402.938 1322.8 402.417 1321.78 401.75C1320.76 401.083 1320.02 400.281 1319.56 399.344C1319.1 398.427 1318.88 397.427 1318.88 396.344C1318.88 395.656 1318.96 394.99 1319.12 394.344C1319.29 393.698 1319.54 393.083 1319.88 392.5C1320.23 391.917 1320.66 391.365 1321.16 390.844C1321.68 390.302 1322.27 389.771 1322.94 389.25C1321.92 388.729 1321.16 388.073 1320.66 387.281C1320.18 386.49 1319.94 385.635 1319.94 384.719C1319.94 383.448 1320.2 382.312 1320.72 381.312C1321.24 380.312 1321.89 379.417 1322.66 378.625C1322.01 377.854 1321.5 376.99 1321.12 376.031C1320.75 375.052 1320.56 373.875 1320.56 372.5C1320.56 370.896 1320.83 369.458 1321.38 368.188C1321.92 366.917 1322.67 365.844 1323.62 364.969C1324.58 364.094 1325.73 363.427 1327.06 362.969C1328.42 362.49 1329.89 362.25 1331.47 362.25C1332.32 362.25 1333.11 362.302 1333.84 362.406C1334.59 362.49 1335.29 362.615 1335.94 362.781H1344.44C1344.79 362.781 1345.05 362.958 1345.22 363.312C1345.41 363.646 1345.5 364.167 1345.5 364.875ZM1337.44 372.281C1337.44 370.365 1336.91 368.875 1335.84 367.812C1334.8 366.729 1333.31 366.188 1331.38 366.188C1330.38 366.188 1329.5 366.354 1328.75 366.688C1328.02 367.021 1327.41 367.479 1326.91 368.062C1326.43 368.646 1326.06 369.323 1325.81 370.094C1325.58 370.844 1325.47 371.635 1325.47 372.469C1325.47 374.323 1325.99 375.781 1327.03 376.844C1328.09 377.906 1329.57 378.438 1331.47 378.438C1332.49 378.438 1333.38 378.281 1334.12 377.969C1334.88 377.635 1335.49 377.188 1335.97 376.625C1336.47 376.042 1336.83 375.375 1337.06 374.625C1337.31 373.875 1337.44 373.094 1337.44 372.281ZM1340.03 394.562C1340.03 393.354 1339.53 392.427 1338.53 391.781C1337.55 391.115 1336.22 390.76 1334.53 390.719L1327.25 390.469C1326.58 390.99 1326.03 391.49 1325.59 391.969C1325.18 392.427 1324.84 392.865 1324.59 393.281C1324.34 393.719 1324.17 394.146 1324.06 394.562C1323.98 394.979 1323.94 395.406 1323.94 395.844C1323.94 397.198 1324.62 398.219 1326 398.906C1327.38 399.615 1329.29 399.969 1331.75 399.969C1333.31 399.969 1334.61 399.812 1335.66 399.5C1336.72 399.208 1337.57 398.812 1338.22 398.312C1338.86 397.812 1339.32 397.24 1339.59 396.594C1339.89 395.948 1340.03 395.271 1340.03 394.562Z" fill="black"/>
<path d="M1393.88 380.906C1393.88 382.177 1393.71 383.354 1393.38 384.438C1393.06 385.5 1392.61 386.458 1392.03 387.312C1391.45 388.167 1390.74 388.917 1389.91 389.562C1389.09 390.208 1388.17 390.75 1387.12 391.188C1386.1 391.625 1385 391.958 1383.81 392.188C1382.65 392.396 1381.3 392.5 1379.78 392.5H1369.22C1368.74 392.5 1368.28 392.344 1367.84 392.031C1367.43 391.698 1367.22 391.125 1367.22 390.312V354.25C1367.22 353.438 1367.43 352.875 1367.84 352.562C1368.28 352.229 1368.74 352.062 1369.22 352.062H1378.41C1380.82 352.062 1382.8 352.292 1384.34 352.75C1385.89 353.208 1387.17 353.875 1388.19 354.75C1389.23 355.625 1390.01 356.698 1390.53 357.969C1391.05 359.24 1391.31 360.677 1391.31 362.281C1391.31 363.24 1391.2 364.156 1390.97 365.031C1390.74 365.906 1390.4 366.719 1389.94 367.469C1389.5 368.198 1388.94 368.854 1388.25 369.438C1387.58 370.021 1386.81 370.5 1385.94 370.875C1387.04 371.083 1388.07 371.469 1389.03 372.031C1389.99 372.573 1390.82 373.271 1391.53 374.125C1392.26 374.979 1392.83 375.979 1393.25 377.125C1393.67 378.271 1393.88 379.531 1393.88 380.906ZM1385.78 362.812C1385.78 361.833 1385.65 360.948 1385.38 360.156C1385.1 359.365 1384.68 358.698 1384.09 358.156C1383.51 357.594 1382.75 357.167 1381.81 356.875C1380.88 356.583 1379.64 356.438 1378.09 356.438H1372.53V369.531H1378.66C1380.05 369.531 1381.18 369.354 1382.03 369C1382.89 368.625 1383.59 368.135 1384.16 367.531C1384.72 366.906 1385.12 366.188 1385.38 365.375C1385.65 364.542 1385.78 363.688 1385.78 362.812ZM1388.22 381.219C1388.22 380.01 1388.02 378.948 1387.62 378.031C1387.25 377.115 1386.69 376.344 1385.94 375.719C1385.21 375.094 1384.28 374.625 1383.16 374.312C1382.05 373.979 1380.66 373.812 1378.97 373.812H1372.53V388.062H1380.34C1381.57 388.062 1382.65 387.917 1383.56 387.625C1384.48 387.333 1385.28 386.906 1385.97 386.344C1386.68 385.76 1387.23 385.042 1387.62 384.188C1388.02 383.333 1388.22 382.344 1388.22 381.219Z" fill="black"/>
<path d="M1417.88 365.438C1417.88 365.896 1417.86 366.281 1417.84 366.594C1417.82 366.906 1417.78 367.156 1417.72 367.344C1417.66 367.51 1417.57 367.646 1417.47 367.75C1417.39 367.833 1417.26 367.875 1417.09 367.875C1416.93 367.875 1416.72 367.833 1416.47 367.75C1416.24 367.646 1415.97 367.552 1415.66 367.469C1415.36 367.365 1415.03 367.271 1414.66 367.188C1414.28 367.104 1413.88 367.062 1413.44 367.062C1412.92 367.062 1412.41 367.167 1411.91 367.375C1411.41 367.583 1410.88 367.927 1410.31 368.406C1409.77 368.885 1409.2 369.521 1408.59 370.312C1407.99 371.104 1407.32 372.073 1406.59 373.219V391.719C1406.59 391.885 1406.55 392.031 1406.47 392.156C1406.39 392.26 1406.25 392.354 1406.06 392.438C1405.88 392.521 1405.61 392.583 1405.28 392.625C1404.95 392.667 1404.52 392.688 1404 392.688C1403.5 392.688 1403.08 392.667 1402.75 392.625C1402.42 392.583 1402.15 392.521 1401.94 392.438C1401.75 392.354 1401.61 392.26 1401.53 392.156C1401.47 392.031 1401.44 391.885 1401.44 391.719V363.594C1401.44 363.427 1401.47 363.292 1401.53 363.188C1401.59 363.062 1401.72 362.958 1401.91 362.875C1402.09 362.771 1402.33 362.708 1402.62 362.688C1402.92 362.646 1403.3 362.625 1403.78 362.625C1404.24 362.625 1404.61 362.646 1404.91 362.688C1405.22 362.708 1405.46 362.771 1405.62 362.875C1405.79 362.958 1405.91 363.062 1405.97 363.188C1406.05 363.292 1406.09 363.427 1406.09 363.594V367.688C1406.86 366.562 1407.58 365.646 1408.25 364.938C1408.94 364.229 1409.58 363.677 1410.19 363.281C1410.79 362.865 1411.39 362.583 1411.97 362.438C1412.57 362.271 1413.18 362.188 1413.78 362.188C1414.05 362.188 1414.35 362.208 1414.69 362.25C1415.04 362.271 1415.41 362.323 1415.78 362.406C1416.16 362.49 1416.49 362.583 1416.78 362.688C1417.09 362.792 1417.31 362.896 1417.44 363C1417.56 363.104 1417.65 363.208 1417.69 363.312C1417.73 363.396 1417.76 363.51 1417.78 363.656C1417.82 363.802 1417.84 364.021 1417.84 364.312C1417.86 364.583 1417.88 364.958 1417.88 365.438Z" fill="black"/>
<path d="M1428.91 391.719C1428.91 391.885 1428.86 392.031 1428.78 392.156C1428.7 392.26 1428.56 392.354 1428.38 392.438C1428.19 392.521 1427.93 392.583 1427.59 392.625C1427.26 392.667 1426.83 392.688 1426.31 392.688C1425.81 392.688 1425.4 392.667 1425.06 392.625C1424.73 392.583 1424.46 392.521 1424.25 392.438C1424.06 392.354 1423.93 392.26 1423.84 392.156C1423.78 392.031 1423.75 391.885 1423.75 391.719V363.594C1423.75 363.448 1423.78 363.312 1423.84 363.188C1423.93 363.062 1424.06 362.958 1424.25 362.875C1424.46 362.792 1424.73 362.729 1425.06 362.688C1425.4 362.646 1425.81 362.625 1426.31 362.625C1426.83 362.625 1427.26 362.646 1427.59 362.688C1427.93 362.729 1428.19 362.792 1428.38 362.875C1428.56 362.958 1428.7 363.062 1428.78 363.188C1428.86 363.312 1428.91 363.448 1428.91 363.594V391.719ZM1429.5 354.094C1429.5 355.302 1429.27 356.125 1428.81 356.562C1428.35 357 1427.51 357.219 1426.28 357.219C1425.07 357.219 1424.24 357.01 1423.78 356.594C1423.34 356.156 1423.12 355.344 1423.12 354.156C1423.12 352.948 1423.35 352.125 1423.81 351.688C1424.27 351.25 1425.11 351.031 1426.34 351.031C1427.55 351.031 1428.38 351.25 1428.81 351.688C1429.27 352.104 1429.5 352.906 1429.5 354.094Z" fill="black"/>
<path d="M1462.53 391.719C1462.53 391.885 1462.49 392.031 1462.41 392.156C1462.34 392.281 1462.22 392.385 1462.03 392.469C1461.86 392.531 1461.64 392.583 1461.34 392.625C1461.05 392.667 1460.7 392.688 1460.28 392.688C1459.84 392.688 1459.48 392.667 1459.19 392.625C1458.9 392.583 1458.66 392.531 1458.47 392.469C1458.28 392.385 1458.15 392.281 1458.06 392.156C1457.98 392.031 1457.94 391.885 1457.94 391.719V388C1456.46 389.604 1454.92 390.854 1453.31 391.75C1451.73 392.646 1449.99 393.094 1448.09 393.094C1446.03 393.094 1444.27 392.698 1442.81 391.906C1441.35 391.094 1440.17 390.01 1439.25 388.656C1438.35 387.281 1437.7 385.677 1437.28 383.844C1436.86 381.99 1436.66 380.042 1436.66 378C1436.66 375.583 1436.92 373.406 1437.44 371.469C1437.96 369.51 1438.73 367.844 1439.75 366.469C1440.77 365.094 1442.03 364.042 1443.53 363.312C1445.05 362.562 1446.8 362.188 1448.78 362.188C1450.43 362.188 1451.93 362.552 1453.28 363.281C1454.66 363.99 1456.01 365.042 1457.34 366.438V350.094C1457.34 349.948 1457.38 349.812 1457.44 349.688C1457.52 349.542 1457.67 349.438 1457.88 349.375C1458.08 349.292 1458.34 349.229 1458.66 349.188C1458.99 349.125 1459.41 349.094 1459.91 349.094C1460.43 349.094 1460.85 349.125 1461.19 349.188C1461.52 349.229 1461.78 349.292 1461.97 349.375C1462.16 349.438 1462.29 349.542 1462.38 349.688C1462.48 349.812 1462.53 349.948 1462.53 350.094V391.719ZM1457.34 371.938C1455.95 370.208 1454.59 368.896 1453.28 368C1451.99 367.083 1450.64 366.625 1449.22 366.625C1447.91 366.625 1446.79 366.938 1445.88 367.562C1444.96 368.188 1444.21 369.01 1443.62 370.031C1443.06 371.052 1442.65 372.208 1442.38 373.5C1442.12 374.792 1442 376.104 1442 377.438C1442 378.854 1442.1 380.24 1442.31 381.594C1442.54 382.948 1442.93 384.156 1443.47 385.219C1444.01 386.26 1444.73 387.104 1445.62 387.75C1446.52 388.375 1447.65 388.688 1449 388.688C1449.69 388.688 1450.34 388.594 1450.97 388.406C1451.61 388.219 1452.27 387.906 1452.94 387.469C1453.6 387.031 1454.3 386.469 1455.03 385.781C1455.76 385.073 1456.53 384.208 1457.34 383.188V371.938Z" fill="black"/>
<path d="M1495.56 364.875C1495.56 365.604 1495.46 366.135 1495.25 366.469C1495.06 366.781 1494.81 366.938 1494.5 366.938H1490.47C1491.2 367.688 1491.71 368.521 1492 369.438C1492.29 370.333 1492.44 371.271 1492.44 372.25C1492.44 373.875 1492.18 375.312 1491.66 376.562C1491.14 377.812 1490.39 378.875 1489.41 379.75C1488.45 380.604 1487.3 381.26 1485.97 381.719C1484.64 382.177 1483.16 382.406 1481.53 382.406C1480.39 382.406 1479.29 382.26 1478.25 381.969C1477.23 381.656 1476.44 381.271 1475.88 380.812C1475.5 381.188 1475.19 381.615 1474.94 382.094C1474.71 382.573 1474.59 383.125 1474.59 383.75C1474.59 384.479 1474.93 385.083 1475.59 385.562C1476.28 386.042 1477.19 386.302 1478.31 386.344L1485.66 386.656C1487.05 386.698 1488.33 386.896 1489.5 387.25C1490.67 387.583 1491.68 388.073 1492.53 388.719C1493.39 389.344 1494.05 390.125 1494.53 391.062C1495.01 391.979 1495.25 393.052 1495.25 394.281C1495.25 395.573 1494.98 396.802 1494.44 397.969C1493.9 399.135 1493.06 400.156 1491.94 401.031C1490.83 401.927 1489.42 402.625 1487.69 403.125C1485.96 403.646 1483.92 403.906 1481.56 403.906C1479.29 403.906 1477.35 403.708 1475.75 403.312C1474.17 402.938 1472.86 402.417 1471.84 401.75C1470.82 401.083 1470.08 400.281 1469.62 399.344C1469.17 398.427 1468.94 397.427 1468.94 396.344C1468.94 395.656 1469.02 394.99 1469.19 394.344C1469.35 393.698 1469.6 393.083 1469.94 392.5C1470.29 391.917 1470.72 391.365 1471.22 390.844C1471.74 390.302 1472.33 389.771 1473 389.25C1471.98 388.729 1471.22 388.073 1470.72 387.281C1470.24 386.49 1470 385.635 1470 384.719C1470 383.448 1470.26 382.312 1470.78 381.312C1471.3 380.312 1471.95 379.417 1472.72 378.625C1472.07 377.854 1471.56 376.99 1471.19 376.031C1470.81 375.052 1470.62 373.875 1470.62 372.5C1470.62 370.896 1470.9 369.458 1471.44 368.188C1471.98 366.917 1472.73 365.844 1473.69 364.969C1474.65 364.094 1475.79 363.427 1477.12 362.969C1478.48 362.49 1479.95 362.25 1481.53 362.25C1482.39 362.25 1483.18 362.302 1483.91 362.406C1484.66 362.49 1485.35 362.615 1486 362.781H1494.5C1494.85 362.781 1495.11 362.958 1495.28 363.312C1495.47 363.646 1495.56 364.167 1495.56 364.875ZM1487.5 372.281C1487.5 370.365 1486.97 368.875 1485.91 367.812C1484.86 366.729 1483.38 366.188 1481.44 366.188C1480.44 366.188 1479.56 366.354 1478.81 366.688C1478.08 367.021 1477.47 367.479 1476.97 368.062C1476.49 368.646 1476.12 369.323 1475.88 370.094C1475.65 370.844 1475.53 371.635 1475.53 372.469C1475.53 374.323 1476.05 375.781 1477.09 376.844C1478.16 377.906 1479.64 378.438 1481.53 378.438C1482.55 378.438 1483.44 378.281 1484.19 377.969C1484.94 377.635 1485.55 377.188 1486.03 376.625C1486.53 376.042 1486.9 375.375 1487.12 374.625C1487.38 373.875 1487.5 373.094 1487.5 372.281ZM1490.09 394.562C1490.09 393.354 1489.59 392.427 1488.59 391.781C1487.61 391.115 1486.28 390.76 1484.59 390.719L1477.31 390.469C1476.65 390.99 1476.09 391.49 1475.66 391.969C1475.24 392.427 1474.91 392.865 1474.66 393.281C1474.41 393.719 1474.23 394.146 1474.12 394.562C1474.04 394.979 1474 395.406 1474 395.844C1474 397.198 1474.69 398.219 1476.06 398.906C1477.44 399.615 1479.35 399.969 1481.81 399.969C1483.38 399.969 1484.68 399.812 1485.72 399.5C1486.78 399.208 1487.64 398.812 1488.28 398.312C1488.93 397.812 1489.39 397.24 1489.66 396.594C1489.95 395.948 1490.09 395.271 1490.09 394.562Z" fill="black"/>
<path d="M1525.62 376.438C1525.62 377.25 1525.42 377.833 1525 378.188C1524.6 378.521 1524.15 378.688 1523.62 378.688H1505.19C1505.19 380.25 1505.34 381.656 1505.66 382.906C1505.97 384.156 1506.49 385.229 1507.22 386.125C1507.95 387.021 1508.9 387.708 1510.06 388.188C1511.23 388.667 1512.66 388.906 1514.34 388.906C1515.68 388.906 1516.86 388.802 1517.91 388.594C1518.95 388.365 1519.84 388.115 1520.59 387.844C1521.36 387.573 1521.99 387.333 1522.47 387.125C1522.97 386.896 1523.34 386.781 1523.59 386.781C1523.74 386.781 1523.86 386.823 1523.97 386.906C1524.09 386.969 1524.19 387.073 1524.25 387.219C1524.31 387.365 1524.35 387.573 1524.38 387.844C1524.42 388.094 1524.44 388.406 1524.44 388.781C1524.44 389.052 1524.43 389.292 1524.41 389.5C1524.39 389.688 1524.35 389.865 1524.31 390.031C1524.29 390.177 1524.24 390.312 1524.16 390.438C1524.09 390.562 1524 390.688 1523.88 390.812C1523.77 390.917 1523.44 391.104 1522.88 391.375C1522.31 391.625 1521.58 391.875 1520.69 392.125C1519.79 392.375 1518.75 392.594 1517.56 392.781C1516.4 392.99 1515.15 393.094 1513.81 393.094C1511.5 393.094 1509.47 392.771 1507.72 392.125C1505.99 391.479 1504.53 390.521 1503.34 389.25C1502.16 387.979 1501.26 386.385 1500.66 384.469C1500.05 382.552 1499.75 380.323 1499.75 377.781C1499.75 375.365 1500.06 373.198 1500.69 371.281C1501.31 369.344 1502.21 367.708 1503.38 366.375C1504.56 365.021 1505.99 363.99 1507.66 363.281C1509.32 362.552 1511.19 362.188 1513.25 362.188C1515.46 362.188 1517.33 362.542 1518.88 363.25C1520.44 363.958 1521.72 364.917 1522.72 366.125C1523.72 367.312 1524.45 368.719 1524.91 370.344C1525.39 371.948 1525.62 373.667 1525.62 375.5V376.438ZM1520.44 374.906C1520.5 372.198 1519.9 370.073 1518.62 368.531C1517.38 366.99 1515.51 366.219 1513.03 366.219C1511.76 366.219 1510.65 366.458 1509.69 366.938C1508.73 367.417 1507.93 368.052 1507.28 368.844C1506.64 369.635 1506.14 370.562 1505.78 371.625C1505.43 372.667 1505.23 373.76 1505.19 374.906H1520.44Z" fill="black"/>
<path d="M1551.16 384.062C1551.16 385.5 1550.89 386.781 1550.34 387.906C1549.82 389.031 1549.07 389.979 1548.09 390.75C1547.11 391.521 1545.95 392.104 1544.59 392.5C1543.24 392.896 1541.75 393.094 1540.12 393.094C1539.12 393.094 1538.17 393.01 1537.25 392.844C1536.35 392.698 1535.54 392.51 1534.81 392.281C1534.1 392.031 1533.5 391.781 1533 391.531C1532.5 391.26 1532.14 391.021 1531.91 390.812C1531.68 390.604 1531.51 390.312 1531.41 389.938C1531.3 389.562 1531.25 389.052 1531.25 388.406C1531.25 388.01 1531.27 387.677 1531.31 387.406C1531.35 387.135 1531.41 386.917 1531.47 386.75C1531.53 386.583 1531.61 386.469 1531.72 386.406C1531.84 386.323 1531.98 386.281 1532.12 386.281C1532.35 386.281 1532.69 386.427 1533.12 386.719C1533.58 386.99 1534.14 387.292 1534.78 387.625C1535.45 387.958 1536.23 388.271 1537.12 388.562C1538.02 388.833 1539.05 388.969 1540.22 388.969C1541.09 388.969 1541.89 388.875 1542.59 388.688C1543.3 388.5 1543.92 388.229 1544.44 387.875C1544.96 387.5 1545.35 387.031 1545.62 386.469C1545.92 385.906 1546.06 385.24 1546.06 384.469C1546.06 383.677 1545.85 383.01 1545.44 382.469C1545.04 381.927 1544.51 381.448 1543.84 381.031C1543.18 380.615 1542.43 380.25 1541.59 379.938C1540.76 379.604 1539.9 379.26 1539 378.906C1538.12 378.552 1537.26 378.156 1536.41 377.719C1535.57 377.26 1534.82 376.708 1534.16 376.062C1533.49 375.417 1532.95 374.646 1532.53 373.75C1532.14 372.854 1531.94 371.781 1531.94 370.531C1531.94 369.427 1532.15 368.375 1532.56 367.375C1533 366.354 1533.65 365.469 1534.5 364.719C1535.35 363.948 1536.42 363.333 1537.69 362.875C1538.98 362.417 1540.48 362.188 1542.19 362.188C1542.94 362.188 1543.69 362.25 1544.44 362.375C1545.19 362.5 1545.86 362.656 1546.47 362.844C1547.07 363.031 1547.58 363.24 1548 363.469C1548.44 363.677 1548.76 363.865 1548.97 364.031C1549.2 364.198 1549.34 364.344 1549.41 364.469C1549.49 364.594 1549.54 364.74 1549.56 364.906C1549.6 365.052 1549.64 365.24 1549.66 365.469C1549.7 365.698 1549.72 365.979 1549.72 366.312C1549.72 366.667 1549.7 366.979 1549.66 367.25C1549.64 367.5 1549.58 367.708 1549.5 367.875C1549.44 368.042 1549.35 368.167 1549.25 368.25C1549.15 368.312 1549.03 368.344 1548.91 368.344C1548.72 368.344 1548.45 368.229 1548.09 368C1547.74 367.771 1547.28 367.531 1546.72 367.281C1546.16 367.01 1545.49 366.76 1544.72 366.531C1543.97 366.302 1543.1 366.188 1542.12 366.188C1541.25 366.188 1540.48 366.292 1539.81 366.5C1539.15 366.688 1538.59 366.969 1538.16 367.344C1537.74 367.698 1537.42 368.125 1537.19 368.625C1536.98 369.125 1536.88 369.667 1536.88 370.25C1536.88 371.062 1537.08 371.75 1537.5 372.312C1537.92 372.854 1538.46 373.333 1539.12 373.75C1539.79 374.167 1540.55 374.542 1541.41 374.875C1542.26 375.208 1543.12 375.552 1544 375.906C1544.9 376.26 1545.77 376.656 1546.62 377.094C1547.5 377.531 1548.27 378.062 1548.94 378.688C1549.6 379.312 1550.14 380.062 1550.53 380.938C1550.95 381.812 1551.16 382.854 1551.16 384.062Z" fill="black"/>
</svg>
