<svg width="1475" height="178" viewBox="0 0 1475 178" fill="none" xmlns="http://www.w3.org/2000/svg">
<path d="M110.75 61.9375C110.75 71.0208 109.333 79.0625 106.5 86.0625C103.667 93.0625 99.5417 98.9792 94.125 103.812C88.7083 108.562 82.0417 112.188 74.125 114.688C66.2917 117.188 57.0417 118.438 46.375 118.438H32.875V170.062C32.875 170.896 32.5833 171.646 32 172.312C31.5 172.979 30.625 173.521 29.375 173.938C28.125 174.354 26.4583 174.688 24.375 174.938C22.2917 175.188 19.625 175.312 16.375 175.312C13.2083 175.312 10.5417 175.188 8.375 174.938C6.29167 174.688 4.625 174.354 3.375 173.938C2.125 173.521 1.25 172.979 0.75 172.312C0.25 171.646 0 170.896 0 170.062V24.5625C0 20.6458 1 17.7292 3 15.8125C5.08333 13.8125 7.79167 12.8125 11.125 12.8125H49.25C53.0833 12.8125 56.7083 12.9792 60.125 13.3125C63.625 13.5625 67.7917 14.1875 72.625 15.1875C77.4583 16.1042 82.3333 17.8542 87.25 20.4375C92.25 23.0208 96.5 26.3125 100 30.3125C103.5 34.2292 106.167 38.8542 108 44.1875C109.833 49.4375 110.75 55.3542 110.75 61.9375ZM76.375 64.3125C76.375 58.6458 75.375 53.9792 73.375 50.3125C71.375 46.6458 68.9167 43.9375 66 42.1875C63.0833 40.4375 60 39.3542 56.75 38.9375C53.5833 38.4375 50.2917 38.1875 46.875 38.1875H32.875V93.0625H47.625C52.875 93.0625 57.25 92.3542 60.75 90.9375C64.3333 89.5208 67.25 87.5625 69.5 85.0625C71.75 82.4792 73.4583 79.4375 74.625 75.9375C75.7917 72.3542 76.375 68.4792 76.375 64.3125Z" fill="#F97316"/>
<path d="M240.125 170.312C240.125 171.146 239.917 171.896 239.5 172.562C239.083 173.146 238.333 173.646 237.25 174.062C236.25 174.479 234.875 174.771 233.125 174.938C231.458 175.188 229.333 175.312 226.75 175.312C224 175.312 221.75 175.188 220 174.938C218.333 174.771 217 174.479 216 174.062C215 173.646 214.292 173.146 213.875 172.562C213.458 171.896 213.25 171.146 213.25 170.312V157.438C207.083 164.104 200.792 169.104 194.375 172.438C188.042 175.771 181.458 177.438 174.625 177.438C166.958 177.438 160.5 176.188 155.25 173.688C150.083 171.188 145.875 167.771 142.625 163.438C139.458 159.104 137.167 154.104 135.75 148.438C134.417 142.688 133.75 135.562 133.75 127.062V58.8125C133.75 57.9792 133.958 57.2708 134.375 56.6875C134.875 56.0208 135.708 55.4792 136.875 55.0625C138.125 54.6458 139.75 54.3542 141.75 54.1875C143.833 53.9375 146.375 53.8125 149.375 53.8125C152.458 53.8125 155 53.9375 157 54.1875C159 54.3542 160.583 54.6458 161.75 55.0625C163 55.4792 163.875 56.0208 164.375 56.6875C164.875 57.2708 165.125 57.9792 165.125 58.8125V121.812C165.125 127.646 165.5 132.104 166.25 135.188C167 138.271 168.125 140.938 169.625 143.188C171.208 145.354 173.167 147.062 175.5 148.312C177.917 149.479 180.708 150.062 183.875 150.062C187.875 150.062 191.875 148.604 195.875 145.688C199.958 142.771 204.292 138.521 208.875 132.938V58.8125C208.875 57.9792 209.083 57.2708 209.5 56.6875C210 56.0208 210.833 55.4792 212 55.0625C213.25 54.6458 214.875 54.3542 216.875 54.1875C218.875 53.9375 221.417 53.8125 224.5 53.8125C227.583 53.8125 230.125 53.9375 232.125 54.1875C234.125 54.3542 235.708 54.6458 236.875 55.0625C238.042 55.4792 238.875 56.0208 239.375 56.6875C239.875 57.2708 240.125 57.9792 240.125 58.8125V170.312Z" fill="#F97316"/>
<path d="M303.375 170.312C303.375 171.146 303.125 171.896 302.625 172.562C302.125 173.146 301.25 173.646 300 174.062C298.833 174.479 297.25 174.771 295.25 174.938C293.25 175.188 290.708 175.312 287.625 175.312C284.542 175.312 282 175.188 280 174.938C278 174.771 276.375 174.479 275.125 174.062C273.958 173.646 273.125 173.146 272.625 172.562C272.125 171.896 271.875 171.146 271.875 170.312V5.9375C271.875 5.10417 272.125 4.35417 272.625 3.6875C273.125 3.02083 273.958 2.47917 275.125 2.0625C276.375 1.5625 278 1.1875 280 0.9375C282 0.6875 284.542 0.5625 287.625 0.5625C290.708 0.5625 293.25 0.6875 295.25 0.9375C297.25 1.1875 298.833 1.5625 300 2.0625C301.25 2.47917 302.125 3.02083 302.625 3.6875C303.125 4.35417 303.375 5.10417 303.375 5.9375V170.312Z" fill="#F97316"/>
<path d="M413.375 138.812C413.375 145.146 412.167 150.729 409.75 155.562C407.417 160.396 404.083 164.438 399.75 167.688C395.417 170.938 390.292 173.354 384.375 174.938C378.458 176.604 372.042 177.438 365.125 177.438C360.958 177.438 356.958 177.104 353.125 176.438C349.375 175.854 346 175.104 343 174.188C340 173.188 337.5 172.188 335.5 171.188C333.5 170.188 332.042 169.271 331.125 168.438C330.208 167.521 329.5 166.146 329 164.312C328.5 162.396 328.25 159.604 328.25 155.938C328.25 153.521 328.333 151.604 328.5 150.188C328.667 148.688 328.917 147.521 329.25 146.688C329.583 145.771 330 145.188 330.5 144.938C331 144.604 331.625 144.438 332.375 144.438C333.292 144.438 334.625 144.979 336.375 146.062C338.208 147.062 340.458 148.188 343.125 149.438C345.792 150.688 348.875 151.854 352.375 152.938C355.958 154.021 360 154.562 364.5 154.562C367.333 154.562 369.833 154.271 372 153.688C374.25 153.104 376.167 152.271 377.75 151.188C379.417 150.104 380.667 148.729 381.5 147.062C382.333 145.396 382.75 143.479 382.75 141.312C382.75 138.812 381.958 136.688 380.375 134.938C378.875 133.104 376.833 131.521 374.25 130.188C371.75 128.854 368.875 127.604 365.625 126.438C362.458 125.271 359.167 123.979 355.75 122.562C352.417 121.146 349.125 119.521 345.875 117.688C342.708 115.854 339.833 113.604 337.25 110.938C334.75 108.271 332.708 105.062 331.125 101.312C329.625 97.5625 328.875 93.0625 328.875 87.8125C328.875 82.4792 329.917 77.6042 332 73.1875C334.083 68.6875 337.083 64.8542 341 61.6875C344.917 58.5208 349.667 56.0625 355.25 54.3125C360.917 52.5625 367.25 51.6875 374.25 51.6875C377.75 51.6875 381.125 51.9375 384.375 52.4375C387.708 52.9375 390.708 53.5625 393.375 54.3125C396.042 55.0625 398.292 55.8958 400.125 56.8125C401.958 57.6458 403.25 58.3958 404 59.0625C404.833 59.6458 405.417 60.2708 405.75 60.9375C406.083 61.5208 406.333 62.2708 406.5 63.1875C406.667 64.0208 406.792 65.1042 406.875 66.4375C407.042 67.6875 407.125 69.2708 407.125 71.1875C407.125 73.4375 407.042 75.2708 406.875 76.6875C406.792 78.1042 406.583 79.2292 406.25 80.0625C406 80.8958 405.625 81.4792 405.125 81.8125C404.625 82.0625 404.042 82.1875 403.375 82.1875C402.625 82.1875 401.458 81.7708 399.875 80.9375C398.292 80.0208 396.292 79.0625 393.875 78.0625C391.542 77.0625 388.792 76.1458 385.625 75.3125C382.542 74.3958 379 73.9375 375 73.9375C372.167 73.9375 369.708 74.2292 367.625 74.8125C365.542 75.3958 363.833 76.2292 362.5 77.3125C361.167 78.3958 360.167 79.6875 359.5 81.1875C358.833 82.6042 358.5 84.1458 358.5 85.8125C358.5 88.3958 359.292 90.5625 360.875 92.3125C362.458 94.0625 364.542 95.6042 367.125 96.9375C369.708 98.2708 372.625 99.5208 375.875 100.688C379.208 101.854 382.542 103.146 385.875 104.562C389.292 105.896 392.625 107.479 395.875 109.312C399.208 111.146 402.167 113.396 404.75 116.062C407.333 118.729 409.417 121.938 411 125.688C412.583 129.354 413.375 133.729 413.375 138.812Z" fill="#F97316"/>
<path d="M540.125 111.312C540.125 115.146 539.25 117.979 537.5 119.812C535.833 121.646 533.5 122.562 530.5 122.562H462.625C462.625 127.312 463.167 131.646 464.25 135.562C465.417 139.396 467.208 142.688 469.625 145.438C472.125 148.104 475.292 150.146 479.125 151.562C483.042 152.979 487.708 153.688 493.125 153.688C498.625 153.688 503.458 153.312 507.625 152.562C511.792 151.729 515.375 150.854 518.375 149.938C521.458 148.938 524 148.062 526 147.312C528 146.479 529.625 146.062 530.875 146.062C531.625 146.062 532.25 146.229 532.75 146.562C533.25 146.812 533.667 147.312 534 148.062C534.333 148.812 534.542 149.896 534.625 151.312C534.792 152.646 534.875 154.354 534.875 156.438C534.875 158.271 534.833 159.854 534.75 161.188C534.667 162.438 534.542 163.521 534.375 164.438C534.208 165.354 533.958 166.146 533.625 166.812C533.292 167.396 532.833 167.979 532.25 168.562C531.75 169.146 530.292 169.938 527.875 170.938C525.458 171.938 522.375 172.938 518.625 173.938C514.875 174.854 510.583 175.646 505.75 176.312C500.917 177.062 495.75 177.438 490.25 177.438C480.333 177.438 471.625 176.188 464.125 173.688C456.708 171.188 450.5 167.396 445.5 162.312C440.5 157.229 436.75 150.812 434.25 143.062C431.833 135.312 430.625 126.229 430.625 115.812C430.625 105.896 431.917 96.9792 434.5 89.0625C437.083 81.0625 440.833 74.3125 445.75 68.8125C450.667 63.2292 456.625 58.9792 463.625 56.0625C470.708 53.1458 478.667 51.6875 487.5 51.6875C496.833 51.6875 504.792 53.0625 511.375 55.8125C518.042 58.5625 523.5 62.3958 527.75 67.3125C532 72.1458 535.125 77.8958 537.125 84.5625C539.125 91.2292 540.125 98.4792 540.125 106.312V111.312ZM509.625 102.312C509.875 93.4792 508.083 86.5625 504.25 81.5625C500.5 76.4792 494.667 73.9375 486.75 73.9375C482.75 73.9375 479.25 74.6875 476.25 76.1875C473.333 77.6875 470.875 79.7292 468.875 82.3125C466.958 84.8125 465.458 87.8125 464.375 91.3125C463.375 94.7292 462.792 98.3958 462.625 102.312H509.625Z" fill="#F97316"/>
<path d="M737.875 150.062C737.875 152.146 737.792 153.938 737.625 155.438C737.542 156.854 737.375 158.104 737.125 159.188C736.875 160.188 736.542 161.062 736.125 161.812C735.708 162.562 735.042 163.438 734.125 164.438C733.208 165.354 731.417 166.562 728.75 168.062C726.167 169.562 722.958 171.021 719.125 172.438C715.375 173.771 711.042 174.896 706.125 175.812C701.292 176.729 696.042 177.188 690.375 177.188C679.292 177.188 669.292 175.479 660.375 172.062C651.458 168.646 643.875 163.562 637.625 156.812C631.375 149.979 626.583 141.479 623.25 131.312C619.917 121.146 618.25 109.312 618.25 95.8125C618.25 82.0625 620.083 69.8542 623.75 59.1875C627.417 48.5208 632.542 39.5625 639.125 32.3125C645.708 25.0625 653.583 19.5625 662.75 15.8125C672 12.0625 682.167 10.1875 693.25 10.1875C697.75 10.1875 702.083 10.5625 706.25 11.3125C710.417 12.0625 714.25 13.0625 717.75 14.3125C721.333 15.4792 724.542 16.8542 727.375 18.4375C730.208 20.0208 732.167 21.3958 733.25 22.5625C734.417 23.6458 735.208 24.5625 735.625 25.3125C736.042 26.0625 736.375 27.0208 736.625 28.1875C736.875 29.3542 737.042 30.7292 737.125 32.3125C737.292 33.8958 737.375 35.8542 737.375 38.1875C737.375 40.6875 737.292 42.8125 737.125 44.5625C736.958 46.3125 736.667 47.7292 736.25 48.8125C735.833 49.8958 735.333 50.6875 734.75 51.1875C734.167 51.6875 733.5 51.9375 732.75 51.9375C731.5 51.9375 729.917 51.2292 728 49.8125C726.083 48.3125 723.583 46.6875 720.5 44.9375C717.5 43.1042 713.875 41.4792 709.625 40.0625C705.458 38.5625 700.458 37.8125 694.625 37.8125C688.208 37.8125 682.458 39.1458 677.375 41.8125C672.375 44.3958 668.083 48.1458 664.5 53.0625C661 57.8958 658.333 63.7708 656.5 70.6875C654.667 77.6042 653.75 85.3958 653.75 94.0625C653.75 103.562 654.708 111.812 656.625 118.812C658.625 125.729 661.417 131.438 665 135.938C668.667 140.438 673.042 143.812 678.125 146.062C683.292 148.229 689.083 149.312 695.5 149.312C701.333 149.312 706.375 148.646 710.625 147.312C714.875 145.896 718.5 144.354 721.5 142.688C724.583 141.021 727.083 139.521 729 138.188C731 136.854 732.542 136.188 733.625 136.188C734.458 136.188 735.125 136.354 735.625 136.688C736.125 137.021 736.542 137.688 736.875 138.688C737.208 139.688 737.458 141.104 737.625 142.938C737.792 144.688 737.875 147.062 737.875 150.062Z" fill="black"/>
<path d="M872.375 113.438C872.375 122.938 871.125 131.604 868.625 139.438C866.125 147.271 862.333 154.021 857.25 159.688C852.167 165.354 845.792 169.729 838.125 172.812C830.458 175.896 821.5 177.438 811.25 177.438C801.333 177.438 792.708 176.062 785.375 173.312C778.042 170.562 771.958 166.562 767.125 161.312C762.292 156.062 758.708 149.604 756.375 141.938C754.042 134.271 752.875 125.521 752.875 115.688C752.875 106.188 754.125 97.5208 756.625 89.6875C759.208 81.7708 763.042 75.0208 768.125 69.4375C773.208 63.7708 779.542 59.3958 787.125 56.3125C794.792 53.2292 803.75 51.6875 814 51.6875C824 51.6875 832.667 53.0625 840 55.8125C847.333 58.4792 853.375 62.4375 858.125 67.6875C862.958 72.9375 866.542 79.3958 868.875 87.0625C871.208 94.7292 872.375 103.521 872.375 113.438ZM840 114.688C840 109.188 839.542 104.146 838.625 99.5625C837.792 94.8958 836.333 90.8542 834.25 87.4375C832.167 84.0208 829.375 81.3542 825.875 79.4375C822.458 77.5208 818.125 76.5625 812.875 76.5625C808.208 76.5625 804.125 77.4375 800.625 79.1875C797.125 80.8542 794.25 83.3542 792 86.6875C789.75 89.9375 788.042 93.8958 786.875 98.5625C785.792 103.146 785.25 108.396 785.25 114.312C785.25 119.812 785.708 124.896 786.625 129.562C787.542 134.146 789 138.146 791 141.562C793.083 144.979 795.875 147.646 799.375 149.562C802.875 151.396 807.208 152.312 812.375 152.312C817.125 152.312 821.25 151.479 824.75 149.812C828.25 148.062 831.125 145.562 833.375 142.312C835.625 139.062 837.292 135.146 838.375 130.562C839.458 125.896 840 120.604 840 114.688Z" fill="black"/>
<path d="M1003.88 170.312C1003.88 171.146 1003.62 171.896 1003.12 172.562C1002.62 173.146 1001.79 173.646 1000.62 174.062C999.458 174.479 997.833 174.771 995.75 174.938C993.75 175.188 991.25 175.312 988.25 175.312C985.167 175.312 982.583 175.188 980.5 174.938C978.5 174.771 976.917 174.479 975.75 174.062C974.583 173.646 973.75 173.146 973.25 172.562C972.75 171.896 972.5 171.146 972.5 170.312V106.688C972.5 101.271 972.083 97.0208 971.25 93.9375C970.5 90.8542 969.375 88.2292 967.875 86.0625C966.375 83.8125 964.417 82.1042 962 80.9375C959.667 79.6875 956.917 79.0625 953.75 79.0625C949.75 79.0625 945.708 80.5208 941.625 83.4375C937.542 86.3542 933.292 90.6042 928.875 96.1875V170.312C928.875 171.146 928.625 171.896 928.125 172.562C927.625 173.146 926.75 173.646 925.5 174.062C924.333 174.479 922.75 174.771 920.75 174.938C918.75 175.188 916.208 175.312 913.125 175.312C910.042 175.312 907.5 175.188 905.5 174.938C903.5 174.771 901.875 174.479 900.625 174.062C899.458 173.646 898.625 173.146 898.125 172.562C897.625 171.896 897.375 171.146 897.375 170.312V58.8125C897.375 57.9792 897.583 57.2708 898 56.6875C898.417 56.0208 899.167 55.4792 900.25 55.0625C901.333 54.6458 902.708 54.3542 904.375 54.1875C906.125 53.9375 908.292 53.8125 910.875 53.8125C913.542 53.8125 915.75 53.9375 917.5 54.1875C919.25 54.3542 920.583 54.6458 921.5 55.0625C922.5 55.4792 923.208 56.0208 923.625 56.6875C924.042 57.2708 924.25 57.9792 924.25 58.8125V71.6875C930.417 65.0208 936.667 60.0208 943 56.6875C949.417 53.3542 956.083 51.6875 963 51.6875C970.583 51.6875 976.958 52.9375 982.125 55.4375C987.375 57.9375 991.583 61.3542 994.75 65.6875C998 69.9375 1000.33 74.9375 1001.75 80.6875C1003.17 86.4375 1003.88 93.3542 1003.88 101.438V170.312Z" fill="black"/>
<path d="M1141.38 170.312C1141.38 171.146 1141.12 171.896 1140.62 172.562C1140.12 173.146 1139.29 173.646 1138.12 174.062C1136.96 174.479 1135.33 174.771 1133.25 174.938C1131.25 175.188 1128.75 175.312 1125.75 175.312C1122.67 175.312 1120.08 175.188 1118 174.938C1116 174.771 1114.42 174.479 1113.25 174.062C1112.08 173.646 1111.25 173.146 1110.75 172.562C1110.25 171.896 1110 171.146 1110 170.312V106.688C1110 101.271 1109.58 97.0208 1108.75 93.9375C1108 90.8542 1106.88 88.2292 1105.38 86.0625C1103.88 83.8125 1101.92 82.1042 1099.5 80.9375C1097.17 79.6875 1094.42 79.0625 1091.25 79.0625C1087.25 79.0625 1083.21 80.5208 1079.12 83.4375C1075.04 86.3542 1070.79 90.6042 1066.38 96.1875V170.312C1066.38 171.146 1066.12 171.896 1065.62 172.562C1065.12 173.146 1064.25 173.646 1063 174.062C1061.83 174.479 1060.25 174.771 1058.25 174.938C1056.25 175.188 1053.71 175.312 1050.62 175.312C1047.54 175.312 1045 175.188 1043 174.938C1041 174.771 1039.38 174.479 1038.12 174.062C1036.96 173.646 1036.12 173.146 1035.62 172.562C1035.12 171.896 1034.88 171.146 1034.88 170.312V58.8125C1034.88 57.9792 1035.08 57.2708 1035.5 56.6875C1035.92 56.0208 1036.67 55.4792 1037.75 55.0625C1038.83 54.6458 1040.21 54.3542 1041.88 54.1875C1043.62 53.9375 1045.79 53.8125 1048.38 53.8125C1051.04 53.8125 1053.25 53.9375 1055 54.1875C1056.75 54.3542 1058.08 54.6458 1059 55.0625C1060 55.4792 1060.71 56.0208 1061.12 56.6875C1061.54 57.2708 1061.75 57.9792 1061.75 58.8125V71.6875C1067.92 65.0208 1074.17 60.0208 1080.5 56.6875C1086.92 53.3542 1093.58 51.6875 1100.5 51.6875C1108.08 51.6875 1114.46 52.9375 1119.62 55.4375C1124.88 57.9375 1129.08 61.3542 1132.25 65.6875C1135.5 69.9375 1137.83 74.9375 1139.25 80.6875C1140.67 86.4375 1141.38 93.3542 1141.38 101.438V170.312Z" fill="black"/>
<path d="M1275.38 111.312C1275.38 115.146 1274.5 117.979 1272.75 119.812C1271.08 121.646 1268.75 122.562 1265.75 122.562H1197.88C1197.88 127.312 1198.42 131.646 1199.5 135.562C1200.67 139.396 1202.46 142.688 1204.88 145.438C1207.38 148.104 1210.54 150.146 1214.38 151.562C1218.29 152.979 1222.96 153.688 1228.38 153.688C1233.88 153.688 1238.71 153.312 1242.88 152.562C1247.04 151.729 1250.62 150.854 1253.62 149.938C1256.71 148.938 1259.25 148.062 1261.25 147.312C1263.25 146.479 1264.88 146.062 1266.12 146.062C1266.88 146.062 1267.5 146.229 1268 146.562C1268.5 146.812 1268.92 147.312 1269.25 148.062C1269.58 148.812 1269.79 149.896 1269.88 151.312C1270.04 152.646 1270.12 154.354 1270.12 156.438C1270.12 158.271 1270.08 159.854 1270 161.188C1269.92 162.438 1269.79 163.521 1269.62 164.438C1269.46 165.354 1269.21 166.146 1268.88 166.812C1268.54 167.396 1268.08 167.979 1267.5 168.562C1267 169.146 1265.54 169.938 1263.12 170.938C1260.71 171.938 1257.62 172.938 1253.88 173.938C1250.12 174.854 1245.83 175.646 1241 176.312C1236.17 177.062 1231 177.438 1225.5 177.438C1215.58 177.438 1206.88 176.188 1199.38 173.688C1191.96 171.188 1185.75 167.396 1180.75 162.312C1175.75 157.229 1172 150.812 1169.5 143.062C1167.08 135.312 1165.88 126.229 1165.88 115.812C1165.88 105.896 1167.17 96.9792 1169.75 89.0625C1172.33 81.0625 1176.08 74.3125 1181 68.8125C1185.92 63.2292 1191.88 58.9792 1198.88 56.0625C1205.96 53.1458 1213.92 51.6875 1222.75 51.6875C1232.08 51.6875 1240.04 53.0625 1246.62 55.8125C1253.29 58.5625 1258.75 62.3958 1263 67.3125C1267.25 72.1458 1270.38 77.8958 1272.38 84.5625C1274.38 91.2292 1275.38 98.4792 1275.38 106.312V111.312ZM1244.88 102.312C1245.12 93.4792 1243.33 86.5625 1239.5 81.5625C1235.75 76.4792 1229.92 73.9375 1222 73.9375C1218 73.9375 1214.5 74.6875 1211.5 76.1875C1208.58 77.6875 1206.12 79.7292 1204.12 82.3125C1202.21 84.8125 1200.71 87.8125 1199.62 91.3125C1198.62 94.7292 1198.04 98.3958 1197.88 102.312H1244.88Z" fill="black"/>
<path d="M1385.75 152.562C1385.75 154.729 1385.67 156.562 1385.5 158.062C1385.42 159.479 1385.25 160.688 1385 161.688C1384.83 162.688 1384.58 163.521 1384.25 164.188C1384 164.771 1383.38 165.562 1382.38 166.562C1381.38 167.479 1379.67 168.646 1377.25 170.062C1374.83 171.396 1372.08 172.604 1369 173.688C1365.92 174.771 1362.54 175.646 1358.88 176.312C1355.29 176.979 1351.58 177.312 1347.75 177.312C1339.17 177.312 1331.54 175.979 1324.88 173.312C1318.29 170.646 1312.75 166.729 1308.25 161.562C1303.75 156.312 1300.33 149.938 1298 142.438C1295.75 134.938 1294.62 126.354 1294.62 116.688C1294.62 105.521 1296 95.8958 1298.75 87.8125C1301.58 79.6458 1305.5 72.8958 1310.5 67.5625C1315.5 62.2292 1321.42 58.2708 1328.25 55.6875C1335.08 53.1042 1342.58 51.8125 1350.75 51.8125C1354.08 51.8125 1357.33 52.1042 1360.5 52.6875C1363.75 53.2708 1366.75 54.0625 1369.5 55.0625C1372.33 56.0625 1374.83 57.1875 1377 58.4375C1379.25 59.6875 1380.83 60.7708 1381.75 61.6875C1382.67 62.6042 1383.29 63.3958 1383.62 64.0625C1384.04 64.6458 1384.33 65.4375 1384.5 66.4375C1384.75 67.4375 1384.92 68.6875 1385 70.1875C1385.17 71.6042 1385.25 73.3542 1385.25 75.4375C1385.25 80.2708 1384.83 83.6875 1384 85.6875C1383.17 87.6042 1382.08 88.5625 1380.75 88.5625C1379.33 88.5625 1377.83 87.9792 1376.25 86.8125C1374.67 85.6458 1372.79 84.3542 1370.62 82.9375C1368.46 81.5208 1365.88 80.2292 1362.88 79.0625C1359.88 77.8958 1356.29 77.3125 1352.12 77.3125C1343.96 77.3125 1337.71 80.4792 1333.38 86.8125C1329.04 93.0625 1326.88 102.271 1326.88 114.438C1326.88 120.438 1327.42 125.729 1328.5 130.312C1329.58 134.896 1331.17 138.729 1333.25 141.812C1335.42 144.896 1338.08 147.229 1341.25 148.812C1344.5 150.312 1348.25 151.062 1352.5 151.062C1356.83 151.062 1360.54 150.438 1363.62 149.188C1366.79 147.854 1369.54 146.396 1371.88 144.812C1374.21 143.229 1376.17 141.812 1377.75 140.562C1379.33 139.229 1380.67 138.562 1381.75 138.562C1382.5 138.562 1383.12 138.771 1383.62 139.188C1384.12 139.604 1384.5 140.396 1384.75 141.562C1385.08 142.646 1385.33 144.062 1385.5 145.812C1385.67 147.562 1385.75 149.812 1385.75 152.562Z" fill="black"/>
<path d="M1474.62 159.312C1474.62 162.979 1474.38 165.812 1473.88 167.812C1473.46 169.729 1472.88 171.104 1472.12 171.938C1471.38 172.688 1470.25 173.396 1468.75 174.062C1467.33 174.646 1465.62 175.146 1463.62 175.562C1461.71 176.062 1459.58 176.438 1457.25 176.688C1455 176.938 1452.71 177.062 1450.38 177.062C1444.12 177.062 1438.71 176.271 1434.12 174.688C1429.54 173.104 1425.75 170.688 1422.75 167.438C1419.75 164.104 1417.54 159.938 1416.12 154.938C1414.71 149.938 1414 144.021 1414 137.188V80.0625H1400.62C1399.04 80.0625 1397.83 79.1042 1397 77.1875C1396.17 75.1875 1395.75 71.8958 1395.75 67.3125C1395.75 64.8958 1395.83 62.8542 1396 61.1875C1396.25 59.5208 1396.58 58.2292 1397 57.3125C1397.42 56.3125 1397.92 55.6042 1398.5 55.1875C1399.17 54.7708 1399.92 54.5625 1400.75 54.5625H1414V29.6875C1414 28.8542 1414.21 28.1042 1414.62 27.4375C1415.12 26.7708 1415.96 26.2292 1417.12 25.8125C1418.38 25.3125 1420 24.9792 1422 24.8125C1424.08 24.5625 1426.62 24.4375 1429.62 24.4375C1432.71 24.4375 1435.25 24.5625 1437.25 24.8125C1439.33 24.9792 1440.96 25.3125 1442.12 25.8125C1443.29 26.2292 1444.12 26.7708 1444.62 27.4375C1445.12 28.1042 1445.38 28.8542 1445.38 29.6875V54.5625H1469.62C1470.46 54.5625 1471.17 54.7708 1471.75 55.1875C1472.42 55.6042 1472.96 56.3125 1473.38 57.3125C1473.79 58.2292 1474.08 59.5208 1474.25 61.1875C1474.5 62.8542 1474.62 64.8958 1474.62 67.3125C1474.62 71.8958 1474.21 75.1875 1473.38 77.1875C1472.54 79.1042 1471.33 80.0625 1469.75 80.0625H1445.38V132.438C1445.38 138.521 1446.33 143.104 1448.25 146.188C1450.17 149.188 1453.58 150.688 1458.5 150.688C1460.17 150.688 1461.67 150.562 1463 150.312C1464.33 149.979 1465.5 149.646 1466.5 149.312C1467.58 148.896 1468.46 148.562 1469.12 148.312C1469.88 147.979 1470.54 147.812 1471.12 147.812C1471.62 147.812 1472.08 147.979 1472.5 148.312C1473 148.562 1473.38 149.146 1473.62 150.062C1473.88 150.896 1474.08 152.062 1474.25 153.562C1474.5 155.062 1474.62 156.979 1474.62 159.312Z" fill="black"/>
</svg>
